<?xml version="1.0" encoding="UTF-8" standalone="no"?>
<!-- Created with Inkscape (http://www.inkscape.org/) -->

<svg
   xmlns:dc="http://purl.org/dc/elements/1.1/"
   xmlns:cc="http://creativecommons.org/ns#"
   xmlns:rdf="http://www.w3.org/1999/02/22-rdf-syntax-ns#"
   xmlns:svg="http://www.w3.org/2000/svg"
   xmlns="http://www.w3.org/2000/svg"
   xmlns:sodipodi="http://sodipodi.sourceforge.net/DTD/sodipodi-0.dtd"
   xmlns:inkscape="http://www.inkscape.org/namespaces/inkscape"
   width="210mm"
   height="297mm"
   viewBox="0 0 744.09448819 1052.3622047"
   id="svg6579"
   version="1.1"
   inkscape:version="0.91 r13725"
   sodipodi:docname="corona.svg">
  <defs
     id="defs6581" />
  <sodipodi:namedview
     id="base"
     pagecolor="#ffffff"
     bordercolor="#666666"
     borderopacity="1.0"
     inkscape:pageopacity="0.0"
     inkscape:pageshadow="2"
     inkscape:zoom="0.7"
     inkscape:cx="725.99658"
     inkscape:cy="767.33108"
     inkscape:document-units="px"
     inkscape:current-layer="layer1"
     showgrid="false"
     inkscape:window-width="1280"
     inkscape:window-height="962"
     inkscape:window-x="-8"
     inkscape:window-y="-8"
     inkscape:window-maximized="1" />
  <metadata
     id="metadata6584">
    <rdf:RDF>
      <cc:Work
         rdf:about="">
        <dc:format>image/svg+xml</dc:format>
        <dc:type
           rdf:resource="http://purl.org/dc/dcmitype/StillImage" />
        <dc:title></dc:title>
      </cc:Work>
    </rdf:RDF>
  </metadata>
  <g
     inkscape:label="Capa 1"
     inkscape:groupmode="layer"
     id="layer1">
    <path
       style="fill:#000000;fill-opacity:1;stroke:#e68103;stroke-width:6.69857264;stroke-linecap:round;stroke-linejoin:miter;stroke-miterlimit:4;stroke-dasharray:none;stroke-opacity:1"
       d="m 377.79462,31.632877 c -12.35719,7.8004 -22.53447,15.0238 -30.89648,21.7832 -4.181,3.37966 -7.91857,6.62727 -11.24805,9.78711 -3.32948,3.15984 -6.22267,6.2323 -8.79883,9.19922 -2.57615,2.96692 -4.82705,5.80842 -6.74804,8.60937 -1.921,2.80094 -3.53246,5.50801 -4.89649,8.16992 -1.36403,2.66191 -2.4678,5.25097 -3.37305,7.80079 -0.90525,2.54981 -1.63893,5.113463 -2.18359,7.578123 -1.08932,4.92934 -1.55107,9.67539 -1.78711,14.42578 -0.23604,4.75039 -0.22823,9.48845 -0.39648,14.27539 -0.16831,4.78694 -0.50274,9.60552 -1.38868,14.64453 -0.88593,5.03901 -2.30817,10.31567 -4.69726,15.82227 2.98637,5.50661 5.35543,10.63449 7.14453,15.45508 1.78909,4.82059 2.96852,9.32793 3.70508,13.46679 0.73657,4.13885 1.03066,7.94682 0.85937,11.40821 -0.17128,3.46138 -0.7843,6.5575 -1.71875,9.3457 -0.93445,2.78821 -2.21858,5.24007 -3.77148,7.35938 -1.55289,2.1193 -3.39914,3.91639 -5.42578,5.37109 -2.02664,1.45469 -4.19315,2.59237 -6.54883,3.38672 -2.35568,0.79434 -4.87014,1.25818 -7.41016,1.39648 -2.54001,0.13824 -5.16058,-0.0746 -7.74023,-0.58789 -2.57965,-0.51347 -5.13478,-1.34098 -7.60938,-2.50195 -2.47459,-1.16096 -4.8533,-2.68607 -7.07812,-4.49024 -2.22482,-1.80416 -4.25752,-3.88504 -6.08789,-6.32812 -1.83036,-2.44309 -3.47249,-5.23869 -4.76367,-8.31641 -1.29118,-3.07772 -2.23644,-6.4462 -2.84375,-10.15429 -0.60732,-3.70809 -0.88337,-7.73616 -0.66211,-12.07032 0.22126,-4.33415 0.92263,-8.95225 2.11719,-13.9082 -1.61791,-3.80851 -3.58625,-7.35272 -5.82227,-10.67187 -2.23602,-3.31915 -4.72702,-6.43302 -7.47656,-9.34571 -2.74955,-2.91269 -5.77316,-5.65305 -8.93164,-8.24218 -3.15848,-2.58914 -6.46101,-5.01089 -9.92383,-7.35938 -6.92563,-4.697 -14.38294,-9.01421 -21.89844,-13.24609 -7.5155,-4.23188 -15.09266,-8.37464 -22.36132,-12.80469 -1.92537,4.68441 -3.61078,9.34365 -5.02735,14.05664 -1.41658,4.713 -2.54122,9.46472 -3.50781,14.20312 -0.96658,4.7384 -1.73908,9.4425 -2.31445,14.20313 -0.57536,4.76063 -0.94847,9.56992 -1.19141,14.34961 -0.48589,9.55939 -0.4246,19.15889 0.0664,28.77539 0.49106,9.6165 1.38313,19.27174 2.38086,28.91992 4.77817,3.30398 8.81725,6.49784 12.24023,9.64063 3.42297,3.14279 6.20862,6.19267 8.40234,9.12695 2.19372,2.93428 3.80414,5.78447 4.89453,8.46289 1.0904,2.67841 1.67408,5.20487 1.78711,7.58008 0.11305,2.37522 -0.25379,4.59839 -0.99219,6.62304 -0.73841,2.02466 -1.84469,3.81855 -3.30859,5.44532 -1.4639,1.62677 -3.22954,3.08604 -5.29297,4.26758 -2.06343,1.18155 -4.40828,2.10791 -6.94531,2.79687 -2.53703,0.68896 -5.3204,1.10291 -8.20508,1.25195 -2.88468,0.14907 -5.89164,0.069 -8.99804,-0.36914 -3.1064,-0.43821 -6.25683,-1.20843 -9.45899,-2.28125 -3.20216,-1.07282 -6.42178,-2.51281 -9.59375,-4.26757 -3.17197,-1.75476 -6.31227,-3.84409 -9.32812,-6.32813 -3.01586,-2.48404 -5.93418,-5.35066 -8.66797,-8.61133 -2.73379,-3.26068 -5.28163,-6.8802 -7.60742,-10.96484 -2.32578,-4.08465 -4.42694,-8.58507 -6.21875,-13.54102 -2.41293,-2.09682 -4.96132,-3.87482 -7.67578,-5.29883 -2.714463,-1.42401 -5.567077,-2.5225 -8.533207,-3.38476 -2.96612,-0.86226 -6.095792,-1.50253 -9.263672,-1.91406 -3.16788,-0.41152 -6.404889,-0.59026 -9.724609,-0.66211 -6.63946,-0.14365 -13.562235,0.26176 -20.509766,0.81054 -6.947518,0.54877 -13.916997,1.26428 -20.773437,1.61719 10.28541,9.47242 21.098292,18.37826 31.888672,27.30274 10.79038,8.92447 21.568115,17.85566 31.822265,27.37695 5.127084,4.76063 10.088914,9.66847 14.886714,14.79297 4.7978,5.12449 9.42139,10.48379 13.75977,16.11523 4.33839,5.63145 8.42504,11.52905 12.17383,17.81055 3.7488,6.2815 7.16036,12.94097 10.18945,20.01562 1.14061,-0.24042 2.14333,0.14117 2.97656,1.10352 0.83323,0.96234 1.4927,2.45952 2.05079,4.49023 0.96575,3.51401 1.52024,8.60408 1.79296,14.76954 34.71009,-48.35932 86.31237,-88.42622 142.91797,-108.60547 47.79273,-17.03753 104.89788,-17.70846 152.85547,-1.10743 60.82383,21.05485 115.49215,65.31422 151.38672,117.64844 -0.0467,-1.38159 -0.0992,-2.78512 -0.12696,-4.08594 -0.1685,-7.89437 0.0431,-14.23128 0.79297,-18.47265 0.3747,-2.12067 0.85599,-3.72754 1.52149,-4.70899 0.6654,-0.98144 1.51657,-1.33968 2.51367,-1.03125 3.0291,-7.07465 6.44245,-13.73412 10.18945,-20.01562 3.747,-6.2815 7.83853,-12.1791 12.17383,-17.81055 4.3353,-5.63144 8.90141,-10.99074 13.69531,-16.11523 4.794,-5.1245 9.82817,-10.03234 14.95117,-14.79297 10.2458,-9.52129 20.97166,-18.45248 31.75586,-27.37695 10.7842,-8.92448 21.60328,-17.83032 31.88868,-27.30274 -6.8564,-0.35291 -13.83214,-1.06842 -20.77344,-1.61719 -6.9413,-0.54878 -13.87867,-0.95423 -20.50977,-0.81054 -3.3156,0.0718 -6.56061,0.25059 -9.72461,0.66211 -3.164,0.41153 -6.23231,1.0518 -9.19531,1.91406 -2.9631,0.86226 -5.82256,1.96075 -8.53516,3.38476 -2.7127,1.42401 -5.26288,3.20201 -7.67578,5.29883 -1.7918,4.95595 -3.89245,9.45637 -6.21875,13.54102 -2.3263,4.08464 -4.87282,7.70416 -7.60742,10.96484 -2.7347,3.26067 -5.65087,6.12729 -8.66797,8.61133 -3.0171,2.48404 -6.15462,4.57336 -9.32812,6.32813 -3.1735,1.75475 -6.3879,3.19475 -9.5918,4.26757 -3.204,1.07282 -6.35264,1.84304 -9.46094,2.28125 -3.1084,0.43821 -6.17775,0.51819 -9.06445,0.36914 -2.8867,-0.14907 -5.59957,-0.56299 -8.13867,-1.25195 -2.5391,-0.68896 -4.87991,-1.61532 -6.94531,-2.79687 -2.0655,-1.18154 -3.89358,-2.64081 -5.35938,-4.26758 -1.4659,-1.62677 -2.56839,-3.42064 -3.30859,-5.44532 -0.7402,-2.02465 -1.10369,-4.24782 -0.99219,-6.62304 0.1114,-2.37521 0.69801,-4.90167 1.78711,-7.58008 1.0891,-2.67842 2.70173,-5.52861 4.89453,-8.46289 2.1928,-2.93428 4.97994,-5.98416 8.40234,-9.12695 3.4225,-3.14279 7.46214,-6.33665 12.24024,-9.64063 0.9978,-9.64818 1.88356,-19.30342 2.38086,-28.91992 0.4973,-9.6165 0.61041,-19.216 0.13281,-28.77539 -0.2388,-4.77969 -0.61991,-9.58898 -1.19141,-14.34961 -0.5715,-4.76063 -1.35105,-9.46473 -2.31445,-14.20313 -0.9635,-4.7384 -2.09106,-9.49012 -3.50586,-14.20312 -1.4148,-4.71299 -3.1039,-9.37223 -5.0293,-14.05664 -7.2687,4.43005 -14.90603,8.57281 -22.42773,12.80469 -7.5217,4.23188 -14.89813,8.54909 -21.83203,13.24609 -3.4669,2.34849 -6.82784,4.77022 -9.99024,7.35938 -3.1623,2.58913 -6.17894,5.32949 -8.93164,8.24218 -2.7526,2.91269 -5.23876,6.02656 -7.47656,9.34571 -2.2378,3.31915 -4.20436,6.86336 -5.82226,10.67187 1.1945,4.95595 1.89538,9.57405 2.11718,13.9082 0.2217,4.33416 -0.0536,8.36223 -0.66015,12.07032 -0.6064,3.70809 -1.55581,7.07657 -2.84571,10.15429 -1.2899,3.07772 -2.86846,5.87332 -4.69726,8.31641 -1.8288,2.44308 -3.92935,4.52396 -6.15235,6.32812 -2.2231,1.80417 -4.60737,3.32928 -7.08007,4.49024 -2.4726,1.16097 -5.02983,1.98848 -7.60743,2.50195 -2.5776,0.51347 -5.20223,0.7262 -7.74023,0.58789 -2.5379,-0.13823 -4.99005,-0.60214 -7.34375,-1.39648 -2.3536,-0.79435 -4.59249,-1.93203 -6.61719,-3.38672 -2.0247,-1.4547 -3.80827,-3.25179 -5.35937,-5.37109 -1.5512,-2.11931 -2.83663,-4.57117 -3.76953,-7.35938 -0.9329,-2.7882 -1.55061,-5.88432 -1.72071,-9.3457 -0.17,-3.46139 0.12188,-7.26936 0.85938,-11.40821 0.7374,-4.13886 1.91548,-8.6462 3.70508,-13.46679 1.7896,-4.82059 4.16018,-9.94847 7.14648,-15.45508 -2.389,-5.5066 -3.81142,-10.78326 -4.69922,-15.82227 -0.8877,-5.03901 -1.21737,-9.85759 -1.38867,-14.64453 -0.1713,-4.78694 -0.22299,-9.525 -0.46289,-14.27539 -0.2399,-4.75039 -0.69371,-9.49644 -1.78711,-14.42578 -0.5468,-2.46466 -1.27434,-5.028313 -2.18164,-7.578123 -0.9073,-2.54982 -2.0091,-5.13888 -3.375,-7.80079 -1.366,-2.66191 -2.97378,-5.36898 -4.89648,-8.16992 -1.9228,-2.80095 -4.17035,-5.64245 -6.74805,-8.60937 -2.5777,-2.96692 -5.46808,-6.03938 -8.79883,-9.19922 -3.33075,-3.15984 -7.06418,-6.40745 -11.24609,-9.78711 -8.3638,-6.7594 -18.5393,-13.9828 -30.89649,-21.7832 z m -0.36523,31.23828 c 0.98143,1.48703 2.00182,2.99945 3.04687,4.53906 3.13514,4.61882 6.48771,9.48645 9.63282,14.66797 2.09672,3.45433 4.07357,7.05713 5.875,10.77734 1.80142,3.72022 3.42483,7.576873 4.68945,11.580083 1.26462,4.00321 2.19534,8.13805 2.68164,12.44141 0.48631,4.30336 0.53348,8.79532 0,13.41601 -0.26673,2.31034 -0.66935,4.6579 -1.23633,7.05078 -0.56696,2.39289 -1.31941,4.80173 -2.2168,7.2793 -0.8974,2.47756 -1.99005,5.00397 -3.24804,7.56836 -1.25799,2.56439 -2.67934,5.2021 -4.32813,7.85547 1.30675,1.59844 2.24326,3.51947 2.88672,5.73242 0.64347,2.21295 1.01248,4.69018 1.08008,7.33789 0.0164,0.66193 0.0152,1.33358 -0.002,2.01563 -0.0513,2.04613 -0.24891,4.17843 -0.56446,6.35547 -0.10518,0.72567 -0.22507,1.45686 -0.35937,2.19335 -0.40293,2.20947 -0.93065,4.45794 -1.54688,6.69141 -0.20541,0.74449 -0.42123,1.48961 -0.64648,2.23242 -0.22525,0.7428 -0.46015,1.48282 -0.70508,2.22071 -0.48985,1.47578 -1.02034,2.94021 -1.58789,4.37695 -1.13508,2.87348 -2.40064,5.60801 -3.76172,8.19726 -1.36109,2.58926 -2.83047,4.98412 -4.33008,7.10938 -1.49961,2.12526 -3.03526,4.02236 -4.58594,5.50391 -0.22363,-0.0165 -0.44621,-0.0401 -0.66992,-0.0567 -0.27503,0.0207 -0.54935,0.0356 -0.82422,0.0567 -1.55201,-1.47791 -3.08594,-3.32426 -4.58789,-5.44727 -1.50197,-2.12301 -2.96598,-4.51926 -4.33007,-7.10742 -1.36409,-2.58815 -2.62336,-5.38253 -3.76172,-8.25586 -1.13836,-2.87334 -2.16543,-5.85153 -2.99024,-8.83008 -0.82481,-2.97855 -1.48286,-5.98097 -1.90625,-8.88476 -0.42341,-2.9038 -0.6322,-5.72202 -0.5664,-8.3711 0.0658,-2.64907 0.43912,-5.12348 1.08203,-7.33789 0.64292,-2.21442 1.57889,-4.13265 2.88672,-5.73242 -1.64879,-2.65337 -3.07208,-5.29108 -4.33008,-7.85547 -1.25797,-2.56439 -2.35066,-5.0908 -3.24805,-7.56836 -0.8974,-2.47757 -1.64786,-4.88641 -2.21484,-7.2793 -0.56697,-2.39288 -0.96959,-4.74044 -1.23633,-7.05078 -0.53348,-4.62069 -0.48631,-9.11265 0,-13.41601 0.48631,-4.30336 1.41507,-8.4382 2.67969,-12.44141 1.26462,-4.00321 2.88802,-7.859863 4.68945,-11.580083 1.80143,-3.72021 3.77826,-7.32301 5.875,-10.77734 4.19347,-6.90869 8.75393,-13.25886 12.67969,-19.20703 z M 189.81611,144.16608 c 2.99165,2.64016 6.3375,5.41939 9.63867,8.54101 3.30117,3.12164 6.56003,6.54275 9.27734,10.49219 1.35865,1.9747 2.56223,4.11667 3.60742,6.36328 1.04519,2.24662 1.90535,4.60619 2.52539,7.16797 0.62005,2.5618 0.99884,5.27701 1.08204,8.19727 0.0833,2.92027 -0.10465,6.08028 -0.66993,9.40234 0.94267,0.68752 1.79182,1.6231 2.52539,2.75195 0.73356,1.12888 1.37519,2.44421 1.90821,3.89844 1.06602,2.90843 1.69461,6.34749 2.00976,9.86133 0.31518,3.51384 0.3145,7.06852 -0.0527,10.25977 -0.36727,3.19124 -1.07927,6.03002 -2.06055,7.9707 -2.02954,-1.0409 -4.38033,-2.94419 -6.69922,-5.33203 -2.31889,-2.38786 -4.62922,-5.29359 -6.59765,-8.3125 -1.96844,-3.01891 -3.55893,-6.18314 -4.53711,-9.11719 -0.4891,-1.46704 -0.85694,-2.87199 -0.97852,-4.18359 -0.12154,-1.31158 -0.0154,-2.48804 0.31055,-3.55469 -2.57163,-2.38459 -4.7037,-4.8124 -6.49414,-7.22266 -1.79041,-2.41025 -3.25547,-4.81411 -4.38281,-7.22461 -1.12733,-2.41049 -1.94113,-4.83732 -2.52344,-7.22265 -0.58231,-2.38532 -0.9286,-4.71802 -1.08399,-7.05274 -0.15539,-2.33473 -0.10068,-4.67879 0.0527,-6.9375 0.15339,-2.2587 0.42731,-4.43452 0.77148,-6.59179 0.68836,-4.31451 1.62831,-8.3981 2.3711,-12.1543 z m 373.81445,0 c 0.74278,3.7562 1.68756,7.83979 2.37109,12.1543 0.34177,2.15727 0.62107,4.33309 0.77149,6.59179 0.15041,2.25871 0.15866,4.60277 0,6.9375 -0.15866,2.33472 -0.49667,4.66742 -1.08203,7.05274 -0.58534,2.38533 -1.39565,4.81216 -2.52539,7.22265 -1.12974,2.4105 -2.58901,4.81436 -4.38086,7.22461 -1.79185,2.41026 -3.92252,4.83807 -6.49414,7.22266 0.32597,1.06665 0.4321,2.24311 0.31054,3.55469 -0.12156,1.3116 -0.49139,2.71655 -0.98047,4.18359 -0.9782,2.93405 -2.56671,6.09828 -4.53515,9.11719 -1.96843,3.01891 -4.27682,5.92464 -6.59571,8.3125 -2.31889,2.38784 -4.67163,4.29113 -6.70117,5.33203 -0.98128,-1.94068 -1.64731,-4.77946 -2.00976,-7.9707 -0.0906,-0.79781 -0.16305,-1.61793 -0.21485,-2.45508 -0.15534,-2.51144 -0.12986,-5.16931 0.11133,-7.80469 0.32159,-3.51384 0.98968,-6.9529 2.06055,-9.86133 0.53542,-1.45423 1.17322,-2.76956 1.9082,-3.89844 0.73497,-1.12886 1.58272,-2.06443 2.52539,-2.75195 -0.56525,-3.32206 -0.75312,-6.48207 -0.66992,-9.40234 0.0833,-2.92026 0.46198,-5.63547 1.08203,-8.19727 0.62004,-2.56178 1.48021,-4.92135 2.52539,-7.16797 1.04518,-2.24661 2.24875,-4.38858 3.60742,-6.36328 2.7173,-3.94944 5.97617,-7.37056 9.27735,-10.49219 3.30117,-3.12162 6.647,-5.90085 9.63867,-8.54101 z"
       id="path3826"
       inkscape:connector-curvature="0" />
    <path
       style="fill:none;stroke:#a65c45;stroke-width:0.98013729;stroke-miterlimit:22.9260006"
       inkscape:connector-curvature="0"
       stroke-miterlimit="22.926"
       d="M -1026.2001,467.22084"
       id="path5035" />
  </g>
</svg>
