<?xml version="1.0" encoding="UTF-8" standalone="no"?>
<!-- Created with Inkscape (http://www.inkscape.org/) -->

<svg
   xmlns:dc="http://purl.org/dc/elements/1.1/"
   xmlns:cc="http://creativecommons.org/ns#"
   xmlns:rdf="http://www.w3.org/1999/02/22-rdf-syntax-ns#"
   xmlns:svg="http://www.w3.org/2000/svg"
   xmlns="http://www.w3.org/2000/svg"
   xmlns:sodipodi="http://sodipodi.sourceforge.net/DTD/sodipodi-0.dtd"
   xmlns:inkscape="http://www.inkscape.org/namespaces/inkscape"
   width="210mm"
   height="297mm"
   viewBox="0 0 744.09448819 1052.3622047"
   id="svg4934"
   version="1.1"
   inkscape:version="0.91 r13725"
   sodipodi:docname="cuerpo.svg">
  <defs
     id="defs4936">
    <clipPath
       clipPathUnits="userSpaceOnUse"
       id="clipPath6379">
      <rect
         style="opacity:1;fill:#ffaaaa;fill-opacity:1;fill-rule:nonzero;stroke:none;stroke-width:4;stroke-linecap:round;stroke-linejoin:round;stroke-miterlimit:22.9260006;stroke-dasharray:none;stroke-dashoffset:0;stroke-opacity:1"
         id="rect6381"
         width="1246.3113"
         height="1757.0178"
         x="-218.37218"
         y="21.931955" />
    </clipPath>
    <inkscape:perspective
       id="perspective4111"
       inkscape:persp3d-origin="372.04724 : 350.78739 : 1"
       inkscape:vp_z="744.09448 : 526.18109 : 1"
       inkscape:vp_y="0 : 1000 : 0"
       inkscape:vp_x="0 : 526.18109 : 1"
       sodipodi:type="inkscape:persp3d" />
    <inkscape:perspective
       sodipodi:type="inkscape:persp3d"
       inkscape:vp_x="0 : 0.5 : 1"
       inkscape:vp_y="0 : 1000 : 0"
       inkscape:vp_z="1 : 0.5 : 1"
       inkscape:persp3d-origin="0.5 : 0.33333333 : 1"
       id="perspective3996" />
  </defs>
  <sodipodi:namedview
     id="base"
     pagecolor="#ffffff"
     bordercolor="#666666"
     borderopacity="1.0"
     inkscape:pageopacity="0.0"
     inkscape:pageshadow="2"
     inkscape:zoom="0.35"
     inkscape:cx="-123.27751"
     inkscape:cy="221.24127"
     inkscape:document-units="px"
     inkscape:current-layer="layer1"
     showgrid="false"
     inkscape:window-width="1920"
     inkscape:window-height="1018"
     inkscape:window-x="-8"
     inkscape:window-y="-8"
     inkscape:window-maximized="1" />
  <metadata
     id="metadata4939">
    <rdf:RDF>
      <cc:Work
         rdf:about="">
        <dc:format>image/svg+xml</dc:format>
        <dc:type
           rdf:resource="http://purl.org/dc/dcmitype/StillImage" />
        <dc:title />
      </cc:Work>
    </rdf:RDF>
  </metadata>
  <g
     inkscape:label="Capa 1"
     inkscape:groupmode="layer"
     id="layer1">
    <g
       style="fill:#e68103;fill-opacity:1;fill-rule:nonzero;stroke:#000000;stroke-opacity:1"
       id="g5816"
       transform="matrix(0.60979865,-0.00103139,0.00103139,0.60979865,-454.93572,-25.187783)">
      <path
         id="path4875"
         d="m 1891.4574,1606.7126 c -11.6002,21.7506 12.2874,18.1709 17.349,17.1858 -9.8905,4.2732 -10.3327,3.9729 -25.8233,2.4666 -15.3886,-1.5925 -21.2588,-2.5591 -35.5343,-4.4509 -14.3828,-1.9032 -40.8963,-6.388 -40.8963,-6.388 8.4475,-2.8096 19.43,-2.1934 25.0107,-4.154 5.57,-1.9611 24.9791,-2.1467 44.6926,-3.1361 7.4914,-0.4006 12.4825,-1.5733 16.116,-3.2867 -0.2577,0.7417 -0.5571,1.2649 -0.8595,1.842 z"
         inkscape:connector-curvature="0"
         style="fill:#e68103;fill-opacity:1;fill-rule:nonzero;stroke:#000000;stroke-opacity:1" />
      <path
         id="path4877"
         d="m 1831.591,1599.5195 c 4.2335,-4.1315 37.6469,-23.292 37.6469,-23.292 6.7951,0.6513 32.3063,8.3688 23.1455,28.7063 -3.6334,1.7133 -8.6245,2.8861 -16.1159,3.2867 -19.7189,0.9891 -39.1226,1.175 -44.6926,3.1361 -5.5807,1.9605 -16.5632,1.3444 -25.0107,4.154 12.2431,-7.414 23.3164,-14.1914 25.0402,-16.0389 z"
         inkscape:connector-curvature="0"
         style="fill:#e68103;fill-opacity:1;fill-rule:nonzero;stroke:#000000;stroke-opacity:1" />
      <path
         id="path4879"
         d="m 1786.893,1601.1162 12.4626,-11.2306 0.015,-0.2745 c 15.7005,-13.6898 34.2782,-28.1255 37.7391,-29.8431 4.3102,-2.0318 7.6696,-5.2133 16.4791,-16.0169 -0.01,0.097 -0.01,0.097 0.081,0.1882 28.2763,2.229 8.6051,31.633 15.5833,32.2945 0,0 -33.408,19.1608 -37.647,23.292 -1.7381,1.8143 -12.7779,8.572 -25.0321,15.9907 -2.4495,1.499 -4.9906,2.9928 -7.5373,4.4917 l -0.5845,-0.9401 c 5.7929,-9.882 -1.8454,-21.9757 -11.5265,-17.8744 z"
         inkscape:connector-curvature="0"
         style="fill:#e68103;fill-opacity:1;fill-rule:nonzero;stroke:#000000;stroke-opacity:1" />
      <path
         id="path4881"
         d="m 1785.5357,1578.1418 c 4.3655,0.061 7.2824,1.5913 11.2371,4.3568 3.3177,2.3734 2.8452,6.0786 2.5958,7.1555 -10.1397,8.8119 -19.1774,17.2319 -22.2525,21.7957 -1.5912,2.2761 -3.1107,3.4654 -4.5086,3.9324 -6.0022,-0.1531 -9.7868,-8.7416 -9.7817,-8.8332 l 3.4364,-11.0997 c 6.7922,-10.366 16.0502,-17.5153 19.2295,-17.391 z"
         inkscape:connector-curvature="0"
         style="fill:#e68103;fill-opacity:1;fill-rule:nonzero;stroke:#000000;stroke-opacity:1" />
      <path
         id="path4883"
         d="m 1822.2035,1526.1937 c -16.0267,17.7705 -12.0874,15.8043 -29.3983,24.122 l -0.086,-0.097 c 0.01,-0.091 0.01,-0.091 0.1018,-0.1779 -0.3758,-1.3874 -4.5783,-2.7195 -11.8368,-3.3913 -2.9724,1.1941 -4.6655,2.0118 -6.3426,2.7386 l -0.666,-1.2201 c 4.3105,-2.0372 8.6863,-5.4316 10.9688,-8.7653 4.2697,-6.3167 9.41,-21.6035 10.5083,-28.1845 l 17.8296,-14.483 c 4.1982,-3.4044 11.644,-6.2648 13.0673,-7.1841 l 18.8361,-12.7848 c 5.1939,-3.4404 6.8294,4.7576 -3.961,13.7112 -10.7903,8.9535 -14.5034,33.2636 -18.9643,35.7676 z"
         inkscape:connector-curvature="0"
         style="fill:#e68103;fill-opacity:1;fill-rule:nonzero;stroke:#000000;stroke-opacity:1" />
      <path
         id="path4885"
         d="m 1796.7405,1582.4968 c -3.9544,-2.7709 -6.8716,-4.2955 -11.2371,-4.3568 -3.1866,-0.092 -12.4113,7.0426 -19.2738,17.3129 l -3.4364,11.0997 c -0.092,-1.7333 0.3054,-3.8064 0.7166,-4.8797 0.5343,-1.2445 1.1493,-2.4845 1.6728,-3.7297 2.6942,-5.8596 1.7094,-12.5629 4.9983,-19.2047 1.7435,-3.4503 10.5377,-18.9857 12.2148,-21.3489 0.8486,-0.5896 6.074,-2.6673 10.3282,-7.1649 l 0.086,0.097 c 17.311,-8.3178 13.3717,-6.3516 29.3983,-24.122 24.2988,-4.5558 23.7793,6.3403 31.3454,17.6037 -8.8092,10.7983 -12.1632,13.9801 -16.4791,16.0169 -3.4609,1.7177 -22.0386,16.1533 -37.7391,29.8431 0.228,-1.1753 0.7055,-4.8749 -2.6191,-7.2216 z"
         inkscape:connector-curvature="0"
         style="fill:#e68103;fill-opacity:1;fill-rule:nonzero;stroke:#000000;stroke-opacity:1" />
      <path
         id="path4887"
         d="m 1786.893,1601.1162 c 9.7025,-4.1001 17.3095,7.9756 11.5599,17.9519 l 0.5845,0.9401 c -13.9411,8.4149 -27.2319,16.4073 -28.0149,17.3679 -1.6674,2.0937 -9.5691,-6.364 -10.6514,-9.8865 -1.0878,-3.4256 -5.0453,-15.6692 2.4571,-20.9836 -0.01,0.091 3.7795,8.68 9.7817,8.8332 1.3979,-0.4671 2.9174,-1.6563 4.5086,-3.9325 3.0698,-4.564 12.1071,-12.9787 22.2525,-21.7956 l -0.015,0.2745 -12.4606,11.2901 z"
         inkscape:connector-curvature="0"
         style="fill:#e68103;fill-opacity:1;fill-rule:nonzero;stroke:#000000;stroke-opacity:1" />
      <path
         id="path4889"
         d="m 1762.0585,1514.3405 c -8.8737,-0.9515 -9.113,1.6759 -9.113,1.6759 0.4226,-5.8952 0.9062,-11.2416 1.0131,-14.881 0.4693,-11.5416 -2.5607,-6.2409 12.0572,-16.8051 14.5206,-10.5642 15.9451,-17.9533 33.0028,-34.7532 2.6021,-2.5813 47.8799,-4.5991 50.4877,-7.1855 l 0.01,-0.091 c 1.5397,0.086 3.0951,-0.01 4.7414,-0.1876 7.5065,-0.6698 25.8949,-5.3789 29.8733,3.2205 2.845,6.084 4.9997,8.2031 6.2893,16.0198 1.2951,7.7198 4.7408,8.005 9.3345,8.8135 4.5994,0.8035 23.5102,1.319 27.6351,20.3983 4.1297,18.9932 3.7539,14.2358 11.5699,17.677 7.9125,3.452 11.4403,2.37 14.4627,8.3722 3.0443,5.9979 1.3825,8.0865 0.9748,11.9844 -0.9309,10.144 -8.4023,13.3648 0.7097,18.2505 5.3054,2.7548 13.9798,12.0714 10.106,17.7784 -3.7713,5.6156 -8.5199,20.4653 -8.5199,20.4653 0,0 -2.4666,11.4296 -22.2729,23.7009 -19.8015,12.1852 -20.5542,14.1465 -25.6161,15.1371 -5.0616,0.9851 -28.9492,4.5648 -17.349,-17.1858 0.3102,-0.6198 0.6206,-1.1479 0.9147,-1.7686 9.1605,-20.3322 -16.3504,-28.055 -23.1456,-28.7063 -6.9781,-0.6615 12.6931,-30.0655 -15.5832,-32.2946 -0.087,-0.091 -0.087,-0.091 -0.081,-0.1881 -7.5718,-11.2583 -7.0469,-22.1542 -31.3453,-17.6038 4.427,-2.4789 8.2415,-26.7671 19.0319,-35.7207 10.7903,-8.9535 9.1549,-17.1515 3.9609,-13.7111 l -18.836,12.7848 c -1.4236,0.9246 -8.8691,3.7796 -13.0673,7.184 l -17.8296,14.4831 c -1.1037,6.5807 -6.244,21.8674 -10.5084,28.1844 -2.2878,3.3334 -6.6583,6.7282 -10.9688,8.7654 -3.5524,1.7125 -6.9676,2.52 -8.9091,1.4119 2.9069,-1.565 5.367,-3.2524 6.5112,-4.0091 3.2171,-2.1849 3.3298,-12.472 2.2075,-16.7258 -1.3996,-5.8571 -4.9515,-13.7791 -11.7675,-14.5396 z"
         inkscape:connector-curvature="0"
         style="fill:#e68103;fill-opacity:1;fill-rule:nonzero;stroke:#000000;stroke-opacity:1" />
      <path
         id="path4891"
         d="m 1751.9926,1549.3653 c -1.041,-5.702 0.079,-20.7552 0.9646,-33.3644 0,0 0.2392,-2.6275 9.1129,-1.676 6.79,0.7428 10.3462,8.6867 11.7481,14.5007 1.1223,4.2538 1.0096,14.5409 -2.2075,16.7258 -1.1438,0.7513 -3.6039,2.4387 -6.5111,4.0092 -5.4572,2.9341 -12.1253,5.3143 -13.1154,-0.1418 z"
         inkscape:connector-curvature="0"
         style="fill:#e68103;fill-opacity:1;fill-rule:nonzero;stroke:#000000;stroke-opacity:1" />
      <path
         id="path4895"
         d="m 1276.7482,3049.0551 c 10.7256,21.3668 32.4205,30.782 49.0997,36.9023 16.7913,6.0455 49.202,36.908 85.916,-8.8378 36.7141,-45.7457 38.7274,-52.4644 42.7534,-62.5212 3.6043,-9.0867 16.6944,-36.1218 20.1125,-61.4314 8.2621,15.126 21.1025,31.2379 25.5687,47.6037 6.1511,23.2973 7.9684,47.8907 7.1569,71.9802 -1.0714,30.2639 -7.6451,60.03 -12.8737,89.7907 -9.7237,56.4571 -19.3613,113.0162 -31.8747,168.9495 -8.9846,40.108 -27.7833,78.1208 -32.5346,118.9145 -3.6836,31.5808 4.3632,63.539 7.5917,95.2268 2.5692,24.1874 7.1398,48.0279 9.7949,72.1282 4.777,42.9755 15.0284,85.9826 12.604,129.1967 -1.7262,30.7672 -9.7751,62.2814 -24.8523,89.1186 -17.3091,30.811 -39.699,61.6017 -70.0425,79.757 -16.1978,9.6547 -39.2497,3.3443 -56.6809,-4.098 -9.5238,-3.9961 -11.9773,-17.0572 -15.7113,-26.7393 -10.9089,-28.1115 -25.7244,-55.994 -27.9575,-86.076 -2.9531,-39.7732 9.2842,-79.3314 12.6936,-119.1149 4.9264,-56.9099 7.8558,-113.9372 12.2277,-170.8781 2.1332,-28.1089 4.0568,-56.1378 7.2613,-84.0894 2.8447,-24.618 12.9513,-48.8179 11.0581,-73.5991 -2.1618,-28.0799 -14.5246,-54.534 -23.0231,-81.4248 -7.1125,-22.6222 -15.5262,-44.7666 -23.8323,-66.905 -6.031,-15.9081 -16.3255,-30.4244 -19.3938,-47.16 -3.5347,-19.7806 -2.8255,-40.5059 0.017,-60.3716 3.7693,-26.5643 15.3911,-60.0599 21.9559,-86.1056 4.3154,17.4158 8.7733,31.3293 13.0488,39.8319 z"
         inkscape:connector-curvature="0"
         style="fill:#e68103;fill-opacity:1;fill-rule:nonzero;stroke:#000000;stroke-opacity:1" />
      <path
         id="path4897"
         d="m 1044.6456,1066.8369 c 1.6239,19.668 3.1715,42.4263 4.2764,66.5314 -4.2299,-31.744 -7.133,-64.4181 -7.6525,-97.3203 0.688,10.8397 1.8937,21.1144 3.4049,30.7581 z"
         inkscape:connector-curvature="0"
         style="fill:#e68103;fill-opacity:1;fill-rule:nonzero;stroke:#000000;stroke-opacity:1" />
      <path
         id="path4899"
         d="m 839.52196,2194.2472 c 9.94464,9.3932 7.52932,20.0048 6.09115,21.285 -1.4439,1.3826 -4.51353,2.4795 -8.74629,-1.4898 -0.43198,-0.3861 -1.04182,-0.9711 -1.82424,-1.5605 3.87344,-7.338 4.36644,-6.4031 5.14486,-12.192 0.27456,-1.6209 -0.0605,-3.7351 -0.75132,-6.0529 l 0.0538,0 z"
         inkscape:connector-curvature="0"
         style="fill:#e68103;fill-opacity:1;fill-rule:nonzero;stroke:#000000;stroke-opacity:1" />
      <path
         id="path4901"
         d="m 840.41297,2178.3656 c 3.83212,1.4841 5.13799,0.9256 7.66937,-3.6687 2.53137,-4.5942 0.29139,-13.2798 -1.40569,-17.1067 0.82802,-0.2236 7.56072,12.8994 8.0936,19.6691 0.0302,1.098 -0.0154,1.911 -0.23922,2.6275 -1.74654,5.1405 -7.21507,1.5394 -14.06271,-1.5451 z"
         inkscape:connector-curvature="0"
         style="fill:#e68103;fill-opacity:1;fill-rule:nonzero;stroke:#000000;stroke-opacity:1" />
      <path
         id="path4903"
         d="m 810.5881,2274.874 c 0.68058,7.41 -4.90504,7.9175 -8.50846,5.5335 -1.49374,-1.0019 -2.79483,-2.0686 -4.10608,-3.1467 2.20059,-1.8747 4.28458,-3.3077 5.01196,-6.5505 0.71736,-2.9678 1.0835,-4.6808 1.03758,-7.1353 1.02537,0.9757 5.99782,3.7929 6.54704,11.3304 z"
         inkscape:connector-curvature="0"
         style="fill:#e68103;fill-opacity:1;fill-rule:nonzero;stroke:#000000;stroke-opacity:1" />
      <path
         id="path4905"
         d="m 839.46812,2194.2442 c 0.69085,2.3178 1.02558,4.4374 0.75132,6.0529 -0.77812,5.7836 -1.27112,4.8486 -5.14486,12.192 -7.14527,-5.769 -27.73107,-20.3226 -31.07509,-22.3248 0.51922,-4.3453 0.58077,-8.6191 0.58077,-8.6191 0.5241,-4.5286 1.83624,-11.6485 2.98075,-19.0533 0.87907,0.503 17.93334,13.0277 22.77165,16.1183 3.60292,2.2003 7.61575,9.6081 9.2216,15.6388 z"
         inkscape:connector-curvature="0"
         style="fill:#e68103;fill-opacity:1;fill-rule:nonzero;stroke:#000000;stroke-opacity:1" />
      <path
         id="path4907"
         d="m 848.07187,2174.6909 c -2.53138,4.5943 -3.84263,5.1526 -7.66936,3.6687 -3.83213,-1.4841 -12.20111,-8.1588 -13.93474,-9.698 -1.73242,-1.5608 -5.16276,-5.3932 -7.42951,-7.2485 -2.26105,-1.8604 -0.71137,1.321 -10.31047,-7.6856 0.24405,-2.7136 0.48327,-5.341 0.621,-7.7959 0.31562,-8.8986 1.05955,-18.8856 1.16731,-27.2558 l 0.0915,0.01 c 0,0 8.04399,10.8311 9.70512,13.6624 1.66144,2.8259 5.99594,9.9871 13.43117,12.2243 7.34317,2.1455 11.23028,9.1953 12.92766,13.0169 1.72666,3.8772 3.99507,12.5373 1.41434,17.145 z"
         inkscape:connector-curvature="0"
         style="fill:#e68103;fill-opacity:1;fill-rule:nonzero;stroke:#000000;stroke-opacity:1" />
      <path
         id="path4909"
         d="m 807.55084,2162.4806 c -1.1445,7.4047 -2.45664,14.5246 -2.98074,19.0532 0,0 -0.0562,4.2741 -0.58077,8.6191 -0.38148,3.5267 -1.03728,7.1299 -2.36398,8.06 -2.85101,2.2055 -7.37935,0.04 -10.36206,-3.5895 -3.07424,-3.6342 -3.98382,-5.2298 -4.51699,-7.0851 -0.625,-1.855 -1.83876,-12.7566 -0.91293,-16.2636 1.01644,-3.4857 1.26622,-7.9379 7.39558,-10.0513 6.06089,-2.1442 11.8892,-0.143 14.29619,1.2341 z"
         inkscape:connector-curvature="0"
         style="fill:#e68103;fill-opacity:1;fill-rule:nonzero;stroke:#000000;stroke-opacity:1" />
      <path
         id="path4911"
         d="m 769.60972,2086.9587 c 2.17409,9.9563 4.15801,32.9281 3.67415,44.8253 l -0.0915,-0.01 c -8.84146,-14.5212 -15.03016,-29.1583 -17.20879,-43.9429 0.57455,-2.155 9.34161,-7.4849 12.22936,-11.7892 l 0.38607,-0.4319 c 0.0487,3.9451 0.15726,7.7856 0.98381,11.3423 z"
         inkscape:connector-curvature="0"
         style="fill:#e68103;fill-opacity:1;fill-rule:nonzero;stroke:#000000;stroke-opacity:1" />
      <path
         id="path4913"
         d="m 773.6831,2158.7443 c -0.9669,9.1482 11.96016,25.4486 13.04795,28.777 l -25.87663,-19.3005 c 0,0 -28.54203,-38.2116 -32.23588,-46.9733 l -0.0915,-0.01 c 0.0422,-13.7474 0.74474,-26.2696 1.59385,-28.4092 2.36314,-1.5956 5.51952,-2.6984 12.94932,-2.0007 4.89418,0.4581 9.2498,-0.9392 12.91428,-3.0127 2.17862,14.7847 8.36733,29.4217 17.20879,43.9429 l 0.0915,0.01 c -0.1477,2.6325 -0.35671,4.7216 -0.70739,6.0629 -2.04397,7.5541 2.2009,11.7886 1.14908,20.9105 z"
         inkscape:connector-curvature="0"
         style="fill:#e68103;fill-opacity:1;fill-rule:nonzero;stroke:#000000;stroke-opacity:1" />
      <path
         id="path4915"
         d="m 804.04106,2263.5437 c 0.0459,2.4544 -0.3256,4.1671 -1.03757,7.1352 -0.72708,3.2374 -2.81138,4.6758 -5.01197,6.5505 -1.73217,-1.4689 -3.38418,-2.9225 -5.03052,-4.3812 -2.8712,-2.4401 -25.84129,-18.294 -29.61149,-20.8818 -3.67929,-2.5719 -9.70119,-8.8233 -12.17032,-13.6171 -2.45412,-4.8685 -32.94267,-45.8301 -36.63223,-48.2189 -3.78133,-2.4858 -6.76833,-10.8514 -8.36387,-14.9481 -1.4935,-4.1828 -9.04706,-35.1142 -15.48065,-40.5733 0.51378,-2.612 1.01734,-5.1382 1.52629,-7.6641 0.88445,-4.4058 0.31019,-7.1653 -0.0753,-13.2895 -0.2127,-2.6582 0.85539,-8.7009 4.03743,-15.1704 l 0.0915,0.01 c 8.55323,1.7544 18.54492,2.2232 26.27524,-0.7995 3.8065,-1.4282 5.28569,-3.3434 7.55786,-4.8577 -0.84911,2.1396 -1.55165,14.6618 -1.59386,28.4092 0.0453,4.1016 0.17164,8.2995 0.30883,12.3035 0.57736,15.6994 2.90313,29.4014 4.4887,32.0394 1.48836,2.638 3.12444,9.1888 6.94086,12.5892 3.82095,3.3197 15.29474,19.5332 19.69025,27.2433 4.38982,7.7152 10.11658,17.6873 12.26015,23.2783 5.54968,1.7695 14.57483,9.6475 15.37289,10.0542 0.88446,0.5032 6.92146,4.8491 7.66365,6.2517 0.83286,1.3266 5.07095,7.0298 5.64006,8.2444 0.65526,1.2195 2.79399,6.8966 3.09877,9.6464 0.0297,0.4337 0.12828,0.6012 0.11922,0.7627 z"
         inkscape:connector-curvature="0"
         style="fill:#e68103;fill-opacity:1;fill-rule:nonzero;stroke:#000000;stroke-opacity:1" />
      <path
         id="path4917"
         d="m 763.7282,2045.4766 c 0.37092,1.5708 3.77934,13.7836 4.41945,18.6422 0.43169,3.6642 0.39007,7.5826 0.44565,11.5011 l -0.38607,0.432 c -2.88236,4.3046 -11.65481,9.6342 -12.22935,11.7891 -3.66986,2.0732 -8.02549,3.4706 -12.91428,3.0127 -7.4301,-0.6923 -10.58618,0.4052 -12.94932,2.0007 -2.26679,1.5146 -3.74597,3.4298 -7.55785,4.8577 -7.73063,3.0281 -17.72232,2.5593 -26.27525,0.7995 2.7703,-5.5799 7.28927,-11.429 14.08983,-15.7837 14.82574,-9.4562 19.99053,-20.3672 20.24969,-21.7136 0.25945,-1.3518 6.97733,3.8532 20.60008,-14.8676 6.30791,-8.665 8.66133,-11.6275 9.43941,-12.4047 1.03337,2.7582 2.01841,6.3778 3.17296,11.7891 z"
         inkscape:connector-curvature="0"
         style="fill:#e68103;fill-opacity:1;fill-rule:nonzero;stroke:#000000;stroke-opacity:1" />
      <path
         sodipodi:nodetypes="cccccccccccccscccccccccccccccccccccccccccccccccccccccscsccccccccscccccccccccccccccsccccccccccccccccscccccccccscccccccccccccccccccccccccccccccccccccccccccccccccccccccccc"
         id="path4919"
         d="m 676.05917,2271.0529 c -1.22462,-0.8896 -6.53024,-3.7363 -9.21356,-2.9796 l -0.0915,-0.01 c -1.25429,-10.083 -6.09171,-21.3715 -5.41483,-26.8906 0.69204,-5.8856 -7.2285,-30.2759 -9.14371,-35.0278 -0.95006,-2.5106 -3.70866,-10.1343 -4.40464,-15.6333 0.31079,-5.5397 0.292,-13.2905 0.93233,-18.1583 1.15507,-9.2295 8.18404,-56.6407 8.49083,-71.8313 0.22041,-15.2874 3.28038,-21.1211 6.40196,-26.4167 16.26623,-27.046 25.6617,-56.4756 44.73298,-81.5388 69.21025,-90.9127 58.05268,-75.5099 69.86925,-167.7307 6.54595,-40.342 17.74803,-179.9437 24.73336,-242.7489 6.89381,-62.8102 38.73907,-151.6284 58.54938,-191.4044 19.70827,-39.6899 14.83803,-113.54 15.79066,-130.5198 0.95716,-17.0606 3.05572,-54.4658 2.75178,-109.1146 -0.39516,-54.6594 -2.43265,-102.7629 1.49271,-163.00701 3.63026,-56.62074 10.58736,-94.56881 23.70092,-149.74482 14.54773,-61.19814 71.41172,-100.98532 112.93471,-110.67732 5.9971,-1.39171 11.2574,-2.64655 15.8719,-3.8458 27.5361,-7.10138 33.864,-11.21261 53.0552,-18.87397 22.4444,-8.85059 35.3338,-16.23365 56.6196,-30.42556 16.366,-10.91978 35.8827,-21.20375 56.265,-40.37164 42.2889,-39.61119 36.3252,-106.9664 28.5728,-137.62811 80.1047,-34.29421 45.2858,-80.21799 100.6107,-102.12163 29.364,16.88608 58.604,46.12924 129.4812,65.2161 -19.3416,78.58894 -7.1049,134.91715 31.7223,179.53289 27.5423,31.86921 74.048,43.58364 108.8956,52.18677 16.4355,4.10841 35.3868,5.53887 53.6018,7.19266 20.4812,1.78634 39.7519,3.78018 52.9803,9.89587 24.9374,11.68709 82.9576,40.62176 87.1517,120.1693 4.1777,79.55202 6.5496,139.69582 -2.7227,246.53817 -9.1757,105.0225 -9.9817,172.9105 -7.7227,199.3541 6.8952,53.9277 10.8017,70.3539 11.1099,85.9409 0.3341,15.3185 -5.5132,35.0264 11.9816,57.4102 0.3461,0.4731 0.7625,1.0419 1.1947,1.5198 0.1674,0.193 0.2538,0.2897 0.3296,0.4775 6.7838,10.5768 9.0397,14.1651 9.0397,14.1651 0,0 15.2762,8.5042 33.3236,8.334 l -0.01,0.092 c -2.6077,2.5863 -47.8856,4.6041 -50.4877,7.1854 -17.0577,16.8 -18.4821,24.189 -33.0028,34.7533 -14.6179,10.5642 -11.5881,5.2688 -12.0571,16.805 -0.1067,3.634 -0.5959,8.9855 -1.0131,14.8811 -0.8857,12.6091 -2.0056,27.6624 -0.9646,33.3644 0.9754,5.4282 7.6639,3.0708 13.1073,0.1899 1.9414,1.108 5.3566,0.3005 8.909,-1.412 l 0.6661,1.2201 c -2.7193,1.3974 -5.4488,2.8806 -14.2364,7.0375 -22.5353,7.2955 -58.1701,-5.1808 -65.9002,-6.9754 -7.8267,-1.8054 -53.2891,-27.3029 -55.0241,-53.1716 -1.6945,-24.9537 0.1723,-37.146 -3.8606,-61.0428 -4.3698,-48.6933 -13.1898,-118.8497 -18.0732,-166.4755 -9.1572,36.7337 -26.9767,88.0003 -27.1766,145.1808 -0.1644,64.8242 35.0243,154.9459 41.9574,188.7534 6.9332,33.8074 10.1776,99.2873 11.5413,136.8759 1.2452,37.6792 5.2979,148.9145 2.3392,201.6522 -2.9588,52.7376 -6.972,124.2693 -9.2468,194.0786 -2.1991,69.9053 -10.6347,155.4788 -18.1774,202.2293 -7.4566,46.7553 -29.4174,99.0641 -36.5006,134.5424 -7.1809,35.3919 -31.1443,128.0167 -35.9243,153.3417 -4.8924,25.3078 -48.2896,159.4688 -56.0511,206.8443 -7.7503,47.3707 -13.3964,86.305 -14.9244,113.5406 -0.1372,2.4441 -0.3664,4.8939 -0.7782,7.4198 -3.4181,25.3096 -16.5082,52.3447 -20.1125,61.4314 -4.026,10.0568 -6.0339,16.7758 -42.7534,62.5212 -36.7194,45.7455 -69.1304,14.8884 -85.916,8.8378 -16.6737,-6.12 -38.3738,-15.5408 -49.0997,-36.9022 -4.2641,-8.5129 -8.7597,-22.4285 -12.9702,-39.7898 -3.2062,-12.8333 -6.2032,-27.5667 -8.9652,-43.1186 -4.4639,-25.9353 -10.0319,-50.0965 -9.9281,-64.9421 0.026,-5.3667 0.1842,-11.3686 0.3524,-17.64 1.3564,-35.535 5.0312,-83.2262 5.6046,-119.437 0.6654,-42.6647 6.8444,-76.4656 14.493,-120.3857 7.5676,-44.0164 7.8005,-77.2382 10.8115,-101.8361 2.9302,-24.6025 1.4236,-86.9821 0.9329,-107.4993 -0.5768,-20.522 -0.9791,-104.2204 -5.6859,-142.0938 -4.712,-37.7819 2.1345,-83.4805 5.9181,-105.486 3.6921,-22.0107 6.6101,-26.9505 21.9465,-56.8677 1.6372,-3.0944 3.6345,-6.3523 6.1912,-9.6652 -18.3966,-8.042 -44.2342,-11.7706 -72.5017,-7.8048 11.5641,27.6947 17.1766,55.7791 14.2723,73.4703 -3.9416,24.8211 -3.5536,55.2533 -14.3938,94.2635 -10.7533,39.096 -13.6996,245.8197 -15.0038,269.0661 -1.3033,23.2301 0.564,173.3239 -3.1781,194.6837 -3.57,19.8357 9.9794,102.9162 10.1425,138.8983 0.031,2.729 -0.1072,5.1839 -0.2289,7.3535 -2.3418,30.3816 -12.6885,110.9387 -20.4699,157.1304 -7.7811,46.089 -4.6821,101.2619 0.8177,137.9971 5.5911,36.6484 12.549,76.5599 13.5207,112.8574 l 1.4681,51.8033 -13.2679,113.0826 c 0,0 -17.4393,280.0384 -22.7178,312.5181 -5.2894,32.4791 10.995,65.272 10.995,65.272 0,0 8.2359,22.0426 26.4193,66.2292 18.2908,44.1009 0.071,91.3378 -10.0964,120.0869 -10.27,28.7487 -4.7542,144.6134 4.138,202.0285 8.8871,57.4094 -39.6888,61.5158 -72.7541,66.5788 -32.9738,5.0682 -87.4028,-8.3653 -117.3961,-27.2542 -29.99273,-18.8995 8.2216,-70.2101 8.2216,-70.2101 0,0 10.1283,-42.5874 11.9623,-75.2765 1.8282,-32.5869 29.4744,-155.2373 22.0064,-176.3349 -7.4689,-21.0815 -19.1483,-57.9852 -15.7857,-87.116 3.3628,-29.1362 -8.3345,-88.4369 -12.1216,-123.1642 -3.7922,-34.6357 -19.191,-128.648 -26.7708,-198.0975 0,0 -14.90545,-133.6084 -30.50073,-194.8559 -15.50889,-61.1508 -14.58046,-178.3875 -8.90899,-217.7741 5.66603,-39.2896 6.33441,-104.82 18.42519,-196.9228 l 0.37127,-0.1682 c -1.83421,-4.6556 -3.46001,-9.7531 -4.86713,-15.4756 -14.00487,-55.4229 -15.8496,-144.3111 -15.27935,-154.4754 0.57538,-10.2557 -10.86469,-137.4806 -17.77785,-170.1043 -6.9186,-32.5267 -15.40084,-71.1627 -21.31804,-107.0032 -5.91152,-35.8456 -32.8323,-119.2226 -62.38422,-257.9299 -2.80875,-13.2755 -5.01794,-29.0556 -6.37827,-47.0671 -3.63308,-48.8302 -0.91694,-113.5112 12.72724,-184.5944 21.14475,-110.729 54.72357,-204.4562 64.62804,-239.7816 4.31194,-15.0578 14.99793,-43.2323 28.07786,-75.1879 28.80411,-70.3245 68.84698,-159.1364 75.37898,-168.4261 9.5004,-13.4921 33.219,-59.7834 42.4665,-85.0359 17.1935,-46.7491 -21.306,-160.6407 -38.4486,-290.1837 -1.1049,-24.1052 -2.6526,-46.8635 -4.2764,-66.5315 -1.5539,-9.6515 -2.7064,-19.9124 -3.3707,-30.7885 0.5195,32.9022 3.4226,65.5762 7.6524,97.3203 2.175,47.2902 2.8598,99.9623 -0.195,146.3273 -5.2692,79.2866 -24.4514,137.1302 -24.7533,157.1439 -0.6658,42.6701 -38.79897,141.337 -47.34419,160.5209 -3.02462,6.8402 -15.73389,37.002 -31.22398,74.4714 -27.60426,66.7464 -64.17123,156.9414 -71.02994,180.1407 -16.45125,44.879 -17.94559,45.5242 -22.55183,59.4746 -4.52494,14.0413 -5.42168,34.9343 -3.82728,47.1372 1.68054,12.2076 2.3044,23.8052 2.3044,23.8052 0,0 0.98224,31.2 -6.59644,41.3382 -7.67051,10.1385 -10.26912,23.9207 -19.7644,37.3214 -9.58656,13.4873 -15.63664,35.2685 -14.03197,44.0155 0.62983,3.4053 0.81716,8.1521 0.60332,13.6 -0.10776,8.3702 -0.846,18.3522 -1.16731,27.2558 -0.13773,2.455 -0.37694,5.0824 -0.62099,7.796 -0.34584,2.8915 -0.78864,5.8747 -1.22092,8.7667 -2.38394,-1.4028 -8.18685,-3.3756 -14.32189,-1.2571 -6.12906,2.108 -6.37885,6.5602 -7.39559,10.0513 -0.92583,3.507 0.28793,14.4086 0.91293,16.2636 -1.08779,-3.3283 -14.01485,-19.6287 -13.04796,-28.777 1.05782,-9.1323 -3.16461,-13.3818 -1.1057,-20.9135 0.35068,-1.3412 0.55969,-3.4303 0.70739,-6.0629 0.48386,-11.8972 -1.50576,-34.8639 -3.67416,-44.8253 -0.8029,-3.5932 -0.94946,-7.4304 -1.00535,-11.3435 -0.0556,-3.9186 -0.014,-7.837 -0.44565,-11.5012 -0.64011,-4.8586 -4.04823,-17.0768 -4.41945,-18.6421 -1.14796,-5.4326 -2.13361,-9.0414 -3.06801,-11.7347 -0.7727,0.7775 -3.1315,3.7397 -9.43941,12.4047 -13.62275,18.7208 -20.34062,13.5158 -20.60008,14.8676 -0.25916,1.3464 -5.42425,12.2627 -20.24969,21.7136 -6.80056,4.3547 -11.31953,10.2038 -14.08983,15.7838 l -0.0915,-0.01 c -3.18204,6.4695 -4.25521,12.5065 -4.03743,15.1704 0.38549,6.1243 0.95974,8.8837 0.0753,13.2896 -0.50357,2.5262 -1.01221,5.0467 -1.5263,7.6641 -2.161,10.9877 -4.72855,22.6762 -9.08072,33.6381 -2.55156,6.4941 -5.54628,14.4377 -6.91375,19.3673 2.48488,4.4166 0.25433,0.3761 4.67924,9.006 4.34502,8.7064 7.1983,30.8142 4.27033,37.568 -2.92313,6.6677 3.63165,16.4162 4.25091,20.0099 0.52865,3.5724 1.69226,7.1858 2.62203,11.7906 1.01022,4.6148 0.28254,11.1356 -1.2574,15.8665 -1.08778,3.217 -6.78546,5.7219 -8.02089,6.5652 0.3923,-5.2597 0.58077,-8.619 -0.18136,-11.3026 -0.97047,-2.9168 -4.07377,-5.3591 -5.20681,-6.3408 z"
         inkscape:connector-curvature="0"
         style="fill:#e68103;fill-opacity:1;fill-rule:nonzero;stroke:#000000;stroke-opacity:1" />
      <path
         id="path4921"
         d="m 666.83067,2268.0509 c 2.68331,-0.7568 7.98356,2.0896 9.21356,2.9795 1.12826,0.9706 4.26864,3.4258 5.03077,6.1094 0.76213,2.6837 0.57366,6.043 0.18136,11.3027 -0.35586,1.53 -0.52838,3.0649 -1.42365,5.931 -2.31808,7.2416 -6.82026,3.1655 -6.82026,3.1655 0,0 -5.1716,-16.5944 -5.94286,-27.2011 -0.0507,-0.7319 -0.18279,-1.5548 -0.32476,-2.2972 z"
         inkscape:connector-curvature="0"
         style="fill:#e68103;fill-opacity:1;fill-rule:nonzero;stroke:#000000;stroke-opacity:1" />
      <path
         style="fill:#e68103;fill-opacity:1;fill-rule:nonzero;stroke:#000000;stroke-width:3.05675554;stroke-miterlimit:22.9260006;stroke-opacity:1"
         inkscape:connector-curvature="0"
         stroke-miterlimit="22.926"
         d="m 991.70228,2928.8328 c -12.08575,92.1084 -12.75923,157.6331 -18.42525,196.9227 -5.67176,39.392 -6.59986,156.6233 8.9091,217.7741 15.59515,61.2475 30.50067,194.856 30.50067,194.856 7.5798,69.4495 22.9786,163.4618 26.7709,198.0976 3.7869,34.7271 15.4842,94.0279 12.1214,123.164 -3.3626,29.131 8.3168,66.0346 15.7857,87.1161 7.4681,21.0976 -20.1781,143.748 -22.0064,176.3348 -1.8336,32.6838 -11.9622,75.2766 -11.9622,75.2766 0,0 -38.2143,51.3106 -8.2217,70.2102 29.9931,18.8942 84.4224,32.3223 117.3963,27.2541 33.0651,-5.0629 81.6412,-9.1693 72.754,-66.5789 -8.8923,-57.415 -14.4076,-173.285 -4.138,-202.0284 10.1672,-28.749 28.3872,-75.9859 10.0964,-120.0869 -18.1834,-44.1867 -26.4192,-66.2292 -26.4192,-66.2292 0,0 -16.2848,-32.7876 -10.9952,-65.272 5.2786,-32.4796 22.7179,-312.5181 22.7179,-312.5181 l 13.2678,-113.0826 -1.4681,-51.8033 c -0.9716,-36.2976 -7.9295,-76.2089 -13.5206,-112.8575 -5.4997,-36.7351 -8.5988,-91.9079 -0.8178,-137.997 7.7762,-46.192 18.128,-126.7434 20.4699,-157.1304 0.1218,-2.1696 0.2595,-4.6245 0.2297,-7.3535 -0.163,-35.9821 -13.7124,-119.0626 -10.1424,-138.8983 3.7475,-21.3594 1.8749,-171.4535 3.1782,-194.6837 1.3039,-23.241 4.2504,-229.9701 15.0041,-269.0661 10.8401,-39.0101 10.4522,-69.4423 14.3937,-94.2634 2.9044,-17.6913 -2.7081,-45.7757 -14.2723,-73.4703 -4.5677,-11.0898 -10.1416,-22.1496 -16.488,-32.34 -22.1236,-35.756 -34.3435,-63.1202 -68.5357,-114.2104 -34.1917,-51.0955 -43.8719,-63.6602 -70.506,-80.7242"
         id="path4975" />
    </g>
    <path
       id="path4937"
       d="m 532.47879,743.95935 c 0.11618,0.95139 0.17348,1.89629 0.2866,2.84423 3.02677,29.04042 8.47777,71.80927 11.19275,101.49789 2.48052,14.5679 1.35478,22.00466 2.41706,37.21984 1.08467,15.7729 28.83385,31.27433 33.60846,32.36721 4.71561,1.08639 26.46185,8.65783 40.19299,4.18559 5.35429,-2.54061 7.01403,-3.45136 8.6741,-4.30611 1.0218,-0.44165 2.05007,-0.94221 3.86491,-1.67658 4.42676,0.40549 6.99095,1.21018 7.22159,2.05584 -0.0586,0.0528 -0.0586,0.0528 -0.0617,0.10861 -2.5896,2.747 -5.77369,4.01607 -6.2908,4.3798 -1.02018,1.44278 -6.36691,10.92531 -7.42653,13.03112 -1.99886,4.05681 -1.39136,8.14346 -3.02811,11.71616 -0.31799,0.75983 -0.69168,1.51663 -1.01616,2.2761 -0.2495,0.65161 -0.48961,1.9162 -0.43196,2.97637 -0.003,0.0558 2.31358,5.2892 5.97393,5.37638 0.85191,-0.28623 1.77727,-1.01301 2.74531,-2.40266 1.86714,-2.78631 7.3695,-7.92688 13.54705,-13.31389 9.56003,-8.3642 20.87375,-17.18622 22.98246,-18.23718 2.62626,-1.24345 4.67146,-3.18696 10.0324,-9.78411 1.83706,-2.23145 4.04568,-4.99918 6.78268,-8.45933 6.20184,-7.76979 11.19957,-20.09993 15.76629,-23.29589"
       stroke-miterlimit="22.926"
       inkscape:connector-curvature="0"
       style="fill:#e68103;fill-opacity:1;fill-rule:nonzero;stroke:#000000;stroke-width:4.63882446;stroke-miterlimit:22.9260006;stroke-dasharray:none;stroke-opacity:1" />
    <path
       id="path4929"
       d="m 648.32049,838.44675 c 0.10278,0.11755 0.15509,0.17638 0.20148,0.29085 4.14765,6.44273 5.52696,8.62854 5.52696,8.62854 0,0 9.32425,5.17011 20.32933,5.0477 0.93902,0.0511 1.88735,-0.009 2.89112,-0.11931 4.57669,-0.41616 15.78511,-3.30674 18.21996,1.93308 1.74114,3.70708 3.05734,4.99708 3.85172,9.76237 0.7977,4.70619 2.8992,4.87651 5.70128,5.36483 2.80549,0.48524 14.33781,0.78008 16.87282,12.41035 2.53798,11.57774 2.30393,8.6771 7.07363,10.76748 4.82858,2.09687 6.97869,1.43343 8.82801,5.09041 1.86246,3.65441 0.8514,4.92975 0.60672,7.3071 -0.55716,6.18676 -5.10989,8.15849 0.45155,11.12835 3.23811,1.67446 8.53731,7.34672 6.181,10.83087 -2.29392,3.42827 -5.17428,12.48849 -5.17428,12.48849 0,0 -1.49233,6.97226 -13.55752,14.47574 -12.06245,7.45091 -12.51943,8.64774 -15.60514,9.25698 -3.08542,0.60597 -17.64838,2.81351 -10.59705,-10.46194 0.18852,-0.37831 0.37725,-0.70063 0.55593,-1.07948 5.56513,-12.40794 -9.99945,-17.09103 -14.14378,-17.48117 -4.25596,-0.39619 7.70925,-18.34699 -9.53587,-19.67711 -0.0527,-0.0556 -0.0527,-0.0556 -0.0495,-0.11466 -4.62892,-6.85747 -4.32012,-13.50228 -19.13261,-10.70242 -9.75467,10.85296 -7.35453,9.6499 -17.90214,14.73989"
       stroke-miterlimit="22.926"
       inkscape:connector-curvature="0"
       style="fill:#e68103;fill-opacity:1;fill-rule:nonzero;stroke:#000000;stroke-width:4.63882446;stroke-miterlimit:22.9260006;stroke-dasharray:none;stroke-opacity:1" />
    <path
       id="path4923"
       d="m 729.96747,924.71834 c -9.23597,7.49275 -16.86781,14.1277 -21.30702,19.21743 -2.78462,3.12497 -4.32378,5.87315 -7.97477,7.61405 -2.21392,1.04854 -5.25631,1.76882 -9.82419,2.02082 -12.0235,0.62349 -23.85566,0.75687 -27.25013,1.95852 -3.40119,1.20127 -10.09891,0.83687 -15.24722,2.55887 0,0 16.17222,2.71075 24.945,3.85322 8.70723,1.13892 12.28774,1.72229 21.67337,2.67748 9.44754,0.90586 9.71768,1.08521 15.74447,-1.53078"
       stroke-miterlimit="22.926"
       inkscape:connector-curvature="0"
       style="fill:#e68103;fill-opacity:1;fill-rule:nonzero;stroke:#000000;stroke-width:4.63882446;stroke-miterlimit:22.9260006;stroke-dasharray:none;stroke-opacity:1" />
    <path
       id="path4925"
       d="m 615.57254,897.4526 c 0,0 0.14294,-1.60246 5.55533,-1.03139 4.14129,0.44594 6.31797,5.28644 7.17891,8.83038 0.68877,2.59279 0.63062,8.86597 -1.3289,10.20166 -0.69676,0.45933 -2.19513,1.49081 -3.9663,2.45147 -3.31639,1.76241 -7.38935,3.20703 -7.99303,-0.10228 -0.63679,-3.42638 0.0276,-12.61044 0.54578,-20.32064 0.25137,-3.59539 0.54097,-6.8561 0.60295,-9.07546 0.27377,-7.03857 -1.56798,-3.80303 7.33511,-10.26014 8.84374,-6.45706 9.70475,-10.96434 20.08918,-21.22653 1.58413,-1.57674 29.19243,-2.8539 30.77987,-4.43375"
       stroke-miterlimit="22.926"
       inkscape:connector-curvature="0"
       style="fill:#e68103;fill-opacity:1;fill-rule:nonzero;stroke:#000000;stroke-width:4.63882446;stroke-miterlimit:22.9260006;stroke-dasharray:none;stroke-opacity:1" />
    <path
       id="path4927"
       d="m 641.51769,894.4846 10.85753,-8.85012 c 2.55658,-2.08034 7.09399,-3.83229 7.96102,-4.3943 l 11.47301,-7.81558 c 3.16375,-2.1033 4.16942,2.89411 -2.40119,8.36513 -6.57073,5.47099 -8.87175,20.28585 -11.56883,21.80204"
       stroke-miterlimit="22.926"
       inkscape:connector-curvature="0"
       style="fill:#e68103;fill-opacity:1;fill-rule:nonzero;stroke:#000000;stroke-width:4.63882446;stroke-miterlimit:22.9260006;stroke-dasharray:none;stroke-opacity:1" />
    <path
       id="path4931"
       d="m 586.76871,840.99225 c 9.08386,-9.77973 8.80511,-9.73891 15.57652,-11.75788 6.77158,-2.02225 15.1489,-3.83859 19.3453,-3.49831 3.91744,0.32509 20.50384,5.83432 25.89624,11.79155"
       stroke-miterlimit="22.926"
       inkscape:connector-curvature="0"
       style="fill:#e68103;fill-opacity:1;fill-rule:nonzero;stroke:#000000;stroke-width:4.63882446;stroke-miterlimit:22.9260006;stroke-dasharray:none;stroke-opacity:1" />
    <path
       id="path4933"
       d="m 622.95541,917.90825 0.0556,0.003 c 1.18505,0.67367 3.26682,0.17774 5.43123,-0.8702 2.62644,-1.24672 5.29141,-3.32117 6.67971,-5.3564 2.59723,-3.85632 5.71603,-13.18346 6.37891,-17.1977 0.59772,-3.96511 0.91611,-8.66656 3.75095,-16.95211"
       stroke-miterlimit="22.926"
       inkscape:connector-curvature="0"
       style="fill:#e68103;fill-opacity:1;fill-rule:nonzero;stroke:#000000;stroke-width:4.63882446;stroke-miterlimit:22.9260006;stroke-dasharray:none;stroke-opacity:1" />
    <path
       id="path4935"
       d="m 719.09883,902.36071 c -7.34858,5.48466 -10.75991,7.96305 -18.8484,15.85081 -8.09185,7.88758 -13.68884,15.8582 -13.68884,15.8582 0,0 -20.35236,11.71868 -22.93305,14.24226 -1.05796,1.10813 -7.78314,5.24038 -15.24807,9.77693 -1.49213,0.91659 -3.04006,1.83012 -4.59154,2.74676 -8.49261,5.14581 -16.58905,10.03328 -17.06556,10.61984 -1.0146,1.27844 -5.84179,-3.87091 -6.50546,-6.01778 -0.66677,-2.08778 -3.09268,-9.54984 1.47679,-12.79833 l 2.0841,-6.77213 c 4.17405,-6.26987 9.79192,-10.6303 11.73523,-10.57727 2.66216,0.0329 4.44243,0.96287 6.8569,2.64519 2.02559,1.44386 1.74131,3.7038 1.59024,4.36076 l -0.009,0.16744 -7.58805,6.86125 c 5.91232,-2.51026 10.56348,4.84567 7.06765,10.93509"
       stroke-miterlimit="22.926"
       inkscape:connector-curvature="0"
       style="fill:#e68103;fill-opacity:1;fill-rule:nonzero;stroke:#000000;stroke-width:4.63882446;stroke-miterlimit:22.9260006;stroke-dasharray:none;stroke-opacity:1" />
    <path
       id="path4939"
       d="m 460.57092,1171.685 c -23.82336,17.4735 -47.67878,34.3856 -60.75588,45.1137 -11.73671,9.6354 -43.38112,31.9555 -56.4997,49.6196 -1.55232,2.023 -2.77025,4.0115 -3.76533,5.9002 -9.32129,18.2593 -11.09565,21.2746 -13.32434,34.7005 -2.28445,13.4195 -6.41222,41.2936 -3.50008,64.3313 2.90928,23.0903 3.24096,74.1291 3.61389,86.6428 0.32035,12.5108 1.30341,50.5483 -0.45805,65.5538 -1.81403,15.0028 -1.91848,35.2618 -6.4878,62.1107 -4.61885,26.7903 -8.35184,47.4085 -8.71374,73.426 -0.31222,22.0819 -2.50398,51.1677 -3.2944,72.8383 -0.0964,3.8211 -0.18636,7.4813 -0.19665,10.7572 -0.0513,9.0528 3.37218,23.7806 6.12108,39.5914 1.70353,9.4809 3.54632,18.4622 5.51141,26.2844 2.58533,10.5858 5.34446,19.0638 7.95026,24.2504 6.56244,13.0183 19.8017,18.7374 29.97898,22.4522 10.24549,3.6692 30.04139,22.4558 52.38232,-5.4779 22.34104,-27.9335 23.56184,-32.0326 26.00649,-38.1694 2.18852,-5.5447 10.143,-22.0442 12.20123,-37.4814 0.25176,-1.5407 0.38579,-3.035 0.46689,-4.5255 0.90368,-16.6098 4.3065,-40.3577 8.98375,-69.2523 4.68413,-28.8975 31.01256,-110.7533 33.96663,-126.1912 2.88847,-15.4447 17.40594,-71.9552 21.74844,-93.5445 4.28265,-21.642 17.62368,-53.5623 22.11918,-82.0815 4.54789,-28.5131 9.60711,-80.7074 10.876,-123.3379 1.315,-42.5687 3.68863,-86.196 5.43849,-118.3584 1.74986,-32.1624 -0.8362,-99.9894 -1.63446,-122.9648 -0.87026,-22.9201 -2.91627,-62.84628 -7.17902,-83.45489 -4.26599,-20.60878 -25.81683,-75.52858 -25.78027,-115.05827 0.0628,-34.86547 10.87645,-66.14944 16.42257,-88.55907 0.72336,-3.06588 1.37575,-5.91829 1.91419,-8.61225 4.33695,-22.64006 16.12159,-80.9095 16.12159,-80.9095"
       stroke-miterlimit="22.926"
       inkscape:connector-curvature="0"
       style="fill:#e68103;fill-opacity:1;fill-rule:nonzero;stroke:#000000;stroke-width:1.86400807;stroke-miterlimit:22.9260006;stroke-opacity:1" />
    <path
       id="path4941"
       d="m 572.33036,533.20639 c -15.30665,71.01576 -17.37578,47.9152 -15.9842,83.46899 4.46217,111.90291 -136.73173,86.23167 -130.85665,32.41546"
       stroke-miterlimit="22.926"
       inkscape:connector-curvature="0"
       style="fill:#e68103;fill-opacity:1;fill-rule:nonzero;stroke:#000000;stroke-width:4.63882446;stroke-miterlimit:22.9260006;stroke-dasharray:none;stroke-opacity:1" />
    <path
       id="path4943"
       d="m 358.1498,429.25251 c -12.49799,-13.17009 -5.38246,-15.33827 -46.46306,-12.41002 -39.90648,2.77151 -132.4836,-0.98768 -135.32648,-1.75483"
       stroke-miterlimit="22.926"
       inkscape:connector-curvature="0"
       style="fill:#e68103;fill-opacity:1;fill-rule:nonzero;stroke:#000000;stroke-width:4.63882446;stroke-miterlimit:22.9260006;stroke-dasharray:none;stroke-opacity:1" />
    <path
       id="path4945"
       d="m 393.47014,431.3059 c 5.62603,-5.35776 -0.42617,-18.67767 35.28522,-16.7907 35.6587,1.8841 101.79453,-11.56187 124.94239,-15.46909"
       stroke-miterlimit="22.926"
       inkscape:connector-curvature="0"
       style="fill:#e68103;fill-opacity:1;fill-rule:nonzero;stroke:#000000;stroke-width:4.63882446;stroke-miterlimit:22.9260006;stroke-dasharray:none;stroke-opacity:1" />
    <path
       id="path4947"
       d="m 435.01732,253.54161 c -11.71342,47.94337 -4.19332,82.27963 19.52938,109.44619 16.82813,19.4054 45.19934,26.50088 66.45826,31.71111 10.02659,2.48835 21.58453,3.3411 32.69369,4.33079 12.49127,1.06818 24.24459,2.26415 32.31756,5.97985 15.21886,7.10105 50.62926,24.68553 53.26898,73.18919 2.62959,48.5064 4.13797,85.17956 -1.4061,150.34147 -5.48705,64.052 -5.90846,105.45089 -4.5037,121.5738 4.26036,32.87794 6.65946,42.89057 6.86346,52.3952 0.21954,9.34083 -3.32588,21.36472 7.36561,34.99632 0.2115,0.28811 0.46594,0.63454 0.73001,0.92551"
       stroke-miterlimit="22.926"
       inkscape:connector-curvature="0"
       style="fill:none;fill-opacity:1;fill-rule:evenodd;stroke:#000000;stroke-width:4.63882446;stroke-miterlimit:22.9260006;stroke-dasharray:none;stroke-opacity:1" />
    <path
       id="path4949"
       d="m 433.32839,251.90204 c 1.49516,-0.9724 1.8137,0.37529 1.69143,1.59361"
       stroke-miterlimit="22.926"
       inkscape:connector-curvature="0"
       style="fill:#e68103;fill-opacity:1;fill-rule:nonzero;stroke:#000000;stroke-width:1.86400807;stroke-miterlimit:22.9260006;stroke-opacity:1" />
    <path
       id="path4951"
       d="m -28.219312,1253.7582 c -1.933724,3.9484 -2.581919,7.6309 -2.446365,9.2551 0.241428,3.7341 0.594384,5.4163 0.05966,8.1038 -0.304511,1.541 -0.612085,3.0785 -0.922875,4.6752 -1.306459,6.7025 -2.860115,13.8328 -5.502755,20.5218 -1.549144,3.9628 -3.367189,8.8098 -4.195962,11.8173 1.519783,2.6907 0.155478,0.2291 2.862625,5.487 2.658611,5.3047 4.421303,18.7831 2.642851,22.9045 -1.775593,4.069 2.231474,10.0068 2.612852,12.1976 0.325983,2.1779 1.039367,4.3802 1.611023,7.1873 0.620807,2.813 0.183753,6.7901 -0.750398,9.6766 -0.659981,1.9629 -4.13185,3.4962 -4.884279,4.0118 -0.21547,0.9333 -0.319132,1.8695 -0.862114,3.6181 -1.406108,4.4183 -4.155631,1.9374 -4.155631,1.9374 0,0 -3.170811,-10.1139 -3.65204,-16.5811 -0.03147,-0.4463 -0.113115,-0.9479 -0.200452,-1.4005 -0.775283,-6.1473 -3.736751,-13.026 -3.32968,-16.3923 0.415976,-3.5897 -4.439166,-18.4547 -5.61191,-21.3505 -0.581906,-1.5299 -2.271952,-6.176 -2.702083,-9.5285 0.183809,-3.3785 0.164309,-8.1049 0.55023,-11.0739 0.694886,-5.6293 4.932208,-34.5478 5.103696,-43.8114 0.118594,-9.3224 1.978488,-12.883 3.876629,-16.1155 9.891226,-16.5093 15.590256,-34.4652 27.193994,-49.7684 42.110541,-55.5097 35.322571,-46.1056 42.433213,-102.3539 3.950029,-24.6073 10.637055,-109.7478 14.83192,-148.0535 4.139049,-38.30873 23.466642,-92.50274 35.505939,-116.77853 11.977204,-24.22319 8.931116,-69.25186 9.494515,-79.60712 0.566078,-10.40452 1.807199,-33.2163 1.565497,-66.54078 -0.297339,-33.3308 -1.589384,-62.66211 0.74209,-99.40296 2.155377,-34.531 6.358637,-57.67885 14.298344,-91.33863 8.808098,-37.33356 43.442618,-61.65437 68.753328,-67.60735 3.65562,-0.85486 6.86196,-1.62548 9.67467,-2.36154 16.78415,-4.35882 20.63861,-6.87237 32.33364,-11.56404 13.67737,-5.42024 21.52966,-9.93571 34.49511,-18.61187 9.96875,-6.67575 21.85928,-12.96703 34.26864,-24.6766 25.74683,-24.19846 22.04073,-65.26543 17.28182,-83.95491"
       stroke-miterlimit="22.926"
       inkscape:connector-curvature="0"
       style="fill:none;fill-opacity:1;fill-rule:nonzero;stroke:#000000;stroke-width:4.63882446;stroke-miterlimit:22.9260006;stroke-dasharray:none;stroke-opacity:1" />
    <path
       id="path4953"
       d="m 11.494764,1214.395 c -0.519968,0.4163 0.09774,-0.7718 -0.486743,-0.1944 -0.470315,0.4749 -1.9056369,2.2837 -5.7432402,7.5741 -8.2878329,11.43 -12.3897851,8.2629 -12.546609,9.0875 -0.1561823,0.8213 -3.2950228,7.4834 -12.3258748,13.2618 -4.142473,2.6625 -6.892026,6.234 -8.575658,9.6395"
       stroke-miterlimit="22.926"
       inkscape:connector-curvature="0"
       style="fill:#e68103;fill-opacity:1;fill-rule:nonzero;stroke:#000000;stroke-width:4.63882446;stroke-miterlimit:22.9260006;stroke-dasharray:none;stroke-opacity:1" />
    <path
       id="path4955"
       d="m -37.156867,1369.6113 c 0.233757,-3.2077 0.345222,-5.2565 -0.122222,-6.8922 -0.464203,-1.6355 -2.381728,-3.1294 -3.074074,-3.7203 -0.747662,-0.5412 -3.985979,-2.2716 -5.621547,-1.8074"
       stroke-miterlimit="22.926"
       inkscape:connector-curvature="0"
       style="fill:#e68103;fill-opacity:1;fill-rule:nonzero;stroke:#000000;stroke-width:1.86400807;stroke-miterlimit:22.9260006;stroke-opacity:1" />
    <path
       id="path4957"
       d="m -31.526243,1275.8056 c 3.928996,3.319 8.563566,22.1762 9.481875,24.7255 0.977341,2.4933 2.807297,7.5948 5.115708,9.1067 2.25239,1.4529 20.8831758,26.3996 22.3879535,29.3661 1.5075724,2.9172 5.1893985,6.7233 7.4355355,8.2911 2.301953,1.5709 16.325268,11.2182 18.07859,12.7032 1.005454,0.8878 2.014329,1.7725 3.072062,2.6664 0.800583,0.6594 1.59528,1.3052 2.507172,1.9146 2.199995,1.4468 5.602172,1.1347 5.182703,-3.383 -0.363565,-4.5739 -3.378621,-6.2922 -4.011794,-6.8799"
       stroke-miterlimit="22.926"
       inkscape:connector-curvature="0"
       style="fill:#e68103;fill-opacity:1;fill-rule:nonzero;stroke:#000000;stroke-width:4.63882446;stroke-miterlimit:22.9260006;stroke-dasharray:none;stroke-opacity:1" />
    <path
       id="path4959"
       d="m 34.020025,1362.6501 c 1.339885,-1.1455 2.609245,-2.0215 3.049502,-3.9997 0.434389,-1.8105 0.655816,-2.8555 0.625399,-4.3521 0.0061,-0.1116 -0.04362,-0.223 -0.03451,-0.3905 -0.18869,-1.6765 -1.498807,-5.1362 -1.899608,-5.8791 -0.351588,-0.7403 -2.938713,-4.2102 -3.447868,-5.0216 -0.453964,-0.8546 -4.139789,-3.4984 -4.679694,-3.8044 -0.483769,-0.247 -5.998578,-5.0452 -9.384788,-6.1152 -1.312859,-3.4072 -4.815258,-9.4822 -7.500136,-14.1824 -2.6884158,-4.6971 -9.7017727,-14.5722 -12.0352477,-16.5926 -2.3306789,-2.0697 -3.3351312,-6.0627 -4.2454714,-7.6697 -0.9695762,-1.6071 -2.4021342,-9.9569 -2.7703103,-19.533 -0.087717,-2.4415 -0.1689404,-5.0045 -0.2009847,-7.5023 0.011628,-8.3832 0.4271207,-16.02 0.9426304,-17.3256 l 0.00304,-0.056"
       stroke-miterlimit="22.926"
       inkscape:connector-curvature="0"
       style="fill:#e68103;fill-opacity:1;fill-rule:nonzero;stroke:#000000;stroke-width:4.63882446;stroke-miterlimit:22.9260006;stroke-dasharray:none;stroke-opacity:1" />
    <path
       id="path4961"
       d="m -8.4250594,1267.6117 c 2.2615098,5.3391 19.7058524,28.611 19.7058524,28.611 l 15.799405,11.7427 c -0.666742,-2.0285 -8.56648,-11.9551 -7.986377,-17.5347 0.635677,-5.57 -1.943506,-8.157 -0.695734,-12.7519 0.212461,-0.8182 0.337764,-2.0924 0.425113,-3.6978 0.283248,-7.2554 -0.95416,-21.2585 -2.286712,-27.3307 -0.493366,-2.1903 -0.586736,-4.5301 -0.624854,-6.9162 -0.03794,-2.3895 -0.01653,-4.779 -0.283594,-7.0129 -0.395278,-2.9621 -2.486229,-10.4093 -2.714217,-11.3634 -0.705643,-3.3116 -1.310346,-5.5113 -1.882936,-7.1527 -0.523581,-1.6947 -0.962157,-2.7723 -1.2892447,-3.9031 -0.7132688,-2.2023 -3.0806267,-13.7674 1.9101447,-18.8271"
       stroke-miterlimit="22.926"
       inkscape:connector-curvature="0"
       style="fill:#e68103;fill-opacity:1;fill-rule:nonzero;stroke:#000000;stroke-width:4.63882446;stroke-miterlimit:22.9260006;stroke-dasharray:none;stroke-opacity:1" />
    <path
       id="path4963"
       d="m 18.758257,1273.9642 c -5.406546,-8.8459 -9.1955391,-17.7651 -10.5392622,-26.7785 -2.2357344,1.2679 -4.8903123,2.1246 -7.87197848,1.8504 -4.53161392,-0.4145 -6.45504662,0.258 -7.89438902,1.2334 -1.380785,0.9259 -2.2807494,2.0953 -4.6037933,2.97 -4.711041,1.8545 -10.804429,1.5789 -16.021817,0.5146 l -0.05558,0"
       stroke-miterlimit="22.926"
       inkscape:connector-curvature="0"
       style="fill:#e68103;fill-opacity:1;fill-rule:nonzero;stroke:#000000;stroke-width:4.63882446;stroke-miterlimit:22.9260006;stroke-dasharray:none;stroke-opacity:1" />
    <path
       id="path4965"
       d="m 56.55448,1323.1096 c 2.354441,-4.4787 2.65608,-3.9091 3.124834,-7.44 0.165293,-0.9887 -0.04077,-2.2776 -0.464483,-3.6903 -0.966205,-3.6649 -3.440291,-8.1857 -5.587008,-9.5209 -2.953667,-1.8796 -13.362963,-9.4994 -13.902752,-9.8054 -1.455192,-0.853 -4.995817,-2.05 -8.734794,-0.7518 -3.735263,1.2918 -3.882989,4.007 -4.499444,6.1369 -0.560998,2.1395 0.190376,8.786 0.573458,9.9166 0.327087,1.1308 0.883367,2.1028 2.761772,4.3158 1.82259,2.2099 4.586249,3.526 6.322503,2.1782 0.808039,-0.5686 1.204091,-2.7632 1.43326,-4.9174 0.312136,-2.6503 0.345223,-5.2565 0.345223,-5.2565 0.314967,-2.7621 1.107697,-7.1052 1.798022,-11.6218 0.260548,-1.764 0.52749,-3.5836 0.735402,-5.3472 0.145792,-1.655 0.288726,-3.2575 0.370181,-4.7546 0.183751,-5.4267 0.626634,-11.5175 0.683786,-16.6218 0.125011,-3.3223 0.0056,-6.2167 -0.381911,-8.2926 -0.987565,-5.3323 2.67927,-18.6207 8.511166,-26.8551 5.776403,-8.1815 7.347089,-16.5918 12.013836,-22.7789 4.611048,-6.1901 3.979949,-25.2148 3.979949,-25.2148 0,0 -0.392483,-7.0715 -1.429812,-14.514 -0.981808,-7.4362 -0.459591,-20.1811 2.285225,-28.7481 2.794532,-8.5117 3.705091,-8.9067 13.690774,-36.2908 4.158701,-14.1573 26.363953,-69.1925 43.128163,-109.92285 9.40717,-22.86473 17.12594,-41.26719 18.96354,-45.44473 5.18775,-11.70733 28.34303,-71.91674 28.70481,-97.93429 0.16345,-12.20461 11.80111,-47.49736 14.9325,-95.85167 1.81497,-28.27647 1.34309,-60.39509 -0.032,-89.2304 -0.69855,-14.69815 -1.66574,-28.57451 -2.67633,-40.56638 -0.79658,-9.86946 -1.60659,-18.46528 -2.39839,-25.33791 -3.15511,-27.71047 -3.84648,-18.08991 -12.46285,-34.27259"
       stroke-miterlimit="22.926"
       inkscape:connector-curvature="0"
       style="fill:none;fill-opacity:1;fill-rule:nonzero;stroke:#000000;stroke-width:4.63882446;stroke-miterlimit:22.9260006;stroke-dasharray:none;stroke-opacity:1" />
    <path
       id="path4967"
       d="m 40.393895,1287.2594 0.05272,0.056 c 5.866074,5.4824 4.914539,3.5438 6.295195,4.676 1.384372,1.1257 3.476722,3.4623 4.538019,4.4124 1.05859,0.9401 6.16906,4.9985 8.507338,5.8995 2.338393,0.9011 3.134107,0.5591 4.673061,-2.2451 1.53884,-2.8041 0.163953,-8.0982 -0.874891,-10.4302 -1.039024,-2.3286 -3.416574,-6.6236 -7.896715,-7.9243 -4.532983,-1.3564 -7.183509,-5.7188 -8.202828,-7.4405 -1.015897,-1.7248 -5.932293,-8.3213 -5.932293,-8.3213"
       stroke-miterlimit="22.926"
       inkscape:connector-curvature="0"
       style="fill:#e68103;fill-opacity:1;fill-rule:nonzero;stroke:#000000;stroke-width:1.86400807;stroke-miterlimit:22.9260006;stroke-opacity:1" />
    <path
       id="path4969"
       d="m 37.568625,1309.5306 c 2.044518,1.2176 14.609604,10.0677 18.972591,13.5816 0.477696,0.3585 0.850361,0.7114 1.114048,0.9497 2.58865,2.4129 4.456089,1.7407 5.334948,0.8994 0.87576,-0.7822 2.33758,-7.2556 -3.736251,-12.9733"
       stroke-miterlimit="22.926"
       inkscape:connector-curvature="0"
       style="fill:#e68103;fill-opacity:1;fill-rule:nonzero;stroke:#000000;stroke-width:1.86400807;stroke-miterlimit:22.9260006;stroke-opacity:1" />
    <path
       id="path4971"
       d="m 59.793648,1302.3098 c 4.171439,1.8899 7.497094,4.073 8.610811,0.9131 0.135282,-0.4372 0.162255,-0.933 0.142933,-1.6025 -0.33198,-4.1277 -4.447958,-12.1196 -4.955806,-11.9859"
       stroke-miterlimit="22.926"
       inkscape:connector-curvature="0"
       style="fill:#e68103;fill-opacity:1;fill-rule:nonzero;stroke:#000000;stroke-width:1.86400807;stroke-miterlimit:22.9260006;stroke-opacity:1" />
    <path
       id="path4973"
       d="m 186.57715,1806.375 c -8.34032,-18.1697 -24.19538,-21.749 -33.49766,-46.6888 -1.12332,-2.837 -2.12001,-5.9438 -2.98399,-9.4319 -8.59726,-33.7823 -9.81384,-87.9844 -9.47659,-94.1831 0.34029,-6.2545 -6.76718,-83.8243 -11.01635,-103.711 -4.25252,-19.8276 -9.46489,-43.3791 -13.11008,-65.2285 -3.64189,-21.8525 -20.144111,-72.6679 -38.307924,-157.2209 -1.72646,-8.0925 -3.089889,-17.7129 -3.938013,-28.6949 -2.265799,-29.7729 -0.676142,-69.218 7.570682,-112.5786 12.779838,-67.5442 33.159465,-124.7335 39.162845,-146.2851 2.61383,-9.1867 9.10113,-26.3785 17.0443,-45.87845 17.49215,-42.9135 41.81864,-97.11214 45.79231,-102.78371 5.77944,-8.23731 20.19524,-36.49008 25.80829,-51.89858 10.43627,-28.52528 -13.15815,-97.9365 -23.7453,-176.91401 -2.61203,-19.35309 -4.41603,-39.27471 -4.76682,-59.33789 0.4163,6.63157 1.13305,12.88763 2.08725,18.77133 20.37594,123.48393 154.3945,77.85801 156.63046,2.08081"
       stroke-miterlimit="22.926"
       inkscape:connector-curvature="0"
       style="fill:#e68103;fill-opacity:1;fill-rule:nonzero;stroke:#000000;stroke-width:1.86400807;stroke-miterlimit:22.9260006;stroke-opacity:1" />
    <path
       id="path4977"
       d="m 158.97205,1616.5173 c 14.71652,38.6694 13.01589,31.1908 14.91837,54.4469 1.9021,23.2035 -0.96978,17.8246 -2.50904,46.1161"
       stroke-miterlimit="22.926"
       inkscape:connector-curvature="0"
       style="fill:#e68103;fill-opacity:1;fill-rule:nonzero;stroke:#000000;stroke-width:1.86400807;stroke-miterlimit:22.9260006;stroke-opacity:1" />
    <path
       id="path4979"
       d="m 242.11781,1614.7185 c 1.67024,27.4651 6.1322,42.4141 12.52784,59.5889 6.45135,17.1779 6.02026,44.4694 2.6596,67.4425 -3.35763,22.9172 -2.13476,19.8687 -7.42847,39.5754"
       stroke-miterlimit="22.926"
       inkscape:connector-curvature="0"
       style="fill:#e68103;fill-opacity:1;fill-rule:nonzero;stroke:#000000;stroke-width:1.86400807;stroke-miterlimit:22.9260006;stroke-opacity:1" />
    <path
       id="path4981"
       d="m 318.83388,1808.5655 c -3.9763,15.8894 -11.02867,36.3269 -13.29986,52.5297 -1.71301,12.117 -2.12401,24.756 0.0518,36.8146 1.88834,10.2021 8.18083,19.0435 11.87491,28.738 5.09119,13.4916 10.24497,26.9833 14.60201,40.774 5.21331,16.3894 12.77616,32.5082 14.12337,49.629 1.17675,15.1095 -4.96123,29.8769 -6.66723,44.8921 -1.92549,17.0514 -3.06957,34.1453 -4.34122,51.285 -2.61051,34.7269 -4.33487,69.5052 -7.28027,104.2138 -2.04122,24.2634 -9.45948,48.3986 -7.61761,72.6493 1.39582,18.3451 10.45911,35.3325 17.13722,52.4602 2.28696,5.9002 3.79659,13.8624 9.60824,16.2893 10.63727,4.5204 24.70075,8.3447 34.56816,2.4406 18.48471,-11.1025 32.10627,-29.9016 42.62966,-48.7079 9.16636,-16.381 14.04204,-35.6065 15.06291,-54.3702 1.43386,-26.3543 -4.86179,-52.5695 -7.81911,-78.7708 -1.64396,-14.6937 -4.45899,-29.2271 -6.04735,-43.9736 -2.00143,-19.3199 -6.93801,-38.7995 -4.72768,-58.0614 2.85547,-24.8842 14.27966,-48.0837 19.71698,-72.5475 7.57294,-34.1209 13.39513,-68.6237 19.26295,-103.058 3.1575,-18.1501 7.13557,-36.3115 7.75771,-54.7675 0.46676,-14.6908 -0.6636,-29.6857 -4.43854,-43.8861 -2.73721,-9.9718 -10.58703,-19.787 -15.64084,-29.0023 -0.20491,-0.2877 -0.35107,-0.6283 -0.5101,-0.9136"
       stroke-miterlimit="22.926"
       inkscape:connector-curvature="0"
       style="fill:#e68103;fill-opacity:1;fill-rule:nonzero;stroke:#000000;stroke-width:1.86400807;stroke-miterlimit:22.9260006;stroke-opacity:1" />
    <path
       id="path4983"
       d="m 441.87754,1759.1812 c -2.86416,3.6179 -5.67254,7.3014 -8.43388,11.0894 -7.20239,9.9382 -13.76198,20.3492 -21.60667,29.8077 -7.96797,9.7286 -10.92184,21.1689 -19.52548,21.0333 -11.75505,-0.195 -32.09927,1.1448 -41.26976,-4.8534 -10.613,-6.9624 -10.7372,-23.0188 -14.91197,-35.015 -3.84772,-10.9245 -6.16857,-22.3752 -9.22319,-33.5958"
       stroke-miterlimit="22.926"
       inkscape:connector-curvature="0"
       style="fill:#e68103;fill-opacity:1;fill-rule:nonzero;stroke:#000000;stroke-width:1.86400807;stroke-miterlimit:22.9260006;stroke-opacity:1" />
    <path
       id="path4985"
       d="m 126.10721,1027.0391 c 55.64767,49.5008 332.65785,154.2321 427.36418,112.444 5.11852,10.2034 -2.92258,146.561 -11.3486,176.6907 -37.81198,-54.3655 -209.78425,-53.0562 -198.58812,-49.6711 -0.0591,0 -17.24088,-1.6493 -0.21704,-0.065 23.7144,2.2024 -27.04202,-7.1351 -44.27537,-4.6876 C 292.06914,1240.6648 112.8412,1181.4734 80.168907,1209.3717 76.66837,1165.978 119.07423,1037.1934 126.1137,1027.039 Z"
       inkscape:connector-curvature="0"
       style="fill:#e68103;fill-opacity:1;fill-rule:nonzero;stroke:#000000;stroke-width:1.15970612;stroke-opacity:1" />
    <path
       id="path4989"
       d="m 8.2274082,1247.2125 c 0.3481797,-1.3147 5.6888338,-4.574 7.4452458,-7.2016 l 0.235023,-0.2639"
       stroke-miterlimit="22.926"
       inkscape:connector-curvature="0"
       style="fill:#e68103;fill-opacity:1;fill-rule:nonzero;stroke:#000000;stroke-width:4.63882446;stroke-miterlimit:22.9260006;stroke-dasharray:none;stroke-opacity:1" />
    <g
       id="XMLID_5_"
       transform="matrix(3.2832161,0.1786299,-0.1786299,3.2832161,-567.87581,-161.10521)"
       style="fill:#e68103;fill-opacity:1;fill-rule:nonzero;stroke:#000000;stroke-width:1.41080391;stroke-miterlimit:4;stroke-dasharray:none;stroke-opacity:1">
      <g
         style="fill:#e68103;fill-opacity:1;fill-rule:nonzero;stroke:#000000;stroke-width:1.41080391;stroke-miterlimit:4;stroke-dasharray:none;stroke-opacity:1"
         id="g5038">
        <path
           inkscape:connector-curvature="0"
           d="m 387.88,559.36 c 1.063,4.906 1.956,9.577 2.815,14.618 -4.586,-3.287 -12.039,1.838 -25.629,-0.69 -13.607,-2.529 -12.022,-5.699 -0.642,-12.326 8.516,-4.975 15.8,-0.557 21.819,-1.602 l 1.63,0 z"
           id="path5040"
           style="fill:#e68103;fill-opacity:1;fill-rule:nonzero;stroke:#000000;stroke-width:1.41080391;stroke-miterlimit:4;stroke-dasharray:none;stroke-opacity:1" />
        <path
           inkscape:connector-curvature="0"
           d="m 330.27,523.92 c -3.052,-4.013 -12.663,0.675 -25.106,7.166 -9.831,5.109 -12.967,-7.655 -16.609,-2.377 -1.821,2.63 7.621,9.104 3.17,7.907 -8.161,-2.226 -15.159,-13.826 -25.933,-8.531 -10.758,5.277 -14.72,7.958 -25.916,7.891 -11.213,-0.05 -13.911,-2.832 -22.14,2.227 -4.738,6.306 15.176,8.531 25.292,15.479 10.117,6.964 -6.475,11.702 -22.122,10.438 -15.648,-1.265 -32.29,-1.636 -39.018,0.118 l 0,-1.063 c 1.028,-6.863 32.273,-151.23 44.885,-218.73 2.006,-10.758 14.754,-101.3 16.17,-102.92 20.318,0 75.421,-5.295 109.65,0 0.876,2.714 23.285,141.55 25.865,170.42 l 14.923,138.58 -4.064,0.894 c -5.396,0 -15.293,1.399 -25.208,-0.573 -11.668,-2.344 -25.19,-9.122 -26.979,-7.976 -1.922,1.248 2.091,3.743 -1.534,3.373 -11.044,-1.13 -19.374,0.809 -20.959,-6.779 3.81,-7.44 18.68,-11.52 15.65,-15.55 z"
           id="path5042"
           style="fill:#e68103;fill-opacity:1;fill-rule:nonzero;stroke:#000000;stroke-width:1.41080391;stroke-miterlimit:4;stroke-dasharray:none;stroke-opacity:1" />
      </g>
      <g
         style="fill:#e68103;fill-opacity:1;fill-rule:nonzero;stroke:#000000;stroke-width:1.41080391;stroke-miterlimit:4;stroke-dasharray:none;stroke-opacity:1"
         stroke-miterlimit="22.926"
         id="g5044">
        <path
           inkscape:connector-curvature="0"
           d="m 181.88,564.24 c 6.728,-1.754 23.37,-1.383 39.018,-0.118 15.647,1.265 32.239,-3.474 22.122,-10.438 -10.117,-6.947 -30.03,-9.173 -25.292,-15.479 8.229,-5.059 10.927,-2.276 22.14,-2.227 11.196,0.067 15.158,-2.613 25.916,-7.891 10.774,-5.295 17.772,6.306 25.933,8.531 4.451,1.197 -4.991,-5.277 -3.17,-7.907 3.642,-5.278 6.778,7.486 16.609,2.377 12.443,-6.491 22.055,-11.179 25.106,-7.166 3.035,4.03 -11.837,8.11 -15.631,15.546 1.585,7.588 9.915,5.649 20.959,6.779 3.625,0.37 -0.388,-2.125 1.534,-3.373 1.788,-1.146 15.311,5.632 26.979,7.976 9.915,1.973 19.813,0.573 25.208,0.573 4.098,0 5.615,0.81 2.614,4.485 -1.754,2.158 -3.643,3.119 -5.683,3.457 -6.02,1.045 -13.304,-3.373 -21.819,1.602 -11.381,6.627 -12.966,9.797 0.642,12.326 13.59,2.528 21.043,-2.597 25.629,0.69"
           id="path5046"
           style="fill:#e68103;fill-opacity:1;fill-rule:nonzero;stroke:#000000;stroke-width:1.41080391;stroke-miterlimit:4;stroke-dasharray:none;stroke-opacity:1" />
        <path
           inkscape:connector-curvature="0"
           d="M 393.38,550.53 378.457,411.95 c -2.58,-28.867 -24.989,-167.7 -25.865,-170.42 -34.229,-5.295 -89.333,0 -109.65,0 -1.417,1.619 -14.164,92.165 -16.17,102.92 -12.612,67.497 -43.857,211.86 -44.885,218.73"
           id="path5048"
           style="fill:#e68103;fill-opacity:1;fill-rule:nonzero;stroke:#000000;stroke-width:1.41080391;stroke-miterlimit:4;stroke-dasharray:none;stroke-opacity:1" />
        <path
           inkscape:connector-curvature="0"
           d="m 217.73,538.2 c 0.607,-18.464 -4.451,-53.249 -0.657,-82.335 4.182,-32.055 12.208,-97.544 13.32,-102.69"
           id="path5050"
           style="fill:#e68103;fill-opacity:1;fill-rule:nonzero;stroke:#000000;stroke-width:1.41080391;stroke-miterlimit:4;stroke-dasharray:none;stroke-opacity:1" />
        <path
           inkscape:connector-curvature="0"
           d="m 288.55,528.71 c -1.535,-4.789 0.354,-178.14 -8.481,-189.1"
           id="path5052"
           style="fill:#e68103;fill-opacity:1;fill-rule:nonzero;stroke:#000000;stroke-width:1.41080391;stroke-miterlimit:4;stroke-dasharray:none;stroke-opacity:1" />
        <path
           inkscape:connector-curvature="0"
           d="m 330.27,523.92 c 0,0 20.133,-90.58 18.244,-114.61"
           id="path5054"
           style="fill:#e68103;fill-opacity:1;fill-rule:nonzero;stroke:#000000;stroke-width:1.41080391;stroke-miterlimit:4;stroke-dasharray:none;stroke-opacity:1" />
        <path
           inkscape:connector-curvature="0"
           d="m 390.7,573.98 c -0.859,-5.041 -1.753,-9.712 -2.815,-14.618"
           id="path5056"
           style="fill:#e68103;fill-opacity:1;fill-rule:nonzero;stroke:#000000;stroke-width:1.41080391;stroke-miterlimit:4;stroke-dasharray:none;stroke-opacity:1" />
      </g>
    </g>
    <path
       style="clip-rule:evenodd;fill:#e68103;fill-opacity:1;fill-rule:nonzero;stroke:#000000;stroke-width:4.63882446;stroke-miterlimit:22.9260006;stroke-dasharray:none;stroke-opacity:1"
       inkscape:connector-curvature="0"
       d="m 186.4477,678.76832 c 6.22488,9.17692 69.11535,33.35067 101.60465,23.82685 22.6176,-6.62969 78.52941,-19.47939 102.65596,-15.53239 12.65717,2.07496 27.97942,2.31258 39.31274,8.07934 19.97859,10.16231 50.56035,16.02795 60.70967,16.56367 12.85156,0.67947 40.04395,6.38046 49.24684,-0.44232 9.20835,-19.21051 20.27962,-35.37907 21.93715,-69.41357 1.53401,-31.40359 -1.93185,-22.05252 -1.93748,-45.00788 0.005,-26.53421 2.31361,-22.49 -23.45508,-29.78635 -51.30678,-14.53405 -71.96515,-6.99759 -118.46189,22.06508 -15.60583,9.75418 -22.57909,13.24398 -42.47603,15.13826 -20.44635,1.94672 -18.95973,2.04077 -34.29759,-9.8942 -37.18628,-28.94623 -83.19457,-35.00906 -109.13582,-34.83655 -13.55527,0.089 -45.07139,9.70203 -53.23354,24.63266 0.73376,1.15952 -0.39749,15.29382 -0.23768,33.78246 0.22176,28.00202 4.29501,47.55315 7.75377,60.84722 z"
       stroke-miterlimit="22.926"
       id="path5058" />
    <path
       style="fill:none;stroke:#a65c45;stroke-width:0.98013729;stroke-miterlimit:22.9260006"
       inkscape:connector-curvature="0"
       stroke-miterlimit="22.926"
       d="M -216.50999,403.07666"
       id="path5035" />
  </g>
</svg>
