<?xml version="1.0" encoding="UTF-8" standalone="no"?>
<!-- Created with Inkscape (http://www.inkscape.org/) -->

<svg
   xmlns:dc="http://purl.org/dc/elements/1.1/"
   xmlns:cc="http://creativecommons.org/ns#"
   xmlns:rdf="http://www.w3.org/1999/02/22-rdf-syntax-ns#"
   xmlns:svg="http://www.w3.org/2000/svg"
   xmlns="http://www.w3.org/2000/svg"
   xmlns:sodipodi="http://sodipodi.sourceforge.net/DTD/sodipodi-0.dtd"
   xmlns:inkscape="http://www.inkscape.org/namespaces/inkscape"
   width="210mm"
   height="297mm"
   viewBox="0 0 744.09448819 1052.3622047"
   id="svg4934"
   version="1.1"
   inkscape:version="0.91 r13725"
   sodipodi:docname="gorgona2.svg">
  <defs
     id="defs4936">
    <clipPath
       clipPathUnits="userSpaceOnUse"
       id="clipPath6379">
      <rect
         style="opacity:1;fill:#ffaaaa;fill-opacity:1;fill-rule:nonzero;stroke:none;stroke-width:4;stroke-linecap:round;stroke-linejoin:round;stroke-miterlimit:22.9260006;stroke-dasharray:none;stroke-dashoffset:0;stroke-opacity:1"
         id="rect6381"
         width="1246.3113"
         height="1757.0178"
         x="-218.37218"
         y="21.931955" />
    </clipPath>
    <inkscape:perspective
       id="perspective4111"
       inkscape:persp3d-origin="372.04724 : 350.78739 : 1"
       inkscape:vp_z="744.09448 : 526.18109 : 1"
       inkscape:vp_y="0 : 1000 : 0"
       inkscape:vp_x="0 : 526.18109 : 1"
       sodipodi:type="inkscape:persp3d" />
    <inkscape:perspective
       sodipodi:type="inkscape:persp3d"
       inkscape:vp_x="0 : 0.5 : 1"
       inkscape:vp_y="0 : 1000 : 0"
       inkscape:vp_z="1 : 0.5 : 1"
       inkscape:persp3d-origin="0.5 : 0.33333333 : 1"
       id="perspective3996" />
  </defs>
  <sodipodi:namedview
     id="base"
     pagecolor="#ffffff"
     bordercolor="#666666"
     borderopacity="1.0"
     inkscape:pageopacity="0.0"
     inkscape:pageshadow="2"
     inkscape:zoom="1.979899"
     inkscape:cx="383.31485"
     inkscape:cy="832.92281"
     inkscape:document-units="px"
     inkscape:current-layer="layer1"
     showgrid="false"
     inkscape:window-width="1920"
     inkscape:window-height="1018"
     inkscape:window-x="-8"
     inkscape:window-y="-8"
     inkscape:window-maximized="1" />
  <metadata
     id="metadata4939">
    <rdf:RDF>
      <cc:Work
         rdf:about="">
        <dc:format>image/svg+xml</dc:format>
        <dc:type
           rdf:resource="http://purl.org/dc/dcmitype/StillImage" />
        <dc:title />
      </cc:Work>
    </rdf:RDF>
  </metadata>
  <g
     inkscape:label="Capa 1"
     inkscape:groupmode="layer"
     id="layer1">
    <path
       style="fill:#000000;fill-opacity:1;fill-rule:evenodd;stroke:none;stroke-width:1px;stroke-linecap:butt;stroke-linejoin:miter;stroke-opacity:1"
       d="m 396.3872,22.579147 c -21.55816,-7.462597 -47.22806,-7.160738 -68.71211,0.498082 -28.31418,10.093683 -53.84947,31.254192 -69.22955,56.305592 -10.65145,17.349302 -12.08315,39.133759 -12.39849,59.294079 -0.69568,44.47574 23.24865,131.54508 23.24865,131.54508 l 64.57863,56.30463 58.77395,-0.0279 63.15217,-56.27668 c 0,0 25.02316,-90.73195 23.7651,-137.02594 -0.49529,-18.22613 -2.4553,-37.820436 -12.27364,-53.400899 C 451.28674,54.39695 425.39196,32.619478 396.3872,22.579153 Z"
       id="path5518-1"
       inkscape:connector-curvature="0"
       sodipodi:nodetypes="ssssccccsss" />
    <path
       sodipodi:nodetypes="czsccccscsc"
       style="fill:#e68103;fill-opacity:1;fill-rule:evenodd;stroke:none;stroke-width:1px;stroke-linecap:butt;stroke-linejoin:miter;stroke-opacity:1"
       d="m 329.29052,14.528416 c -27.61669,10.20781 -54.82901,35.502169 -67.52414,56.942229 -12.69513,21.440057 -11.78548,39.576245 -12.09306,59.964515 -0.67854,44.97861 22.67595,133.03245 22.67595,133.03245 l 62.98778,56.94125 57.32609,-0.0282 61.59646,-56.91299 c 0,0 24.40673,-91.75784 23.17967,-138.57527 -0.4831,-18.43221 -2.39483,-38.248069 -11.9713,-54.004691 C 443.11927,44.733745 423.86758,25.512216 402.80673,15.520026 381.74588,5.5278357 358.87586,4.7649857 329.29052,14.528416 Z"
       id="path5518-7"
       inkscape:connector-curvature="0" />
    <path
       style="fill:none;stroke:#a65c45;stroke-width:0.98013729;stroke-miterlimit:22.9260006"
       inkscape:connector-curvature="0"
       stroke-miterlimit="22.926"
       d="M -216.50999,403.07666"
       id="path5035" />
    <g
       id="g4417">
      <path
         id="path4551"
         d="m 353.23134,228.88307 c 0.19823,7.57396 16.27397,5.83121 19.91366,2.48611 1.03519,-24.84183 -7.42804,-91.55107 7.46659,-109.52099 20.33214,-24.530716 77.31995,-6.12855 94.58506,12.44432 -10.61071,2.24108 -20.6818,-12.26261 -37.33846,-14.93043 -14.96346,-2.40351 -29.07895,1.15358 -44.80228,2.48611 -25.57968,15.07635 -9.12675,72.17978 -17.42205,104.54326 16.90445,6.94349 3.71127,-16.19963 14.93869,-14.93593 1.81984,7.78321 5.15393,22.89534 2.48336,27.38025 -8.67523,7.0894 -36.27573,-4.75197 -32.35798,14.93593 9.80678,1.0875 21.95651,5.36868 34.84959,2.48611 2.75868,4.71342 3.1744,11.76153 4.98048,17.42755 -13.35011,-11.31001 -11.40912,8.25675 -27.38025,7.46659 3.04225,3.59563 9.50118,3.77459 12.44707,7.46383 -13.96406,0.71307 -32.35797,-4.85383 -44.80229,7.4721 -5.86424,-6.15333 4.89514,-9.73245 9.95821,-12.44707 -7.76118,-10.87226 -18.20945,-18.02223 -27.38025,-14.93318 -1.01867,-5.99915 4.54824,-5.40997 2.48611,-12.44707 14.37429,0.26981 30.28759,2.0814 29.86636,-12.44706 -8.29805,-5.83672 -9.97748,-6.97928 -22.40252,-4.97773 -3.08905,-9.89213 -7.49137,-35.48832 9.9582,-32.35522 -0.82595,9.124 -9.86459,10.04355 -7.46383,22.40252 5.20348,1.05171 6.59108,-1.70696 9.9582,-2.49162 1.67944,-16.82735 10.19223,-79.24716 0,-94.58505 -18.14061,-27.29215 -69.74873,-13.50429 -94.58505,2.48611 14.19808,-21.68945 56.31603,-31.83763 82.13523,-22.40252 36.55105,13.36662 19.03265,76.94276 19.92192,117.00134 z m 32.37725,42.31618 c -5.30811,-15.13967 -27.98595,0.33313 -42.31893,-7.46659 3.7388,17.37248 27.09391,7.32342 42.31893,7.46108 z"
         inkscape:connector-curvature="0"
         style="clip-rule:evenodd;fill-rule:evenodd" />
      <path
         id="path4553"
         d="m 405.51399,166.63396 c 8.39716,1.55554 11.07323,8.83216 19.90815,9.95821 -7.40602,7.24083 -20.12565,-1.29399 -19.9054,-9.96647 z"
         inkscape:connector-curvature="0"
         style="clip-rule:evenodd;fill-rule:evenodd" />
      <path
         id="path4567"
         d="m 343.28415,156.69503 c -14.58077,5.33288 -17.91761,21.90695 -42.31067,17.42755 6.33228,-6.11754 19.20885,-5.67979 24.88863,-12.44983 -13.01697,-2.50262 -29.24414,-0.0881 -44.80229,-7.46383 -6.36257,4.13526 9.71317,6.68469 7.46659,14.93593 -11.55504,-2.54943 -11.12004,-17.09166 -27.38025,-14.93593 9.33875,-19.88888 35.23504,-33.05177 64.7187,-24.88863 6.05146,8.83766 13.07479,16.73925 17.41929,27.33895 z m -22.40252,-24.89139 c -23.35512,-7.43079 -14.99925,4.16004 0,0 z m 0,14.92492 c -1.39035,5.07134 -7.48586,4.87862 -2.48611,9.9527 12.2984,1.26371 7.68409,-17.36698 0,-17.42479 -0.11013,3.46899 1.1701,5.50633 2.48611,7.48861 z m -37.33845,4.98324 c 3.72503,-0.42674 9.18732,0.88376 9.9582,-2.49162 -4.11048,-0.0358 -1.38759,-6.90219 -4.97772,-7.46384 -0.033,4.92817 -6.78931,3.13861 -4.98048,9.93894 z m 22.40802,2.47785 c 1.71247,-6.6902 -5.15117,-4.81254 -7.46934,-7.46384 -0.45427,5.42374 2.03735,7.92912 7.46934,7.46108 z"
         inkscape:connector-curvature="0"
         style="clip-rule:evenodd;fill-rule:evenodd" />
      <path
         id="path4569"
         d="m 415.48045,131.80364 c 8.80738,4.4739 19.8173,6.737 29.87462,9.95821 -0.85899,-6.61311 -6.53327,-8.40267 -12.44707,-9.95821 13.47951,-5.12364 18.90875,19.21711 34.84959,19.91366 -4.49042,13.76033 -23.16515,13.3391 -32.36073,22.40252 -6.73975,-2.25209 5.6908,-5.5669 4.98048,-9.9582 -22.33369,-4.74922 -46.89469,7.92912 -49.78001,-14.93593 13.13536,0.69104 8.94779,-15.94084 17.42204,-19.90815 15.4728,-1.54453 27.31142,-1.43441 7.43355,2.47785 z m -9.96646,22.38601 c 1.52525,0.72959 9.57826,6.19187 9.94994,0 -6.81959,-2.25209 4.8621,-9.16254 -4.97772,-9.95821 0,4.98323 -6.77279,3.19368 -4.9557,9.96647 z m 17.42754,2.50538 c 6.40938,6.12304 11.96252,-2.65956 14.93043,-7.46659 -6.19463,1.23892 -10.21425,4.70792 -14.92217,7.46108 z m 17.42755,2.47785 c 4.76023,-1.04345 10.71258,-0.90029 9.95821,-7.46384 -3.4277,0.10462 -5.46779,-1.1756 -7.4721,-2.49161 0.5231,4.70791 -2.83576,5.4788 -2.50538,9.93893 z"
         inkscape:connector-curvature="0"
         style="clip-rule:evenodd;fill-rule:evenodd" />
    </g>
  </g>
</svg>
