<?xml version="1.0" encoding="UTF-8" standalone="no"?>
<!-- Created with Inkscape (http://www.inkscape.org/) -->

<svg
   xmlns:dc="http://purl.org/dc/elements/1.1/"
   xmlns:cc="http://creativecommons.org/ns#"
   xmlns:rdf="http://www.w3.org/1999/02/22-rdf-syntax-ns#"
   xmlns:svg="http://www.w3.org/2000/svg"
   xmlns="http://www.w3.org/2000/svg"
   xmlns:sodipodi="http://sodipodi.sourceforge.net/DTD/sodipodi-0.dtd"
   xmlns:inkscape="http://www.inkscape.org/namespaces/inkscape"
   width="210mm"
   height="297mm"
   viewBox="0 0 744.09448819 1052.3622047"
   id="svg4934"
   version="1.1"
   inkscape:version="0.91 r13725"
   sodipodi:docname="gorgona3.svg">
  <defs
     id="defs4936">
    <clipPath
       clipPathUnits="userSpaceOnUse"
       id="clipPath6379">
      <rect
         style="opacity:1;fill:#ffaaaa;fill-opacity:1;fill-rule:nonzero;stroke:none;stroke-width:4;stroke-linecap:round;stroke-linejoin:round;stroke-miterlimit:22.9260006;stroke-dasharray:none;stroke-dashoffset:0;stroke-opacity:1"
         id="rect6381"
         width="1246.3113"
         height="1757.0178"
         x="-218.37218"
         y="21.931955" />
    </clipPath>
    <inkscape:perspective
       id="perspective4111"
       inkscape:persp3d-origin="372.04724 : 350.78739 : 1"
       inkscape:vp_z="744.09448 : 526.18109 : 1"
       inkscape:vp_y="0 : 1000 : 0"
       inkscape:vp_x="0 : 526.18109 : 1"
       sodipodi:type="inkscape:persp3d" />
    <inkscape:perspective
       sodipodi:type="inkscape:persp3d"
       inkscape:vp_x="0 : 0.5 : 1"
       inkscape:vp_y="0 : 1000 : 0"
       inkscape:vp_z="1 : 0.5 : 1"
       inkscape:persp3d-origin="0.5 : 0.33333333 : 1"
       id="perspective3996" />
  </defs>
  <sodipodi:namedview
     id="base"
     pagecolor="#ffffff"
     bordercolor="#666666"
     borderopacity="1.0"
     inkscape:pageopacity="0.0"
     inkscape:pageshadow="2"
     inkscape:zoom="1.4"
     inkscape:cx="532.10921"
     inkscape:cy="857.32786"
     inkscape:document-units="px"
     inkscape:current-layer="layer1"
     showgrid="false"
     inkscape:window-width="1920"
     inkscape:window-height="1018"
     inkscape:window-x="-8"
     inkscape:window-y="-8"
     inkscape:window-maximized="1" />
  <metadata
     id="metadata4939">
    <rdf:RDF>
      <cc:Work
         rdf:about="">
        <dc:format>image/svg+xml</dc:format>
        <dc:type
           rdf:resource="http://purl.org/dc/dcmitype/StillImage" />
        <dc:title />
      </cc:Work>
    </rdf:RDF>
  </metadata>
  <g
     inkscape:label="Capa 1"
     inkscape:groupmode="layer"
     id="layer1">
    <g
       id="g4142">
      <path
         sodipodi:nodetypes="ssssccccsss"
         inkscape:connector-curvature="0"
         id="path5518-1"
         d="m 396.3872,22.579147 c -21.55816,-7.462597 -47.22806,-7.160738 -68.71211,0.498082 -28.31418,10.093683 -53.84947,31.254192 -69.22955,56.305592 -10.65145,17.349302 -12.08315,39.133759 -12.39849,59.294079 -0.69568,44.47574 23.24865,131.54508 23.24865,131.54508 l 64.57863,56.30463 58.77395,-0.0279 63.15217,-56.27668 c 0,0 25.02316,-90.73195 23.7651,-137.02594 -0.49529,-18.22613 -2.4553,-37.820436 -12.27364,-53.400899 C 451.28674,54.39695 425.39196,32.619478 396.3872,22.579153 Z"
         style="fill:#000000;fill-opacity:1;fill-rule:evenodd;stroke:none;stroke-width:1px;stroke-linecap:butt;stroke-linejoin:miter;stroke-opacity:1" />
    </g>
    <path
       sodipodi:nodetypes="czsccccscsc"
       style="fill:#e68103;fill-opacity:1;fill-rule:evenodd;stroke:none;stroke-width:1px;stroke-linecap:butt;stroke-linejoin:miter;stroke-opacity:1"
       d="m 329.33545,13.858082 c -27.61669,10.20781 -54.82901,35.502164 -67.52414,56.942225 -12.69513,21.440057 -11.78548,39.576243 -12.09306,59.964513 -0.67854,44.97861 22.67595,133.03244 22.67595,133.03244 l 62.98778,56.94125 57.3261,-0.0282 61.59646,-56.91299 c 0,0 24.40673,-91.75783 23.17967,-138.57526 -0.4831,-18.43221 -2.39483,-38.248067 -11.9713,-54.004689 C 443.16421,44.063408 423.91252,24.84188 402.85167,14.84969 381.79082,4.8575007 358.9208,4.0946494 329.33545,13.858082 Z"
       id="path5518"
       inkscape:connector-curvature="0" />
    <path
       style="fill:none;stroke:#a65c45;stroke-width:0.98013729;stroke-miterlimit:22.9260006"
       inkscape:connector-curvature="0"
       stroke-miterlimit="22.926"
       d="M -216.50999,403.07666"
       id="path5035" />
    <path
       d="m 343.72155,316.52312 c -8.04092,-2.15928 -16.42196,-6.07654 -15.65379,-7.31861 0.37835,-0.61147 -0.35543,-1.98729 -1.63379,-3.03827 -2.42871,-2.02551 -6.64216,-9.36323 -6.55044,-11.40785 0.0286,-0.64969 0.86944,0.2293 1.86691,1.96819 8.26639,14.40791 19.20417,19.22328 43.62119,19.22328 14.14802,0 17.32005,-0.45861 22.82334,-3.34402 7.49059,-3.93637 8.82819,-4.18477 6.30585,-1.1274 -4.81538,5.78991 -36.3255,8.92373 -50.77927,5.04468 z m -23.14438,-10.26133 c -0.50829,-0.82168 -0.21211,-1.50959 0.65734,-1.50959 0.87135,0 1.58219,0.68791 1.58219,1.50959 0,0.82166 -0.29618,1.49046 -0.65924,1.49046 -0.36115,0 -1.07391,-0.6688 -1.58029,-1.49046 z m -2.12297,-17.06401 c -0.0631,-1.56692 0.28855,-2.44591 0.78536,-1.94909 0.49683,0.49683 0.54843,1.77711 0.11847,2.8663 -0.47771,1.18474 -0.83122,0.84078 -0.90383,-0.91721 z m 43.1836,-21.89849 -8.21099,-0.87901 10.73715,-0.22929 c 5.90457,-0.13376 11.15179,0.42039 11.64862,1.22295 0.53503,0.85989 -0.55415,1.33761 -2.52234,1.1274 -1.88985,-0.19108 -7.13517,-0.76433 -11.65244,-1.24205 z m -15.67672,-3.85995 c -1.64335,-0.45861 -5.63896,-2.77075 -8.87979,-5.14022 -3.24273,-2.36946 -6.77018,-4.29944 -7.84026,-4.29944 -1.07009,0 -1.94526,-0.93632 -1.94526,-2.06373 0,-1.12742 -1.00703,-2.8854 -2.23953,-3.91728 -4.36824,-3.63063 -2.52425,-5.80902 15.54104,-18.36339 3.90963,-2.73253 12.28112,-2.80897 18.67295,-0.21019 2.00068,0.82168 2.53763,0.64969 1.78858,-0.57325 -0.67646,-1.0892 -0.29046,-1.41404 1.05671,-0.89812 2.33507,0.89812 7.01669,-3.01916 6.94215,-5.80902 -0.0936,-3.45866 -3.80452,-6.61158 -7.74664,-6.61158 -2.43635,0 -4.25739,0.93632 -4.65104,2.42679 -0.4777,1.77711 -0.69364,1.62423 -0.82166,-0.61147 -0.23887,-4.2039 -7.93391,-8.52246 -12.9461,-7.26128 -3.31726,0.82167 -3.86186,0.53504 -3.4128,-1.83443 0.83696,-4.39498 7.54218,-4.35676 12.83336,0.0956 6.07845,5.12111 14.40408,5.15933 21.26407,0.0764 5.23577,-3.84082 9.68808,-4.64339 13.2614,-2.36947 3.3058,2.08285 0.57326,4.41411 -4.29944,3.64976 -4.4141,-0.68791 -13.43528,3.22935 -13.43528,5.84724 0,0.70702 0.63249,0.87899 1.40639,0.40128 2.39813,-1.49048 -0.10513,10.26133 -2.61979,12.26773 -2.95038,2.35037 0.14522,2.54146 4.38734,0.26753 4.58607,-2.4459 11.19766,-0.22931 18.78378,6.32495 3.78351,3.28669 8.46513,6.57338 10.37599,7.2995 4.16568,1.58602 4.49053,4.07015 0.89811,6.80268 -3.59242,2.71342 -6.49694,2.56055 -16.75827,-0.89812 -7.43326,-2.50322 -10.03203,-2.73253 -16.74298,-1.43313 -4.36823,0.82166 -10.63013,1.05097 -13.9149,0.4586 -7.75047,-1.35671 -13.91682,-0.74524 -19.03029,1.89176 -2.26247,1.16562 -4.11409,1.73888 -4.11409,1.26116 0,-0.47771 -0.68982,-0.45861 -1.53442,0.0764 -1.60513,0.99364 5.26251,6.13386 12.43016,9.3059 2.49941,1.1083 10.59956,1.85354 20.15769,1.83443 13.32827,-0.0382 17.39841,-0.63058 24.56415,-3.57332 4.71983,-1.94907 8.57977,-3.32489 8.57977,-3.07649 0,0.24841 -3.19114,2.29303 -7.0893,4.56697 -6.40139,3.72618 -8.67532,4.14657 -23.51125,4.50964 -9.03457,0.21019 -17.76913,0.0192 -19.41055,-0.4204 z m 42.74983,-17.73281 c -5.23577,-2.0064 -11.96201,-3.57331 -14.94295,-3.47777 -4.82685,0.17199 -4.60519,0.32485 2.06373,1.35671 4.08924,0.63059 9.80273,2.1975 12.68812,3.47778 2.8663,1.28028 6.22942,2.33126 7.45237,2.31215 1.24206,0 -2.02551,-1.66246 -7.26127,-3.66887 z m -55.1628,1.29939 c -1.07772,-0.43949 -2.36565,-0.38218 -2.86056,0.11471 -0.49683,0.49683 0.38408,0.84078 1.95863,0.78345 1.73889,-0.0764 2.09431,-0.42039 0.90193,-0.89811 z m 65.71075,-3.15293 c -1.89175,-1.41402 -6.47782,-5.06378 -10.16578,-8.15938 -7.20396,-5.981 -11.54162,-6.82177 -20.00292,-3.85994 -4.07587,1.41404 -6.35935,1.22296 -13.06265,-1.05098 -8.11162,-2.75164 -8.12881,-2.75164 -14.32002,0.59237 -3.40897,1.85354 -8.8301,5.67527 -12.04799,8.50334 -5.29309,4.6625 -5.52239,5.15933 -2.42488,5.15933 1.88029,0 7.29185,-1.73888 12.02124,-3.85994 8.16512,-3.66885 8.83392,-3.74529 13.17731,-1.49048 5.70775,2.94274 10.06642,2.98096 18.136,0.13377 6.10329,-2.15928 6.63834,-2.08284 16.23087,2.19749 5.46507,2.4268 11.27409,4.41409 12.91743,4.39498 2.80897,-0.0192 2.77075,-0.17197 -0.45861,-2.56056 z m -47.31296,-0.80255 c -2.40196,-0.80257 -5.9466,-0.80257 -8.73646,0 -4.12174,1.18473 -3.62683,1.3376 4.03955,1.3376 7.18294,0 8.01799,-0.2293 4.69691,-1.3376 z m -13.74675,-29.38908 c -3.55229,-1.43314 -7.93773,-8.6371 -7.88422,-12.97475 0.0611,-4.96825 5.62368,-15.07672 8.86068,-16.10858 3.67649,-1.16562 7.55364,1.43314 7.48675,5.02557 -0.0401,2.12106 -0.23313,2.10195 -1.56881,-0.19109 -2.34654,-4.03192 -7.18102,-3.22935 -9.0059,1.49048 -3.29241,8.52244 -3.22745,12.89832 0.25223,17.31241 2.7096,3.45866 4.14848,4.08925 7.60141,3.40134 2.35419,-0.47771 4.25931,-0.19108 4.25931,0.61148 0,0.80256 -0.61721,1.45225 -1.37199,1.45225 -0.75289,0 -2.26628,0.28664 -3.35931,0.6497 -1.09301,0.36305 -3.46438,0.0574 -5.27015,-0.66881 z m 41.35872,-1.62423 c -1.73889,-1.22295 -1.3376,-1.39493 1.7771,-0.70702 2.21661,0.47772 5.80902,0.0574 8.00652,-0.93632 3.7644,-1.71978 3.93638,-2.25483 3.32489,-10.66261 -0.45859,-6.4014 -1.41403,-9.42056 -3.42044,-10.89193 -4.03191,-2.94273 -6.61158,-2.52234 -8.15938,1.3185 -0.89811,2.27393 -1.37582,2.57967 -1.43315,0.93632 -0.13376,-3.61153 3.85995,-6.24853 7.91097,-5.21666 4.29945,1.07008 8.4078,9.00018 8.4078,16.18502 0,8.77086 -9.76451,14.69454 -16.41431,9.9747 z M 351.93443,204.451 c -3.95357,-4.70073 -3.98606,-4.93002 -3.06119,-21.28701 0.51592,-9.0766 1.07772,-29.0069 1.25161,-44.25558 l 0.31529,-27.73046 -4.28033,-5.61602 C 340.71002,98.40766 332.06337,94.71778 316.09429,92.732402 301.66537,90.940008 288.0925,92.497368 281.479,96.703171 c -7.98167,5.079069 -13.93592,11.511039 -13.09896,14.148039 0.44332,1.39493 -0.009,3.03826 -1.0032,3.65165 -1.28983,0.79683 -1.4962,0.2981 -0.71848,-1.7408 0.82166,-2.15736 0.66497,-2.43825 -0.63824,-1.1446 -2.50897,2.48794 -2.66183,15.2525 -0.19491,16.18883 6.01349,2.31214 8.4766,0.49682 18.1704,-13.30725 5.03131,-7.16574 16.42769,-12.80661 25.87499,-12.80661 11.07346,0 18.68634,2.91025 26.21131,10.01866 3.73001,3.52364 7.31097,6.40521 7.95684,6.40521 0.64588,0 1.17518,1.74271 1.17518,3.88096 0,2.65611 -0.9669,4.10837 -3.11279,4.68162 -2.4268,0.63058 -2.67331,1.12741 -1.11978,2.21661 1.33952,0.95542 0.37645,1.14651 -2.93508,0.57325 -2.79368,-0.47772 -4.56313,-0.26752 -4.08733,0.49682 0.46051,0.74524 -1.35289,2.90451 -4.03193,4.77717 -2.67902,1.89174 -5.65614,4.4523 -6.6154,5.71347 -0.95925,1.26118 -2.24718,1.79621 -2.86057,1.18474 -1.29938,-1.29938 -1.72168,-0.879 6.69567,-6.87911 6.50076,-4.6434 6.18547,-6.76446 -0.36689,-2.46501 -3.85612,2.52234 -16.78502,6.68802 -20.84942,6.70712 -5.20328,0.0382 -1.0376,-2.57966 5.27971,-3.30579 3.51025,-0.40128 10.7486,-2.90451 16.08565,-5.56061 5.33895,-2.63698 8.02563,-4.39498 5.97335,-3.87905 -14.83976,3.70707 -24.26604,5.21665 -31.35726,5.06379 -7.49058,-0.15287 -7.03388,-0.32484 5.22621,-1.94909 18.65385,-2.46501 25.95143,-4.89181 25.04951,-8.35047 -1.70258,-6.5084 -21.01758,-9.46641 -33.37322,-5.10582 -10.74861,3.79306 -15.57737,10.45624 -8.8473,12.21424 1.64333,0.4395 2.98667,1.39493 2.98667,2.12106 0,0.74524 -2.31022,0.38217 -5.1364,-0.80257 -4.19243,-1.75799 -4.99308,-1.7771 -4.36249,-0.13376 0.96116,2.50323 9.63457,6.72624 13.83082,6.72624 1.7236,0 3.13382,0.6688 3.13382,1.49048 0,2.04462 -11.33907,0.85988 -14.15376,-1.47137 -1.24971,-1.03187 -2.27011,-1.24206 -2.27011,-0.4395 0,2.12106 4.52302,5.61794 10.10656,7.83454 4.53638,1.77711 6.81604,1.71978 20.50164,-0.68791 l 4.47907,-0.76435 -4.47907,2.17839 c -4.65104,2.25481 -16.68375,2.77075 -23.11379,0.97454 -2.03699,-0.57327 -5.97336,-4.01282 -8.74794,-7.64345 -4.53447,-5.94279 -5.74787,-6.66892 -11.95054,-7.05109 -4.39116,-0.26752 -7.95874,-1.49048 -9.80081,-3.3249 -2.54909,-2.56056 -2.6905,-3.57332 -1.17709,-8.57405 2.04654,-6.75299 10.15814,-15.8506 20.44815,-22.932257 l 7.46573,-5.138315 20.90484,0.05917 c 20.09656,0.05541 21.2488,0.227396 29.86297,4.479069 14.35631,7.085473 14.88754,8.944753 14.38881,50.412383 -0.22549,18.72646 -0.96882,37.54846 -1.64908,41.80968 -0.87518,5.48418 -0.66881,9.13392 0.69747,12.43972 2.4287,5.84724 3.80644,6.68802 11.20912,6.78356 3.27904,0.0574 5.96189,0.68791 5.96189,1.41404 0,0.70702 -2.96375,1.29939 -6.58484,1.29939 -5.56825,0 -7.20586,-0.72613 -10.58427,-4.73894 z m -60.62594,-89.85259 c 8.78614,-3.72619 12.39385,-4.4141 21.44562,-4.09498 8.97149,0.31911 12.97284,1.65289 22.466,7.49631 3.80071,2.33507 5.39628,4.24594 4.81729,5.75551 -0.71083,1.85355 -0.46625,1.91087 1.38156,0.38218 1.9357,-1.60512 1.28983,-2.78986 -4.68354,-8.59506 -8.73646,-8.49378 -14.42509,-10.86325 -26.05843,-10.86325 -7.23644,0 -10.67217,0.83313 -15.78946,3.83127 -6.25426,3.66695 -15.41111,14.213 -15.3385,17.67166 0.0192,0.89811 1.46182,-0.82166 3.20834,-3.84083 1.90895,-3.28668 5.3122,-6.37082 8.55112,-7.74281 z m 85.49774,76.68675 c 0,-2.06373 0.34395,-2.90452 0.74523,-1.87265 0.4204,1.03186 0.4204,2.71342 0,3.72619 -0.40128,1.03187 -0.74523,0.19108 -0.74523,-1.85354 z m -2.98094,-19.41437 c 0,-2.04462 0.32484,-2.8854 0.74523,-1.87265 0.42038,1.03187 0.42038,2.71342 0,3.74529 -0.42039,1.01276 -0.74523,0.17198 -0.74523,-1.87264 z m 0.0955,-17.9239 c 0,-2.86629 0.32485,-4.05103 0.68791,-2.59877 0.38218,1.43315 0.38218,3.78351 0,5.21666 -0.36306,1.43315 -0.68791,0.26752 -0.68791,-2.61789 z m 37.10896,-8.17849 c -3.63063,-2.14017 -9.0957,-6.03833 -12.13398,-8.67532 -3.01916,-2.63698 -7.62434,-6.40139 -10.22311,-8.35047 -2.59878,-1.96818 -4.35677,-3.93638 -3.91727,-4.37587 0.45861,-0.45861 1.62423,-0.0382 2.59878,0.93632 2.63698,2.65609 3.95548,2.14017 3.09559,-1.22296 -0.55415,-2.08284 -0.0573,-2.98094 1.68156,-2.98094 1.35671,0 5.9619,-1.80767 10.24222,-4.02046 6.38229,-3.29815 9.82184,-4.03383 18.99399,-4.07777 12.80278,-0.0611 19.50991,2.12678 26.67564,8.7097 l 5.02557,4.6243 -2.40769,-4.77716 c -1.3376,-2.63126 -4.89181,-6.66128 -7.89186,-8.96386 -5.14022,-3.91345 -6.42049,-4.18287 -19.9112,-4.18287 -13.26138,0 -14.90473,0.33056 -20.67553,4.15612 -10.10847,6.68611 -16.66272,10.0798 -16.66272,8.62755 0,-0.72613 2.36946,-2.80515 5.27398,-4.59563 2.9045,-1.79048 6.19119,-4.17524 7.31861,-5.30265 3.55419,-3.56375 14.71363,-6.57337 24.42082,-6.5963 15.43978,-0.0362 25.98774,6.24852 31.79676,18.94048 1.58601,3.45866 3.93637,6.87911 5.23577,7.60523 1.62423,0.89811 0.21019,1.28028 -4.49053,1.18473 -4.8727,-0.0955 -6.6498,-0.6688 -6.15299,-2.0064 0.53505,-1.37582 -0.45859,-1.28028 -3.63063,0.36306 -2.40768,1.24207 -6.59248,2.1975 -9.28679,2.12106 l -4.93003,-0.15287 5.9619,-1.71978 c 9.13391,-2.61787 10.07024,-3.59241 6.70712,-6.95554 -7.60524,-7.62051 -34.73949,-10.10845 -41.67593,-3.82173 -1.70066,1.54781 -3.09559,3.3058 -3.09559,3.93639 0,1.60512 13.79642,6.01922 22.96857,7.35682 l 7.64345,1.12741 -7.05108,0.19108 c -3.9937,0.0956 -10.3951,-1.14652 -14.79008,-2.8854 -13.29961,-5.23576 -14.94295,-2.82807 -2.42679,3.59242 9.26768,4.75805 12.80278,5.77081 20.29335,5.84724 5.46508,0.0382 8.71354,0.64969 8.1785,1.5287 -1.22295,1.98729 -18.45893,0.2293 -24.63102,-2.52234 -2.73253,-1.20384 -7.3186,-3.70707 -10.1849,-5.54151 l -5.23577,-3.344 5.98101,5.44595 c 3.28669,3.01916 9.5161,7.24217 13.85375,9.42056 6.61159,3.3249 9.13393,3.82173 15.49711,3.07649 4.18478,-0.49683 9.26768,-1.9873 11.27408,-3.30579 2.02552,-1.33761 4.01282,-2.08284 4.4332,-1.66246 2.08284,2.08284 -8.04473,5.92368 -17.12132,6.49694 -8.75176,0.53504 -10.85371,0.13376 -16.62452,-3.24847 z m 43.70145,-16.50985 c -0.49683,-1.28029 -1.20385,-1.98731 -1.60514,-1.60513 -0.38217,0.40128 -0.26751,1.43315 0.28663,2.31214 1.47137,2.38859 2.33126,1.91087 1.31851,-0.70701 z m -58.75904,-5.25487 c 0,-0.87901 -0.6688,-1.16563 -1.49048,-0.66881 -0.82166,0.51593 -1.49048,1.22295 -1.49048,1.58602 0,0.36306 0.66882,0.6688 1.49048,0.6688 0.82168,0 1.49048,-0.72613 1.49048,-1.58601 z m -22.26156,18.87931 c -0.0764,-1.58601 0.28663,-2.46501 0.78346,-1.96818 0.49682,0.49683 0.53503,1.79621 0.11458,2.8663 -0.47771,1.18473 -0.84077,0.84077 -0.8981,-0.89812 z m 62.58077,-3.85994 c 0,-0.82166 1.05097,-1.49046 2.33125,-1.49046 1.28027,0 1.91087,0.6688 1.41404,1.49046 -0.51594,0.82168 -1.56692,1.49048 -2.33125,1.49048 -0.78346,0 -1.41404,-0.6688 -1.41404,-1.49048 z m -62.65721,-7.47147 c -1.31849,-23.7119 0.30574,-28.08968 12.66903,-34.282793 6.30585,-3.149106 9.93649,-3.760579 25.45269,-4.278422 14.02574,-0.466249 20.10229,-0.02861 26.92407,1.941437 11.69447,3.376488 22.37619,9.288708 25.41448,14.077328 l 2.48411,3.88096 -4.31855,-3.86758 c -7.35682,-6.60585 -14.33147,-9.91547 -26.46545,-12.583038 -9.91738,-2.176471 -14.15949,-2.3389 -27.74573,-1.058613 -17.2742,1.629965 -26.04506,4.861231 -29.94323,11.039051 -1.3376,2.13061 -2.56055,9.28871 -3.1147,18.42454 -0.68791,11.46518 -1.01276,13.01298 -1.35672,6.70713 z m 74.60009,5.3122 c 0,-0.36306 0.68791,-1.07008 1.50959,-1.56691 0.80257,-0.51593 1.49048,-0.2293 1.49048,0.64969 0,0.87901 -0.68791,1.58603 -1.49048,1.58603 -0.82168,0 -1.50959,-0.30574 -1.50959,-0.66881 z m 22.64373,-9.5161 c -0.13375,-2.71342 -0.97453,-6.30585 -1.85354,-7.96448 -0.87899,-1.65863 -1.24205,-3.38604 -0.78344,-3.84083 1.49046,-1.49238 4.05102,7.52497 3.45866,12.18749 l -0.59238,4.56696 z"
       style="fill:#000000;stroke:#000000;stroke-width:1.91086304;stroke-opacity:1"
       id="path2313"
       inkscape:connector-curvature="0"
       clip-path="none"
       sodipodi:nodetypes="cccccsccccsssccscccccccccccssccccccsccccccccsccccccccccsccccsccccscccccccccccccsccscccccsccssccccccccssssccccccccsccccccccccccccscsscccccsccccccccccccsccsscscccccccccccccccccssccccccccsccccscccscccscccccccccsccccccscssccccccccccccsccccccccccccccscccccsscssccsccssscsccccccccccccsscssccsccc" />
  </g>
</svg>
