<?xml version="1.0" encoding="UTF-8" standalone="no"?>
<!-- Created with Inkscape (http://www.inkscape.org/) -->

<svg
   xmlns:dc="http://purl.org/dc/elements/1.1/"
   xmlns:cc="http://creativecommons.org/ns#"
   xmlns:rdf="http://www.w3.org/1999/02/22-rdf-syntax-ns#"
   xmlns:svg="http://www.w3.org/2000/svg"
   xmlns="http://www.w3.org/2000/svg"
   xmlns:sodipodi="http://sodipodi.sourceforge.net/DTD/sodipodi-0.dtd"
   xmlns:inkscape="http://www.inkscape.org/namespaces/inkscape"
   width="210mm"
   height="297mm"
   viewBox="0 0 744.09448819 1052.3622047"
   id="svg4934"
   version="1.1"
   inkscape:version="0.91 r13725"
   sodipodi:docname="gorgona4.svg">
  <defs
     id="defs4936">
    <clipPath
       clipPathUnits="userSpaceOnUse"
       id="clipPath6379">
      <rect
         style="opacity:1;fill:#ffaaaa;fill-opacity:1;fill-rule:nonzero;stroke:none;stroke-width:4;stroke-linecap:round;stroke-linejoin:round;stroke-miterlimit:22.9260006;stroke-dasharray:none;stroke-dashoffset:0;stroke-opacity:1"
         id="rect6381"
         width="1246.3113"
         height="1757.0178"
         x="-218.37218"
         y="21.931955" />
    </clipPath>
    <inkscape:perspective
       id="perspective4111"
       inkscape:persp3d-origin="372.04724 : 350.78739 : 1"
       inkscape:vp_z="744.09448 : 526.18109 : 1"
       inkscape:vp_y="0 : 1000 : 0"
       inkscape:vp_x="0 : 526.18109 : 1"
       sodipodi:type="inkscape:persp3d" />
    <inkscape:perspective
       sodipodi:type="inkscape:persp3d"
       inkscape:vp_x="0 : 0.5 : 1"
       inkscape:vp_y="0 : 1000 : 0"
       inkscape:vp_z="1 : 0.5 : 1"
       inkscape:persp3d-origin="0.5 : 0.33333333 : 1"
       id="perspective3996" />
    <clipPath
       clipPathUnits="userSpaceOnUse"
       id="clipPath4155">
      <path
         style="opacity:1;fill:#ffffff;fill-opacity:0.96470588;fill-rule:evenodd;stroke:none;stroke-width:3;stroke-linejoin:round;stroke-miterlimit:4;stroke-dasharray:none;stroke-opacity:1"
         d="m 289.63981,700.56762 c 0,32.35773 -21.59545,58.58885 -48.23478,58.58885 -26.63933,0 -48.23478,-26.23112 -48.23478,-58.58885 0,-4.04472 -1.984,-5.67227 -1.34147,-9.48627 0.64253,-3.81399 -1.26698,-5.88585 -0.0466,-9.39058 1.2204,-3.50474 3.60645,-6.83521 5.34007,-9.95216 1.73363,-3.11695 2.45771,-4.59179 4.6399,-7.24242 2.18219,-2.65062 29.03679,-2.54845 31.6029,-4.65422 2.5661,-2.10577 1.20086,-3.56233 4.08623,-5.04471 2.88536,-1.48238 3.9499,-0.13343 7.08987,-0.91388 3.13997,-0.78046 6.03393,-6.54746 9.36385,-6.54746 3.32992,0 1.22388,-0.84014 4.36385,-0.0597 3.13997,0.78045 28.49023,-1.10421 31.37559,0.37817 2.88537,1.48238 -3.12273,4.54608 -0.55663,6.65185 2.56611,2.10577 -7.18643,4.86074 -5.00424,7.51136 2.18219,2.65063 3.08484,5.1969 4.81847,8.31385 1.73362,3.11695 -1.0589,4.30456 0.1615,7.8093 1.22041,3.50473 -1.04625,7.00516 -0.40372,10.81915 0.64253,3.814 0.97996,7.76298 0.97996,11.8077 z"
         id="path4157"
         inkscape:connector-curvature="0"
         sodipodi:nodetypes="sssssssssssssssssss" />
    </clipPath>
  </defs>
  <sodipodi:namedview
     id="base"
     pagecolor="#ffffff"
     bordercolor="#666666"
     borderopacity="1.0"
     inkscape:pageopacity="0.0"
     inkscape:pageshadow="2"
     inkscape:zoom="1.4"
     inkscape:cx="558.95576"
     inkscape:cy="982.35859"
     inkscape:document-units="px"
     inkscape:current-layer="layer1"
     showgrid="false"
     inkscape:window-width="1920"
     inkscape:window-height="1018"
     inkscape:window-x="-8"
     inkscape:window-y="-8"
     inkscape:window-maximized="1" />
  <metadata
     id="metadata4939">
    <rdf:RDF>
      <cc:Work
         rdf:about="">
        <dc:format>image/svg+xml</dc:format>
        <dc:type
           rdf:resource="http://purl.org/dc/dcmitype/StillImage" />
        <dc:title />
      </cc:Work>
    </rdf:RDF>
  </metadata>
  <g
     inkscape:label="Capa 1"
     inkscape:groupmode="layer"
     id="layer1">
    <path
       style="fill:#000000;fill-opacity:1;fill-rule:evenodd;stroke:none;stroke-width:1px;stroke-linecap:butt;stroke-linejoin:miter;stroke-opacity:1"
       d="m 396.3872,22.579147 c -21.55816,-7.462597 -47.22806,-7.160738 -68.71211,0.498082 -28.31418,10.093683 -53.84947,31.254192 -69.22955,56.305592 -10.65145,17.349302 -12.08315,39.133759 -12.39849,59.294079 -0.69568,44.47574 23.24865,131.54508 23.24865,131.54508 l 64.57863,56.30463 58.77395,-0.0279 63.15217,-56.27668 c 0,0 25.02316,-90.73195 23.7651,-137.02594 -0.49529,-18.22613 -2.4553,-37.820436 -12.27364,-53.400899 C 451.28674,54.39695 425.39196,32.619478 396.3872,22.579153 Z"
       id="path5518-1"
       inkscape:connector-curvature="0"
       sodipodi:nodetypes="ssssccccsss" />
    <path
       sodipodi:nodetypes="czsccccscsc"
       style="fill:#e68103;fill-opacity:0.96470588;fill-rule:evenodd;stroke:none;stroke-width:1px;stroke-linecap:butt;stroke-linejoin:miter;stroke-opacity:1"
       d="m 329.33545,13.858082 c -27.61669,10.20781 -54.82901,35.502164 -67.52414,56.942225 -12.69513,21.440057 -11.78548,39.576243 -12.09306,59.964513 -0.67854,44.97861 22.67595,133.03244 22.67595,133.03244 l 62.98778,56.94125 57.3261,-0.0282 61.59646,-56.91299 c 0,0 24.40673,-91.75783 23.17967,-138.57526 -0.4831,-18.43221 -2.39483,-38.248067 -11.9713,-54.004689 C 443.16421,44.063408 423.91252,24.84188 402.85167,14.84969 381.79082,4.8575007 358.9208,4.0946494 329.33545,13.858082 Z"
       id="path5518"
       inkscape:connector-curvature="0" />
    <path
       style="fill:none;stroke:#a65c45;stroke-width:0.98013729;stroke-miterlimit:22.9260006"
       inkscape:connector-curvature="0"
       stroke-miterlimit="22.926"
       d="M -216.50999,403.07666"
       id="path5035" />
    <path
       inkscape:connector-curvature="0"
       id="path3822"
       d="m 326.13062,103.2784 c 1.87237,1.52376 8.46536,12.10398 8.25594,12.5995 -14.33011,-1.99037 -35.07884,-0.0191 -35.07884,-0.0191 0,0 -43.87897,2.90517 -35.07884,-0.0191 8.80014,-2.92427 10.31696,-2.09355 15.47544,-3.14033 5.15848,-1.04678 10.26421,-2.39946 15.47543,-3.14031 7.36309,-1.04678 10.47555,-1.49515 15.47543,-3.14033 6.94973,-2.28677 10.61768,-5.167 15.47544,-3.14035 z m 22.33845,193.08425 c -5.5123,-1.08525 -12.34336,-3.21521 -15.18023,-4.73317 -4.46463,-2.38911 -4.70115,-3.21664 -1.75916,-6.15838 2.94176,-2.94151 4.90954,-2.83828 14.64351,0.76904 8.45764,3.13439 12.27303,3.52537 15.39242,1.57743 2.28113,-1.42449 7.42882,-2.10839 11.43948,-1.51981 4.01065,0.58857 11.40204,-0.64708 16.42578,-2.74601 11.01269,-4.60109 14.14329,-2.7627 5.98179,3.51251 -11.07396,8.51458 -30.93889,12.44931 -46.94481,9.29847 z m 6.48939,-18.92145 c -1.70366,-1.05282 -11.5303,-1.33628 -21.83722,-0.62989 -10.30694,0.70639 -18.73978,0.67325 -18.73978,-0.0737 0,-0.74687 6.14032,-4.16885 13.64519,-7.60434 7.50488,-3.4355 15.5703,-7.98866 17.92339,-10.11791 3.98444,-3.60548 4.76101,-3.40903 11.30714,2.86212 l 7.02896,6.73343 4.47918,-5.53113 c 4.44865,-5.49345 4.56168,-5.50394 16.62512,-1.55862 6.68038,2.18481 15.1633,4.00816 18.85088,4.05178 l 6.70493,0.0795 -5.8995,4.90817 c -4.61295,3.83768 -7.88042,4.5913 -14.9821,3.45576 -4.99537,-0.79874 -11.22464,-0.30586 -13.84286,1.09523 -6.46174,3.4579 -17.48348,4.66545 -21.26333,2.32963 z m -27.31472,-49.09349 c -2.19925,-2.19902 -3.40051,-5.55687 -2.66924,-7.462 0.7311,-1.90505 1.32928,-4.05704 1.32928,-4.78228 0,-0.72522 2.26779,1.56419 5.03949,5.08767 4.79509,6.09568 5.25813,6.20845 9.54703,2.32734 3.73981,-3.38399 5.55284,-3.60238 10.64574,-1.2822 9.34628,4.25802 5.72212,8.59852 -7.84845,9.3991 -8.80385,0.51947 -13.12137,-0.36522 -16.04382,-3.28743 z m 39.63449,-0.40331 c 0.5582,-2.94533 3.49826,-4.39487 9.99791,-4.92914 9.05229,-0.74427 9.18486,-0.89457 7.87921,-8.9404 -1.43105,-8.8176 1.50901,-10.91848 5.31869,-3.80073 3.9563,7.39191 0.39517,14.09673 -9.61428,18.10131 -11.97975,4.79301 -14.55625,4.71123 -13.58153,-0.43117 z m -21.23806,-44.70197 c -1.603,-7.86754 -2.89075,-19.66886 -2.86165,-26.22515 0.0292,-6.55628 -1.07352,-15.66835 -2.45013,-20.24916 -3.05073,-10.15104 -3.10891,-11.93626 -0.38933,-11.93626 1.16253,0 2.69404,2.95033 3.40336,6.5563 0.70934,3.60594 2.48899,11.47183 3.95463,17.47953 1.46572,6.00771 2.34831,19.41829 1.96132,29.80132 l -0.70359,18.87805 -2.91459,-14.30463 z m -43.58053,-13.11258 c 4.69733,-3.03543 10.22133,-3.03543 8.34511,0 -0.81048,1.31126 -3.82444,2.36769 -6.69754,2.34761 -4.24695,-0.0295 -4.55525,-0.46872 -1.64752,-2.34761 z m 110.63942,-7.5278 c -1.1801,-1.90924 -0.0424,-2.32475 3.69163,-1.34836 2.96847,0.77624 8.11334,0.37879 11.43304,-0.8832 6.8406,-2.60058 10.63428,-0.66966 5.3051,2.70024 -4.95461,3.1332 -18.39404,2.82493 -20.42977,-0.46866 z m -150.57671,-3.5876 c -5.59121,-2.2559 -2.9811,-6.75871 8.34963,-14.40476 12.72939,-8.58994 31.17255,-12.17754 41.72077,-8.11598 8.86751,3.41452 8.5287,-0.98346 -0.43276,-5.61719 -4.67993,-2.41985 -10.78616,-3.21353 -18.47845,-2.40174 -8.29074,0.87489 -10.16148,0.58328 -6.72019,-1.0477 6.49726,-3.0793 18.06667,-3.11411 26.76871,-0.0803 8.6453,3.0135 23.08519,20.11064 21.17941,25.07602 -2.32887,6.06826 -8.57639,6.64688 -14.24773,1.31938 -6.86516,-6.44877 -8.15221,-6.36604 -13.86073,0.89044 -5.95054,7.56429 -16.92674,8.03229 -21.89923,0.9336 -3.67518,-5.24671 -8.67081,-4.33002 -8.67081,1.59122 0,3.36421 -7.46696,4.37531 -13.70981,1.85649 z m 33.65224,-13.90411 c -0.75195,-1.95934 -2.3277,-2.96893 -3.50161,-2.24339 -3.36641,2.08042 -2.48922,5.80577 1.36716,5.80577 2.12703,0 2.9649,-1.39851 2.13449,-3.56256 z m 70.87855,2.96654 c 1.07819,-5.57284 2.00708,-10.93708 2.06418,-11.92052 0.0569,-0.98343 1.15022,-1.78808 2.42914,-1.78808 1.51084,0 1.51084,2.14196 0,6.11547 -1.27892,3.3635 -2.32531,8.72773 -2.32531,11.92053 0,3.19278 -0.92887,5.80505 -2.06417,5.80505 -1.14637,0 -1.19254,-4.505 -0.10377,-10.13245 z m 44.48895,5.17328 c -2.2949,-1.33653 -4.17254,-5.05884 -4.17254,-8.27189 0,-8.08951 -4.62462,-7.32063 -7.88279,1.31052 -2.10833,5.585 -4.15278,7.15231 -9.33007,7.15231 -3.64658,0 -6.59883,-0.80464 -6.56022,-1.78808 0.11064,-2.82969 12.52362,-15.68144 19.5731,-20.26489 6.70184,-4.35766 26.76156,-5.79052 29.05766,-2.07587 1.74689,2.82636 10.90728,5.10032 10.90728,2.70764 0,-2.96846 -18.34445,-9.57219 -26.58987,-9.57219 -4.08053,0 -11.14145,2.3002 -15.69071,5.11152 -7.83344,4.84092 -8.22565,4.8724 -7.40521,0.59603 1.64202,-8.56108 29.37238,-13.54791 44.13368,-7.93645 7.18179,2.73027 11.53485,6.83214 18.08933,17.04564 3.95033,6.15599 3.94962,6.57918 -0.0191,8.65859 -4.45866,2.33621 -13.39126,-0.0298 -15.99089,-4.2356 -2.23616,-3.61788 -8.44835,-3.1699 -8.44835,0.6094 0,3.57067 -9.85604,13.5665 -13.26728,13.45564 -1.22685,-0.0398 -4.10818,-1.16602 -6.40333,-2.50259 z m 7.15294,-14.70969 c -1.12513,-3.37518 -4.95936,-3.00397 -6.15939,0.59602 -0.43714,1.31126 0.99344,2.38411 3.179,2.38411 2.18563,0 3.52688,-1.34106 2.98039,-2.98013 z m -35.16864,-29.17429 c 0,-5.78932 17.78269,-15.336238 31.49443,-16.907841 14.06984,-1.612749 53.65425,4.404157 57.75528,8.779001 1.90067,2.02739 -1.38737,2.24763 -12.95066,0.86741 -23.33171,-2.784876 -38.68553,-1.45712 -57.62176,4.98325 -20.24046,6.88362 -18.67539,6.69266 -18.67539,2.27828 z"
       sodipodi:nodetypes="ccczasscccssssssccsssssccssccssssccsscscccccccccccscsscsccccsccccccccccssssscccsssccccsccccsssscccssscccssscccccscccccsccscsccc" />
  </g>
</svg>
