<?xml version="1.0" encoding="UTF-8" standalone="no"?>
<!-- Created with Inkscape (http://www.inkscape.org/) -->

<svg
   xmlns:dc="http://purl.org/dc/elements/1.1/"
   xmlns:cc="http://creativecommons.org/ns#"
   xmlns:rdf="http://www.w3.org/1999/02/22-rdf-syntax-ns#"
   xmlns:svg="http://www.w3.org/2000/svg"
   xmlns="http://www.w3.org/2000/svg"
   xmlns:sodipodi="http://sodipodi.sourceforge.net/DTD/sodipodi-0.dtd"
   xmlns:inkscape="http://www.inkscape.org/namespaces/inkscape"
   width="210mm"
   height="297mm"
   viewBox="0 0 744.09448819 1052.3622047"
   id="svg4934"
   version="1.1"
   inkscape:version="0.91 r"
   sodipodi:docname="medusa.svg">
  <defs
     id="defs4936" />
  <sodipodi:namedview
     id="base"
     pagecolor="#ffffff"
     bordercolor="#666666"
     borderopacity="1.0"
     inkscape:pageopacity="0.0"
     inkscape:pageshadow="2"
     inkscape:zoom="0.7"
     inkscape:cx="56.834576"
     inkscape:cy="529.77818"
     inkscape:document-units="px"
     inkscape:current-layer="layer1"
     showgrid="false"
     inkscape:window-width="1920"
     inkscape:window-height="1018"
     inkscape:window-x="-6"
     inkscape:window-y="0"
     inkscape:window-maximized="1" />
  <metadata
     id="metadata4939">
    <rdf:RDF>
      <cc:Work
         rdf:about="">
        <dc:format>image/svg+xml</dc:format>
        <dc:type
           rdf:resource="http://purl.org/dc/dcmitype/StillImage" />
        <dc:title></dc:title>
      </cc:Work>
    </rdf:RDF>
  </metadata>
  <g
     inkscape:label="Capa 1"
     inkscape:groupmode="layer"
     id="layer1">
    <path
       style="fill:#000000;fill-opacity:1;fill-rule:evenodd;stroke:none;stroke-width:1px;stroke-linecap:butt;stroke-linejoin:miter;stroke-opacity:1"
       d="M 471.83214,59.500845 266.46656,61.044356 59.554438,235.53064 22.498054,419.27802 91.983265,826.92519 284.99476,1001.4085 460.65733,1001.3219 649.40545,826.92518 720.4342,402.29333 683.75093,236.80843 471.83214,59.500834 Z M 600.83696,267.12947 c 8.40538,0.0266 16.84242,0.92481 25.14408,2.74371 14.9132,3.30751 29.04941,9.40787 41.90193,17.32503 l -11.09425,16.91003 c -10.77685,-7.59112 -22.5681,-13.7121 -35.06507,-17.30114 -11.0843,-3.22047 -22.8638,-4.48193 -34.60537,-3.84536 -23.86555,1.18733 -47.48709,10.28111 -69.82539,21.69285 -23.53808,12.0835 -45.83957,27.0375 -68.46115,41.54962 -20.64962,13.26674 -41.65255,26.70785 -64.60394,35.40539 22.33841,-10.17206 42.12512,-24.79362 61.88408,-39.35226 21.57183,-15.92051 42.94977,-32.36315 66.29956,-46.37423 22.12014,-13.33149 46.55682,-24.51712 73.36934,-27.86992 4.98203,-0.60168 10.01273,-0.90068 15.05618,-0.88372 z m -464.21705,0.0298 c 4.91047,-0.0205 9.81088,0.27466 14.66492,0.88073 25.79725,3.35561 49.09473,14.57901 69.97484,27.89977 22.1888,14.08593 42.32552,30.53196 62.77076,46.32646 19.07389,14.70893 38.32112,29.33885 60.24503,39.34927 -22.54684,-8.5195 -43.05541,-21.97344 -63.0783,-35.41434 -21.5375,-14.43181 -42.64367,-29.43906 -65.03676,-41.59738 -21.10464,-11.39417 -43.55116,-20.50632 -66.26383,-21.66897 -11.31891,-0.64364 -22.68896,0.65851 -33.39315,3.83939 -12.33835,3.62424 -23.965935,9.78533 -34.670969,17.33397 l -11.097203,-16.90705 0,-0.006 c 12.700389,-7.81177 26.655118,-13.93647 41.430192,-17.28623 8.05909,-1.80596 16.27037,-2.71542 24.45447,-2.74965 z m 49.65831,103.89045 c 1.33693,0.009 2.6741,0.0601 4.01554,0.15524 9.87493,0.81615 19.03645,3.78042 27.49672,7.38322 10.07799,4.24682 19.58465,9.16022 29.1149,13.59312 12.25138,5.69404 24.76151,10.79431 37.60571,14.86495 31.5263,10.02157 64.88166,14.10561 98.41199,14.7485 15.26237,-0.29916 30.47529,-1.31965 45.5412,-3.31094 7.42801,-0.98162 14.81564,-2.2207 22.13479,-3.71698 -0.24501,-0.10629 -0.47816,-0.23273 -0.72854,-0.32842 0.28338,0.0865 0.55424,0.2074 0.83315,0.30752 9.99874,-2.04783 19.86994,-4.58781 29.52678,-7.72655 12.44596,-4.04051 24.54443,-9.12064 36.34887,-14.83511 9.06266,-4.39122 18.0874,-9.29453 27.69669,-13.56624 7.98394,-3.59288 16.70459,-6.57512 26.18903,-7.39813 10.40732,-0.75643 20.67266,1.35451 29.96288,5.10525 13.81187,5.53851 26.09986,13.6458 37.4653,22.06903 18.17253,13.3768 35.02524,28.23989 51.38994,43.23942 l -3.02428,3.12287 c -13.3996,17.01858 -28.32343,33.37068 -45.85479,46.86086 -12.36663,9.57963 -26.53394,17.65183 -42.19146,21.58838 -12.21034,3.01798 -25.05313,3.01546 -37.09823,-0.15226 -11.43614,-3.05988 -21.80565,-8.6282 -30.99283,-15.37548 -9.48768,-6.95315 -17.87852,-15.06673 -25.63657,-23.57373 -7.55343,-8.2756 -14.52722,-16.95795 -21.41531,-25.65467 -5.88533,-7.42525 -11.62444,-14.90688 -17.99073,-21.84809 -2.39911,-2.6146 -4.88794,-5.13836 -7.61317,-7.40113 -9.48097,1.58345 -19.0199,2.71146 -28.56856,3.42739 -15.45121,1.15817 -30.91966,1.31257 -46.34134,0.73444 -33.49845,1.18433 -67.23195,-1.06894 -100.0033,-9.47607 -13.41441,-3.45433 -26.53579,-7.96589 -39.3642,-13.09156 -10.00865,-3.99599 -19.68838,-8.35131 -29.44032,-11.82567 -8.10792,-2.84875 -16.22357,-5.0634 -24.10516,-5.16198 -8.44329,-0.22492 -16.99379,2.0335 -25.01874,5.58592 -12.00461,5.32128 -22.94202,13.38679 -33.71258,22.075 -11.61895,9.43762 -22.64412,19.68252 -33.434964,30.30612 10.283824,14.29569 21.443004,27.75475 34.378374,39.20896 10.83144,9.53428 22.74126,17.76565 35.98757,22.17651 10.14173,3.4278 21.19577,4.52685 31.86157,2.78848 10.13565,-1.60621 20.02916,-5.69762 29.24326,-11.08826 9.44976,-5.54134 18.20219,-12.47607 26.52046,-19.97618 8.0622,-7.27578 15.69287,-15.12729 23.26922,-23.06022 6.46406,-6.77134 12.86334,-13.7028 19.806,-20.06575 2.72212,-2.49578 5.54598,-4.91124 8.58939,-7.013 2.38412,-1.64869 4.92956,-3.13481 7.68768,-3.97673 -2.69357,1.02955 -5.08809,2.67092 -7.33247,4.45739 -2.86004,2.27958 -5.4707,4.84614 -7.99521,7.49966 -6.4382,6.76994 -12.28934,14.0606 -18.2983,21.28683 -7.02395,8.45115 -14.15624,16.87253 -21.86304,24.8605 -7.93985,8.23597 -16.51442,16.04072 -26.15025,22.64821 -9.41355,6.46611 -19.96865,11.68385 -31.48538,14.40518 -12.24732,2.84104 -25.1861,2.52884 -37.44152,-0.70158 -15.72228,-4.20129 -29.94331,-12.42177 -42.40647,-22.13771 -14.21684,-11.01862 -26.741745,-23.89031 -38.149093,-37.46839 -0.17821,0.18207 -0.359173,0.3611 -0.537416,0.54336 l -14.07378,-14.5306 c 16.430214,-15.07705 33.403779,-29.97776 51.754159,-43.29913 11.64456,-8.50817 24.25385,-16.61379 38.36405,-22.07501 8.50588,-3.30292 17.71442,-5.27525 27.07278,-5.20677 z m 384.87062,12.73924 c -7.3752,0.0922 -14.99688,2.32252 -22.6275,5.15304 -9.28541,3.50127 -18.50403,7.85989 -28.07573,11.84658 -12.41922,5.17582 -25.15281,9.685 -38.19094,13.12437 -7.91446,2.08442 -15.90824,3.77483 -23.94397,5.1411 2.73004,2.0116 5.28701,4.26191 7.74149,6.59503 6.8853,6.54195 13.18581,13.67382 19.54326,20.65389 7.46259,8.18943 14.96578,16.30974 22.90497,23.88124 8.16775,7.78389 16.76578,15.03715 26.10545,20.91365 9.03088,5.66734 18.76056,10.08516 28.8073,11.97495 10.45106,2.01556 21.37369,1.20022 31.38999,-2.02121 13.1057,-4.13801 24.90489,-12.2119 35.63521,-21.58239 12.02339,-10.57108 22.49123,-22.91057 32.14819,-36.05623 -11.25647,-11.19254 -22.72495,-22.02058 -34.82319,-32.00488 -10.53811,-8.63442 -21.17612,-16.70255 -32.89162,-22.078 -7.63454,-3.4863 -15.74792,-5.78265 -23.72291,-5.54114 z m -365.92445,34.48586 c 17.45167,0.001 31.59731,12.73364 31.59884,28.44015 7.6e-4,15.70804 -14.14544,28.44189 -31.59884,28.44314 -17.45491,6.9e-4 -31.60557,-12.7337 -31.6048,-28.44314 0.001,-15.70788 14.15159,-28.44084 31.6048,-28.44015 z m 347.92757,0 c 17.45327,-6.9e-4 31.60335,12.73227 31.6048,28.44015 7.9e-4,15.70944 -14.14985,28.44383 -31.6048,28.44314 -17.45327,-0.001 -31.59955,-12.73511 -31.59876,-28.44314 0,-15.7065 14.14717,-28.43889 31.59876,-28.44015 z m -215.64477,13.43189 c -7.04193,4.73855 -12.86729,10.96995 -18.19077,17.52506 -6.11983,7.5452 -11.56883,15.60381 -17.03246,23.69616 -5.8852,8.72119 -11.74942,17.50689 -18.14007,26.0159 -6.47562,8.62917 -13.51815,16.98357 -21.59733,24.47537 -8.10245,7.51508 -17.31438,14.06889 -27.61913,18.83271 -11.2299,5.15703 -23.50744,7.98103 -35.91294,8.50577 -15.51396,0.63007 -30.92646,-1.98706 -45.51141,-6.35321 -19.94565,-5.93982 -38.78066,-14.8359 -56.587724,-24.89633 l 10.521004,-17.27725 c 16.30277,10.70929 33.19559,20.27992 51.13616,26.9683 13.08672,4.85768 26.65452,8.25829 40.30763,8.59234 10.82739,0.28903 21.77773,-1.38454 31.96008,-5.24259 9.39535,-3.5298 18.22414,-8.93127 26.29058,-15.39637 8.06282,-6.46609 15.38521,-14.0219 22.31086,-22.00037 6.82553,-7.86962 13.2525,-16.18189 19.7433,-24.48134 6.01538,-7.69528 12.08744,-15.43437 18.78791,-22.60941 5.81865,-6.23817 12.17823,-12.12046 19.53431,-16.35474 z m 83.36204,0.0122 c 7.3667,4.24114 13.72886,10.14906 19.54024,16.41145 6.70819,7.22019 12.77868,15.00968 18.79099,22.75571 6.49563,8.36501 12.92267,16.74391 19.74923,24.68435 6.92758,8.05227 14.24831,15.68718 22.31973,22.23622 8.06348,6.53791 16.89108,12.01708 26.29956,15.6203 10.16991,3.92659 21.12465,5.66932 31.96013,5.43068 13.63924,-0.26871 27.208,-3.62293 40.29267,-8.44906 17.93971,-6.6465 34.82364,-16.20143 51.1183,-26.90261 l 10.52099,17.27428 c -17.80278,10.06061 -36.64188,18.95392 -56.59964,24.85752 -14.5929,4.33965 -30.01447,6.90734 -45.52632,6.20691 -12.42515,-0.58328 -24.7072,-3.49021 -35.91904,-8.72372 -10.31457,-4.84633 -19.5211,-11.48129 -27.61009,-19.06857 -8.07791,-7.57414 -15.11279,-16.00408 -21.58548,-24.70525 -6.38598,-8.57878 -12.24178,-17.43318 -18.128,-26.21892 -5.45785,-8.14148 -10.90719,-16.24563 -17.0325,-23.83348 -5.31576,-6.57756 -11.13788,-12.83083 -18.19077,-17.57581 z m -21.74065,70.0226 c -0.11926,13.29913 -0.49293,26.62394 -0.0447,39.81501 0.49069,14.23767 1.72314,28.39553 5.2964,41.66307 3.26907,11.76453 8.22201,22.98672 16.35766,29.85231 3.85318,3.39871 8.46724,5.90087 13.28571,7.35335 5.79795,1.81329 12.21079,2.12948 18.71916,1.71071 l 0.0369,20.22697 c -8.3755,-0.39157 -16.9817,-2.1103 -25.0604,-5.67848 -6.82141,-3.06152 -12.90029,-7.52596 -17.77603,-13.05274 -9.68694,-11.35732 -13.99155,-25.16725 -15.69187,-38.40286 -2.0044,-14.79589 -1.45475,-29.45758 -0.13437,-43.81861 1.21813,-13.34564 3.24054,-26.48751 5.01269,-39.66873 z m -46.39818,0.006 c 1.77214,13.17975 3.79176,26.31712 5.00977,39.66276 1.32039,14.36102 1.87317,29.02372 -0.13134,43.81861 -1.70021,13.23437 -6.00806,27.0473 -15.69489,38.40584 -4.87574,5.52697 -10.95753,9.98821 -17.77883,13.04976 -8.07903,3.5684 -16.68221,5.28689 -25.05755,5.67848 l 0.0388,-20.22698 c 6.50842,0.41875 12.91555,0.10237 18.71328,-1.7107 4.81847,-1.4525 9.43242,-3.95167 13.2856,-7.35037 8.13542,-6.86498 13.09172,-18.08975 16.36068,-29.85529 3.57326,-13.26674 4.8028,-27.42482 5.29338,-41.66307 0.4483,-13.19191 0.0805,-26.50972 -0.0392,-39.80904 z m 8.05498,148.18077 c 1.56315,5.12084 1.46873,10.31118 0.0503,14.92168 -1.36961,4.0767 -3.47403,7.25107 -5.80981,9.8403 -2.12221,2.38069 -4.35294,4.30515 -6.54429,6.17109 -1.55869,1.41568 -3.17152,2.41604 -4.21556,4.14691 -0.10628,-2.01844 0.69946,-4.20939 1.21511,-6.05465 0.76278,-2.77817 1.49636,-5.50679 1.80022,-8.06692 0.3193,-2.81817 0.25329,-5.42898 -0.55827,-7.35035 -0.80888,-1.93651 -2.28421,-3.43909 -3.80362,-4.12601 l 17.86543,-9.48205 z m 24.75307,0.003 17.86543,9.48203 c -1.51953,0.68689 -2.99464,2.19258 -3.80362,4.129 -0.81157,1.92135 -0.87757,4.52938 -0.55827,7.34739 0.30386,2.5599 1.04337,5.28874 1.80626,8.06689 0.51554,1.84509 1.31568,4.03912 1.20907,6.05764 -1.04382,-1.7308 -2.65375,-2.73425 -4.21254,-4.14987 -2.19135,-1.86612 -4.4251,-3.79041 -6.54731,-6.1711 -2.33601,-2.58924 -4.44032,-5.7636 -5.80981,-9.8403 -1.41794,-4.61031 -1.51237,-9.80086 0.0503,-14.92168 z m -51.58998,51.95417 c 2.71997,-0.008 5.43614,0.0404 8.1475,0.14033 10.63935,0.47798 32.59481,14.57065 43.9918,12.08841 12.00057,-2.67598 24.27054,-5.91577 37.09811,-7.87882 6.41205,-1.00089 12.99371,-1.6065 19.62393,-1.59428 6.6301,0.0122 13.30685,0.64253 19.91346,2.11675 15.05685,3.49561 18.40121,9.342 29.24631,19.69853 7.1736,6.797 14.13766,14.18526 19.8837,22.67808 3.84065,5.55853 7.20974,12.04911 8.45796,19.43877 -0.0392,8.80969 0.48656,5.82563 -0.038,8.8103 -0.50882,2.78764 -22.31917,117.67786 -23.74986,120.07799 -3.24502,5.25409 -3.56969,8.45193 -8.39833,11.06139 -6.21202,3.43837 -12.82019,5.6229 -19.34926,7.23991 -14.22135,3.50717 -16.70157,2.84482 -24.33197,4.36784 -7.88347,1.57348 -21.95736,-8.17279 -37.45646,-9.6582 -22.27576,-0.66961 -35.412,1.43339 -57.54009,-0.70459 -20.5666,-1.98668 -26.22046,10.41655 -46.67586,7.63699 -15.09925,-2.05161 -50.97486,-15.17545 -50.97486,-15.17545 l 0.27766,-0.0955 c -10.24385,-25.31761 -37.16843,-121.88195 -31.86759,-141.20371 1.95289,-2.8819 4.02169,-5.60701 6.15318,-8.19826 14.23481,-17.64294 27.45854,-27.48637 51.00776,-41.9437 18.36035,-6.09298 37.54199,-8.84611 56.5818,-8.90286 z m -81.87514,200.24872 c 0.004,0.0112 0.0112,0.0255 0.0153,0.0358 l 4.3559,-1.55845 -4.37081,1.52261 z m 4.37081,-1.52261 6.11436,-2.12868 c 0,0 26.45408,8.06908 41.59143,9.67013 5.12747,0.54228 2.82078,0.16267 6.40098,-0.2896 3.58009,-0.45226 4.53877,-94.44227 7.71162,-94.50692 3.06646,-0.0623 14.53863,91.05228 18.1251,90.50035 3.58658,-0.55191 7.69171,-0.81471 12.83182,-0.47173 22.12406,1.47628 35.19921,1.11193 57.31924,1.11958 4.99904,7e-4 11.46591,0.72145 13.45566,1.55844 1.98985,0.83699 7.74921,-92.02485 9.14466,-92.05282 1.72549,-0.0346 8.9999,97.97011 10.94199,98.46873 2.45303,0.5971 2.35849,1.08872 1.99142,1.34946 0.32489,-0.10986 0.80082,-0.25153 1.70468,-0.4747 5.50383,-1.35881 17.18477,-4.8296 22.88125,-5.5292 6.0951,-1.74516 11.96924,-3.84266 17.07702,-6.92643 3.87075,-2.40274 25.66589,-113.40662 27.45504,-116.83869 0.82621,-1.49416 0.86067,-5.2671 1.10166,-6.91747 0.28003,-1.78096 -1.1585,-5.03179 -1.50778,-6.95629 -0.88809,-5.22841 -3.88328,-10.26444 -7.33829,-15.22022 -5.29887,-7.42322 -11.9528,-14.01128 -19.00591,-20.36431 -4.96581,-4.42349 -1.88536,-3.22666 -7.67582,-6.29348 -5.79046,-3.06681 -25.92723,92.74855 -30.44049,92.01103 -3.78226,-0.56394 2.49599,-102.96745 -3.32882,-102.77685 -5.82491,0.19056 -11.72456,0.92414 -17.59971,1.96747 -11.80837,2.13535 -23.63642,5.66495 -35.9309,8.77744 -11.59188,2.99559 -34.71433,-10.60923 -47.70278,-10.64042 -20.0993,-0.10069 -25.81424,-0.1839 -44.29626,6.62787 -3.48,1.27752 4.82101,92.85756 1.45693,94.39945 -3.36408,1.54188 -25.461,-86.06181 -28.68496,-84.26357 -3.22396,1.79824 -1.56787,1.3211 -4.62756,3.36768 -3.05966,2.04655 -6.03164,4.2156 -8.90285,6.50247 -7.94203,6.32738 -18.22122,11.81493 -21.25101,21.40027 -11.4102,36.09826 26.96231,132.79337 26.96231,132.79337 l -5.97403,2.13764 z m 185.62828,13.21694 c -0.77621,0.26267 -0.32501,0.23083 0,0 z"
       id="path5518"
       inkscape:connector-curvature="0" />
  </g>
</svg>
