<?xml version="1.0" encoding="UTF-8" standalone="no"?>
<!-- Created with Inkscape (http://www.inkscape.org/) -->

<svg
   xmlns:dc="http://purl.org/dc/elements/1.1/"
   xmlns:cc="http://creativecommons.org/ns#"
   xmlns:rdf="http://www.w3.org/1999/02/22-rdf-syntax-ns#"
   xmlns:svg="http://www.w3.org/2000/svg"
   xmlns="http://www.w3.org/2000/svg"
   xmlns:sodipodi="http://sodipodi.sourceforge.net/DTD/sodipodi-0.dtd"
   xmlns:inkscape="http://www.inkscape.org/namespaces/inkscape"
   width="210mm"
   height="297mm"
   viewBox="0 0 744.09448819 1052.3622047"
   id="svg4934"
   version="1.1"
   inkscape:version="0.91 r13725"
   sodipodi:docname="medusa2.svg">
  <defs
     id="defs4936">
    <clipPath
       clipPathUnits="userSpaceOnUse"
       id="clipPath6379">
      <rect
         style="opacity:1;fill:#ffaaaa;fill-opacity:1;fill-rule:nonzero;stroke:none;stroke-width:4;stroke-linecap:round;stroke-linejoin:round;stroke-miterlimit:22.9260006;stroke-dasharray:none;stroke-dashoffset:0;stroke-opacity:1"
         id="rect6381"
         width="1246.3113"
         height="1757.0178"
         x="-218.37218"
         y="21.931955" />
    </clipPath>
    <inkscape:perspective
       id="perspective4111"
       inkscape:persp3d-origin="372.04724 : 350.78739 : 1"
       inkscape:vp_z="744.09448 : 526.18109 : 1"
       inkscape:vp_y="0 : 1000 : 0"
       inkscape:vp_x="0 : 526.18109 : 1"
       sodipodi:type="inkscape:persp3d" />
    <inkscape:perspective
       sodipodi:type="inkscape:persp3d"
       inkscape:vp_x="0 : 0.5 : 1"
       inkscape:vp_y="0 : 1000 : 0"
       inkscape:vp_z="1 : 0.5 : 1"
       inkscape:persp3d-origin="0.5 : 0.33333333 : 1"
       id="perspective3996" />
  </defs>
  <sodipodi:namedview
     id="base"
     pagecolor="#ffffff"
     bordercolor="#666666"
     borderopacity="1.0"
     inkscape:pageopacity="0.0"
     inkscape:pageshadow="2"
     inkscape:zoom="0.35"
     inkscape:cx="313.6238"
     inkscape:cy="617.84647"
     inkscape:document-units="px"
     inkscape:current-layer="layer1"
     showgrid="false"
     inkscape:window-width="1280"
     inkscape:window-height="962"
     inkscape:window-x="-8"
     inkscape:window-y="-8"
     inkscape:window-maximized="1" />
  <metadata
     id="metadata4939">
    <rdf:RDF>
      <cc:Work
         rdf:about="">
        <dc:format>image/svg+xml</dc:format>
        <dc:type
           rdf:resource="http://purl.org/dc/dcmitype/StillImage" />
        <dc:title />
      </cc:Work>
    </rdf:RDF>
  </metadata>
  <g
     inkscape:label="Capa 1"
     inkscape:groupmode="layer"
     id="layer1">
    <g
       id="g6301"
       transform="matrix(0.60979952,0,0,0.60979952,124.59182,-6.7261766)"
       clip-path="url(#clipPath6379)">
      <g
         transform="matrix(0.99999857,-0.00169136,0.00169136,0.99999857,-950.35749,-30.274878)"
         id="g5842">
        <g
           id="g5816">
          <path
             id="path4875"
             d="m 1891.4574,1606.7126 c -11.6002,21.7506 12.2874,18.1709 17.349,17.1858 -9.8905,4.2732 -10.3327,3.9729 -25.8233,2.4666 -15.3886,-1.5925 -21.2588,-2.5591 -35.5343,-4.4509 -14.3828,-1.9032 -40.8963,-6.388 -40.8963,-6.388 8.4475,-2.8096 19.43,-2.1934 25.0107,-4.154 5.57,-1.9611 24.9791,-2.1467 44.6926,-3.1361 7.4914,-0.4006 12.4825,-1.5733 16.116,-3.2867 -0.2577,0.7417 -0.5571,1.2649 -0.8595,1.842 z"
             inkscape:connector-curvature="0"
             style="fill:#000000" />
          <path
             id="path4877"
             d="m 1831.591,1599.5195 c 4.2335,-4.1315 37.6469,-23.292 37.6469,-23.292 6.7951,0.6513 32.3063,8.3688 23.1455,28.7063 -3.6334,1.7133 -8.6245,2.8861 -16.1159,3.2867 -19.7189,0.9891 -39.1226,1.175 -44.6926,3.1361 -5.5807,1.9605 -16.5632,1.3444 -25.0107,4.154 12.2431,-7.414 23.3164,-14.1914 25.0402,-16.0389 z"
             inkscape:connector-curvature="0"
             style="fill:#000000" />
          <path
             id="path4879"
             d="m 1786.893,1601.1162 12.4626,-11.2306 0.015,-0.2745 c 15.7005,-13.6898 34.2782,-28.1255 37.7391,-29.8431 4.3102,-2.0318 7.6696,-5.2133 16.4791,-16.0169 -0.01,0.097 -0.01,0.097 0.081,0.1882 28.2763,2.229 8.6051,31.633 15.5833,32.2945 0,0 -33.408,19.1608 -37.647,23.292 -1.7381,1.8143 -12.7779,8.572 -25.0321,15.9907 -2.4495,1.499 -4.9906,2.9928 -7.5373,4.4917 l -0.5845,-0.9401 c 5.7929,-9.882 -1.8454,-21.9757 -11.5265,-17.8744 z"
             inkscape:connector-curvature="0"
             style="fill:#000000" />
          <path
             id="path4881"
             d="m 1785.5357,1578.1418 c 4.3655,0.061 7.2824,1.5913 11.2371,4.3568 3.3177,2.3734 2.8452,6.0786 2.5958,7.1555 -10.1397,8.8119 -19.1774,17.2319 -22.2525,21.7957 -1.5912,2.2761 -3.1107,3.4654 -4.5086,3.9324 -6.0022,-0.1531 -9.7868,-8.7416 -9.7817,-8.8332 l 3.4364,-11.0997 c 6.7922,-10.366 16.0502,-17.5153 19.2295,-17.391 z"
             inkscape:connector-curvature="0"
             style="fill:#000000" />
          <path
             id="path4883"
             d="m 1822.2035,1526.1937 c -16.0267,17.7705 -12.0874,15.8043 -29.3983,24.122 l -0.086,-0.097 c 0.01,-0.091 0.01,-0.091 0.1018,-0.1779 -0.3758,-1.3874 -4.5783,-2.7195 -11.8368,-3.3913 -2.9724,1.1941 -4.6655,2.0118 -6.3426,2.7386 l -0.666,-1.2201 c 4.3105,-2.0372 8.6863,-5.4316 10.9688,-8.7653 4.2697,-6.3167 9.41,-21.6035 10.5083,-28.1845 l 17.8296,-14.483 c 4.1982,-3.4044 11.644,-6.2648 13.0673,-7.1841 l 18.8361,-12.7848 c 5.1939,-3.4404 6.8294,4.7576 -3.961,13.7112 -10.7903,8.9535 -14.5034,33.2636 -18.9643,35.7676 z"
             inkscape:connector-curvature="0"
             style="fill:#000000" />
          <path
             id="path4885"
             d="m 1796.7405,1582.4968 c -3.9544,-2.7709 -6.8716,-4.2955 -11.2371,-4.3568 -3.1866,-0.092 -12.4113,7.0426 -19.2738,17.3129 l -3.4364,11.0997 c -0.092,-1.7333 0.3054,-3.8064 0.7166,-4.8797 0.5343,-1.2445 1.1493,-2.4845 1.6728,-3.7297 2.6942,-5.8596 1.7094,-12.5629 4.9983,-19.2047 1.7435,-3.4503 10.5377,-18.9857 12.2148,-21.3489 0.8486,-0.5896 6.074,-2.6673 10.3282,-7.1649 l 0.086,0.097 c 17.311,-8.3178 13.3717,-6.3516 29.3983,-24.122 24.2988,-4.5558 23.7793,6.3403 31.3454,17.6037 -8.8092,10.7983 -12.1632,13.9801 -16.4791,16.0169 -3.4609,1.7177 -22.0386,16.1533 -37.7391,29.8431 0.228,-1.1753 0.7055,-4.8749 -2.6191,-7.2216 z"
             inkscape:connector-curvature="0"
             style="fill:#000000" />
          <path
             id="path4887"
             d="m 1786.893,1601.1162 c 9.7025,-4.1001 17.3095,7.9756 11.5599,17.9519 l 0.5845,0.9401 c -13.9411,8.4149 -27.2319,16.4073 -28.0149,17.3679 -1.6674,2.0937 -9.5691,-6.364 -10.6514,-9.8865 -1.0878,-3.4256 -5.0453,-15.6692 2.4571,-20.9836 -0.01,0.091 3.7795,8.68 9.7817,8.8332 1.3979,-0.4671 2.9174,-1.6563 4.5086,-3.9325 3.0698,-4.564 12.1071,-12.9787 22.2525,-21.7956 l -0.015,0.2745 -12.4606,11.2901 z"
             inkscape:connector-curvature="0"
             style="fill:#000000" />
          <path
             id="path4889"
             d="m 1762.0585,1514.3405 c -8.8737,-0.9515 -9.113,1.6759 -9.113,1.6759 0.4226,-5.8952 0.9062,-11.2416 1.0131,-14.881 0.4693,-11.5416 -2.5607,-6.2409 12.0572,-16.8051 14.5206,-10.5642 15.9451,-17.9533 33.0028,-34.7532 2.6021,-2.5813 47.8799,-4.5991 50.4877,-7.1855 l 0.01,-0.091 c 1.5397,0.086 3.0951,-0.01 4.7414,-0.1876 7.5065,-0.6698 25.8949,-5.3789 29.8733,3.2205 2.845,6.084 4.9997,8.2031 6.2893,16.0198 1.2951,7.7198 4.7408,8.005 9.3345,8.8135 4.5994,0.8035 23.5102,1.319 27.6351,20.3983 4.1297,18.9932 3.7539,14.2358 11.5699,17.677 7.9125,3.452 11.4403,2.37 14.4627,8.3722 3.0443,5.9979 1.3825,8.0865 0.9748,11.9844 -0.9309,10.144 -8.4023,13.3648 0.7097,18.2505 5.3054,2.7548 13.9798,12.0714 10.106,17.7784 -3.7713,5.6156 -8.5199,20.4653 -8.5199,20.4653 0,0 -2.4666,11.4296 -22.2729,23.7009 -19.8015,12.1852 -20.5542,14.1465 -25.6161,15.1371 -5.0616,0.9851 -28.9492,4.5648 -17.349,-17.1858 0.3102,-0.6198 0.6206,-1.1479 0.9147,-1.7686 9.1605,-20.3322 -16.3504,-28.055 -23.1456,-28.7063 -6.9781,-0.6615 12.6931,-30.0655 -15.5832,-32.2946 -0.087,-0.091 -0.087,-0.091 -0.081,-0.1881 -7.5718,-11.2583 -7.0469,-22.1542 -31.3453,-17.6038 4.427,-2.4789 8.2415,-26.7671 19.0319,-35.7207 10.7903,-8.9535 9.1549,-17.1515 3.9609,-13.7111 l -18.836,12.7848 c -1.4236,0.9246 -8.8691,3.7796 -13.0673,7.184 l -17.8296,14.4831 c -1.1037,6.5807 -6.244,21.8674 -10.5084,28.1844 -2.2878,3.3334 -6.6583,6.7282 -10.9688,8.7654 -3.5524,1.7125 -6.9676,2.52 -8.9091,1.4119 2.9069,-1.565 5.367,-3.2524 6.5112,-4.0091 3.2171,-2.1849 3.3298,-12.472 2.2075,-16.7258 -1.3996,-5.8571 -4.9515,-13.7791 -11.7675,-14.5396 z"
             inkscape:connector-curvature="0"
             style="fill:#000000" />
          <path
             id="path4891"
             d="m 1751.9926,1549.3653 c -1.041,-5.702 0.079,-20.7552 0.9646,-33.3644 0,0 0.2392,-2.6275 9.1129,-1.676 6.79,0.7428 10.3462,8.6867 11.7481,14.5007 1.1223,4.2538 1.0096,14.5409 -2.2075,16.7258 -1.1438,0.7513 -3.6039,2.4387 -6.5111,4.0092 -5.4572,2.9341 -12.1253,5.3143 -13.1154,-0.1418 z"
             inkscape:connector-curvature="0"
             style="fill:#000000" />
          <path
             id="path4895"
             d="m 1276.7482,3049.0551 c 10.7256,21.3668 32.4205,30.782 49.0997,36.9023 16.7913,6.0455 49.202,36.908 85.916,-8.8378 36.7141,-45.7457 38.7274,-52.4644 42.7534,-62.5212 3.6043,-9.0867 16.6944,-36.1218 20.1125,-61.4314 8.2621,15.126 21.1025,31.2379 25.5687,47.6037 6.1511,23.2973 7.9684,47.8907 7.1569,71.9802 -1.0714,30.2639 -7.6451,60.03 -12.8737,89.7907 -9.7237,56.4571 -19.3613,113.0162 -31.8747,168.9495 -8.9846,40.108 -27.7833,78.1208 -32.5346,118.9145 -3.6836,31.5808 4.3632,63.539 7.5917,95.2268 2.5692,24.1874 7.1398,48.0279 9.7949,72.1282 4.777,42.9755 15.0284,85.9826 12.604,129.1967 -1.7262,30.7672 -9.7751,62.2814 -24.8523,89.1186 -17.3091,30.811 -39.699,61.6017 -70.0425,79.757 -16.1978,9.6547 -39.2497,3.3443 -56.6809,-4.098 -9.5238,-3.9961 -11.9773,-17.0572 -15.7113,-26.7393 -10.9089,-28.1115 -25.7244,-55.994 -27.9575,-86.076 -2.9531,-39.7732 9.2842,-79.3314 12.6936,-119.1149 4.9264,-56.9099 7.8558,-113.9372 12.2277,-170.8781 2.1332,-28.1089 4.0568,-56.1378 7.2613,-84.0894 2.8447,-24.618 12.9513,-48.8179 11.0581,-73.5991 -2.1618,-28.0799 -14.5246,-54.534 -23.0231,-81.4248 -7.1125,-22.6222 -15.5262,-44.7666 -23.8323,-66.905 -6.031,-15.9081 -16.3255,-30.4244 -19.3938,-47.16 -3.5347,-19.7806 -2.8255,-40.5059 0.017,-60.3716 3.7693,-26.5643 15.3911,-60.0599 21.9559,-86.1056 4.3154,17.4158 8.7733,31.3293 13.0488,39.8319 z"
             inkscape:connector-curvature="0"
             style="fill:#000000" />
          <path
             id="path4897"
             d="m 1044.6456,1066.8369 c 1.6239,19.668 3.1715,42.4263 4.2764,66.5314 -4.2299,-31.744 -7.133,-64.4181 -7.6525,-97.3203 0.688,10.8397 1.8937,21.1144 3.4049,30.7581 z"
             inkscape:connector-curvature="0"
             style="fill:#000000" />
          <path
             id="path4899"
             d="m 839.52196,2194.2472 c 9.94464,9.3932 7.52932,20.0048 6.09115,21.285 -1.4439,1.3826 -4.51353,2.4795 -8.74629,-1.4898 -0.43198,-0.3861 -1.04182,-0.9711 -1.82424,-1.5605 3.87344,-7.338 4.36644,-6.4031 5.14486,-12.192 0.27456,-1.6209 -0.0605,-3.7351 -0.75132,-6.0529 l 0.0538,0 z"
             inkscape:connector-curvature="0"
             style="fill:#000000" />
          <path
             id="path4901"
             d="m 840.41297,2178.3656 c 3.83212,1.4841 5.13799,0.9256 7.66937,-3.6687 2.53137,-4.5942 0.29139,-13.2798 -1.40569,-17.1067 0.82802,-0.2236 7.56072,12.8994 8.0936,19.6691 0.0302,1.098 -0.0154,1.911 -0.23922,2.6275 -1.74654,5.1405 -7.21507,1.5394 -14.06271,-1.5451 z"
             inkscape:connector-curvature="0"
             style="fill:#000000" />
          <path
             id="path4903"
             d="m 810.5881,2274.874 c 0.68058,7.41 -4.90504,7.9175 -8.50846,5.5335 -1.49374,-1.0019 -2.79483,-2.0686 -4.10608,-3.1467 2.20059,-1.8747 4.28458,-3.3077 5.01196,-6.5505 0.71736,-2.9678 1.0835,-4.6808 1.03758,-7.1353 1.02537,0.9757 5.99782,3.7929 6.54704,11.3304 z"
             inkscape:connector-curvature="0"
             style="fill:#000000" />
          <path
             id="path4905"
             d="m 839.46812,2194.2442 c 0.69085,2.3178 1.02558,4.4374 0.75132,6.0529 -0.77812,5.7836 -1.27112,4.8486 -5.14486,12.192 -7.14527,-5.769 -27.73107,-20.3226 -31.07509,-22.3248 0.51922,-4.3453 0.58077,-8.6191 0.58077,-8.6191 0.5241,-4.5286 1.83624,-11.6485 2.98075,-19.0533 0.87907,0.503 17.93334,13.0277 22.77165,16.1183 3.60292,2.2003 7.61575,9.6081 9.2216,15.6388 z"
             inkscape:connector-curvature="0"
             style="fill:#000000" />
          <path
             id="path4907"
             d="m 848.07187,2174.6909 c -2.53138,4.5943 -3.84263,5.1526 -7.66936,3.6687 -3.83213,-1.4841 -12.20111,-8.1588 -13.93474,-9.698 -1.73242,-1.5608 -5.16276,-5.3932 -7.42951,-7.2485 -2.26105,-1.8604 -0.71137,1.321 -10.31047,-7.6856 0.24405,-2.7136 0.48327,-5.341 0.621,-7.7959 0.31562,-8.8986 1.05955,-18.8856 1.16731,-27.2558 l 0.0915,0.01 c 0,0 8.04399,10.8311 9.70512,13.6624 1.66144,2.8259 5.99594,9.9871 13.43117,12.2243 7.34317,2.1455 11.23028,9.1953 12.92766,13.0169 1.72666,3.8772 3.99507,12.5373 1.41434,17.145 z"
             inkscape:connector-curvature="0"
             style="fill:#000000" />
          <path
             id="path4909"
             d="m 807.55084,2162.4806 c -1.1445,7.4047 -2.45664,14.5246 -2.98074,19.0532 0,0 -0.0562,4.2741 -0.58077,8.6191 -0.38148,3.5267 -1.03728,7.1299 -2.36398,8.06 -2.85101,2.2055 -7.37935,0.04 -10.36206,-3.5895 -3.07424,-3.6342 -3.98382,-5.2298 -4.51699,-7.0851 -0.625,-1.855 -1.83876,-12.7566 -0.91293,-16.2636 1.01644,-3.4857 1.26622,-7.9379 7.39558,-10.0513 6.06089,-2.1442 11.8892,-0.143 14.29619,1.2341 z"
             inkscape:connector-curvature="0"
             style="fill:#000000" />
          <path
             id="path4911"
             d="m 769.60972,2086.9587 c 2.17409,9.9563 4.15801,32.9281 3.67415,44.8253 l -0.0915,-0.01 c -8.84146,-14.5212 -15.03016,-29.1583 -17.20879,-43.9429 0.57455,-2.155 9.34161,-7.4849 12.22936,-11.7892 l 0.38607,-0.4319 c 0.0487,3.9451 0.15726,7.7856 0.98381,11.3423 z"
             inkscape:connector-curvature="0"
             style="fill:#000000" />
          <path
             id="path4913"
             d="m 773.6831,2158.7443 c -0.9669,9.1482 11.96016,25.4486 13.04795,28.777 l -25.87663,-19.3005 c 0,0 -28.54203,-38.2116 -32.23588,-46.9733 l -0.0915,-0.01 c 0.0422,-13.7474 0.74474,-26.2696 1.59385,-28.4092 2.36314,-1.5956 5.51952,-2.6984 12.94932,-2.0007 4.89418,0.4581 9.2498,-0.9392 12.91428,-3.0127 2.17862,14.7847 8.36733,29.4217 17.20879,43.9429 l 0.0915,0.01 c -0.1477,2.6325 -0.35671,4.7216 -0.70739,6.0629 -2.04397,7.5541 2.2009,11.7886 1.14908,20.9105 z"
             inkscape:connector-curvature="0"
             style="fill:#000000" />
          <path
             id="path4915"
             d="m 804.04106,2263.5437 c 0.0459,2.4544 -0.3256,4.1671 -1.03757,7.1352 -0.72708,3.2374 -2.81138,4.6758 -5.01197,6.5505 -1.73217,-1.4689 -3.38418,-2.9225 -5.03052,-4.3812 -2.8712,-2.4401 -25.84129,-18.294 -29.61149,-20.8818 -3.67929,-2.5719 -9.70119,-8.8233 -12.17032,-13.6171 -2.45412,-4.8685 -32.94267,-45.8301 -36.63223,-48.2189 -3.78133,-2.4858 -6.76833,-10.8514 -8.36387,-14.9481 -1.4935,-4.1828 -9.04706,-35.1142 -15.48065,-40.5733 0.51378,-2.612 1.01734,-5.1382 1.52629,-7.6641 0.88445,-4.4058 0.31019,-7.1653 -0.0753,-13.2895 -0.2127,-2.6582 0.85539,-8.7009 4.03743,-15.1704 l 0.0915,0.01 c 8.55323,1.7544 18.54492,2.2232 26.27524,-0.7995 3.8065,-1.4282 5.28569,-3.3434 7.55786,-4.8577 -0.84911,2.1396 -1.55165,14.6618 -1.59386,28.4092 0.0453,4.1016 0.17164,8.2995 0.30883,12.3035 0.57736,15.6994 2.90313,29.4014 4.4887,32.0394 1.48836,2.638 3.12444,9.1888 6.94086,12.5892 3.82095,3.3197 15.29474,19.5332 19.69025,27.2433 4.38982,7.7152 10.11658,17.6873 12.26015,23.2783 5.54968,1.7695 14.57483,9.6475 15.37289,10.0542 0.88446,0.5032 6.92146,4.8491 7.66365,6.2517 0.83286,1.3266 5.07095,7.0298 5.64006,8.2444 0.65526,1.2195 2.79399,6.8966 3.09877,9.6464 0.0297,0.4337 0.12828,0.6012 0.11922,0.7627 z"
             inkscape:connector-curvature="0"
             style="fill:#000000" />
          <path
             id="path4917"
             d="m 763.7282,2045.4766 c 0.37092,1.5708 3.77934,13.7836 4.41945,18.6422 0.43169,3.6642 0.39007,7.5826 0.44565,11.5011 l -0.38607,0.432 c -2.88236,4.3046 -11.65481,9.6342 -12.22935,11.7891 -3.66986,2.0732 -8.02549,3.4706 -12.91428,3.0127 -7.4301,-0.6923 -10.58618,0.4052 -12.94932,2.0007 -2.26679,1.5146 -3.74597,3.4298 -7.55785,4.8577 -7.73063,3.0281 -17.72232,2.5593 -26.27525,0.7995 2.7703,-5.5799 7.28927,-11.429 14.08983,-15.7837 14.82574,-9.4562 19.99053,-20.3672 20.24969,-21.7136 0.25945,-1.3518 6.97733,3.8532 20.60008,-14.8676 6.30791,-8.665 8.66133,-11.6275 9.43941,-12.4047 1.03337,2.7582 2.01841,6.3778 3.17296,11.7891 z"
             inkscape:connector-curvature="0"
             style="fill:#000000" />
          <path
             id="path4919"
             d="m 676.05917,2271.0529 c -1.22462,-0.8896 -6.53024,-3.7363 -9.21356,-2.9796 l -0.0915,-0.01 c -1.25429,-10.083 -6.09171,-21.3715 -5.41483,-26.8906 0.69204,-5.8856 -7.2285,-30.2759 -9.14371,-35.0278 -0.95006,-2.5106 -3.70866,-10.1343 -4.40464,-15.6333 0.31079,-5.5397 0.292,-13.2905 0.93233,-18.1583 1.15507,-9.2295 8.18404,-56.6407 8.49083,-71.8313 0.22041,-15.2874 3.28038,-21.1211 6.40196,-26.4167 16.26623,-27.046 25.6617,-56.4756 44.73298,-81.5388 69.21025,-90.9127 58.05268,-75.5099 69.86925,-167.7307 6.54595,-40.342 17.74803,-179.9437 24.73336,-242.7489 6.89381,-62.8102 38.73907,-151.6284 58.54938,-191.4044 19.70827,-39.6899 14.83803,-113.54 15.79066,-130.5198 0.95716,-17.0606 3.05572,-54.4658 2.75178,-109.1146 -0.39516,-54.6594 -2.43265,-102.7629 1.49271,-163.00701 3.63026,-56.62074 10.58736,-94.56881 23.70092,-149.74482 14.54773,-61.19814 71.41172,-100.98532 112.93471,-110.67732 5.9971,-1.39171 11.2574,-2.64655 15.8719,-3.8458 27.5361,-7.10138 33.864,-11.21261 53.0552,-18.87397 22.4444,-8.85059 35.3338,-16.23365 56.6196,-30.42556 16.366,-10.91978 35.8827,-21.20375 56.265,-40.37164 42.2889,-39.61119 36.3252,-106.9664 28.5728,-137.62811 25.4636,29.84079 48.8194,46.9045 76.877,61.4075 20.5819,6.34463 35.4421,7.7292 53.9123,-0.0752 29.4174,-14.7402 77.5317,-63.94535 99.3026,-98.23783 -19.3416,78.58894 -7.1049,134.91715 31.7223,179.53289 27.5423,31.86921 74.048,43.58364 108.8956,52.18677 16.4355,4.10841 35.3868,5.53887 53.6018,7.19266 20.4812,1.78634 39.7519,3.78018 52.9803,9.89587 24.9374,11.68709 82.9576,40.62176 87.1517,120.1693 4.1777,79.55202 6.5496,139.69582 -2.7227,246.53817 -9.1757,105.0225 -9.9817,172.9105 -7.7227,199.3541 6.8952,53.9277 10.8017,70.3539 11.1099,85.9409 0.3341,15.3185 -5.5132,35.0264 11.9816,57.4102 0.3461,0.4731 0.7625,1.0419 1.1947,1.5198 0.1674,0.193 0.2538,0.2897 0.3296,0.4775 6.7838,10.5768 9.0397,14.1651 9.0397,14.1651 0,0 15.2762,8.5042 33.3236,8.334 l -0.01,0.092 c -2.6077,2.5863 -47.8856,4.6041 -50.4877,7.1854 -17.0577,16.8 -18.4821,24.189 -33.0028,34.7533 -14.6179,10.5642 -11.5881,5.2688 -12.0571,16.805 -0.1067,3.634 -0.5959,8.9855 -1.0131,14.8811 -0.8857,12.6091 -2.0056,27.6624 -0.9646,33.3644 0.9754,5.4282 7.6639,3.0708 13.1073,0.1899 1.9414,1.108 5.3566,0.3005 8.909,-1.412 l 0.6661,1.2201 c -2.7193,1.3974 -5.4488,2.8806 -14.2364,7.0375 -22.5353,7.2955 -58.1701,-5.1808 -65.9002,-6.9754 -7.8267,-1.8054 -53.2891,-27.3029 -55.0241,-53.1716 -1.6945,-24.9537 0.1723,-37.146 -3.8606,-61.0428 -4.3698,-48.6933 -13.1898,-118.8497 -18.0732,-166.4755 -9.1572,36.7337 -26.9767,88.0003 -27.1766,145.1808 -0.1644,64.8242 35.0243,154.9459 41.9574,188.7534 6.9332,33.8074 10.1776,99.2873 11.5413,136.8759 1.2452,37.6792 5.2979,148.9145 2.3392,201.6522 -2.9588,52.7376 -6.972,124.2693 -9.2468,194.0786 -2.1991,69.9053 -10.6347,155.4788 -18.1774,202.2293 -7.4566,46.7553 -29.4174,99.0641 -36.5006,134.5424 -7.1809,35.3919 -31.1443,128.0167 -35.9243,153.3417 -4.8924,25.3078 -48.2896,159.4688 -56.0511,206.8443 -7.7503,47.3707 -13.3964,86.305 -14.9244,113.5406 -0.1372,2.4441 -0.3664,4.8939 -0.7782,7.4198 -3.4181,25.3096 -16.5082,52.3447 -20.1125,61.4314 -4.026,10.0568 -6.0339,16.7758 -42.7534,62.5212 -36.7194,45.7455 -69.1304,14.8884 -85.916,8.8378 -16.6737,-6.12 -38.3738,-15.5408 -49.0997,-36.9022 -4.2641,-8.5129 -8.7597,-22.4285 -12.9702,-39.7898 -3.2062,-12.8333 -6.2032,-27.5667 -8.9652,-43.1186 -4.4639,-25.9353 -10.0319,-50.0965 -9.9281,-64.9421 0.026,-5.3667 0.1842,-11.3686 0.3524,-17.64 1.3564,-35.535 5.0312,-83.2262 5.6046,-119.437 0.6654,-42.6647 6.8444,-76.4656 14.493,-120.3857 7.5676,-44.0164 7.8005,-77.2382 10.8115,-101.8361 2.9302,-24.6025 1.4236,-86.9821 0.9329,-107.4993 -0.5768,-20.522 -0.9791,-104.2204 -5.6859,-142.0938 -4.712,-37.7819 2.1345,-83.4805 5.9181,-105.486 3.6921,-22.0107 6.6101,-26.9505 21.9465,-56.8677 1.6372,-3.0944 3.6345,-6.3523 6.1912,-9.6652 -18.3966,-8.042 -44.2342,-11.7706 -72.5017,-7.8048 11.5641,27.6947 17.1766,55.7791 14.2723,73.4703 -3.9416,24.8211 -3.5536,55.2533 -14.3938,94.2635 -10.7533,39.096 -13.6996,245.8197 -15.0038,269.0661 -1.3033,23.2301 0.564,173.3239 -3.1781,194.6837 -3.57,19.8357 9.9794,102.9162 10.1425,138.8983 0.031,2.729 -0.1072,5.1839 -0.2289,7.3535 -2.3418,30.3816 -12.6885,110.9387 -20.4699,157.1304 -7.7811,46.089 -4.6821,101.2619 0.8177,137.9971 5.5911,36.6484 12.549,76.5599 13.5207,112.8574 l 1.4681,51.8033 -13.2679,113.0826 c 0,0 -17.4393,280.0384 -22.7178,312.5181 -5.2894,32.4791 10.995,65.272 10.995,65.272 0,0 8.2359,22.0426 26.4193,66.2292 18.2908,44.1009 0.071,91.3378 -10.0964,120.0869 -10.27,28.7487 -4.7542,144.6134 4.138,202.0285 8.8871,57.4094 -39.6888,61.5158 -72.7541,66.5788 -32.9738,5.0682 -87.4028,-8.3653 -117.3961,-27.2542 -29.99273,-18.8995 8.2216,-70.2101 8.2216,-70.2101 0,0 10.1283,-42.5874 11.9623,-75.2765 1.8282,-32.5869 29.4744,-155.2373 22.0064,-176.3349 -7.4689,-21.0815 -19.1483,-57.9852 -15.7857,-87.116 3.3628,-29.1362 -8.3345,-88.4369 -12.1216,-123.1642 -3.7922,-34.6357 -19.191,-128.648 -26.7708,-198.0975 0,0 -14.90545,-133.6084 -30.50073,-194.8559 -15.50889,-61.1508 -14.58046,-178.3875 -8.90899,-217.7741 5.66603,-39.2896 6.33441,-104.82 18.42519,-196.9228 l 0.37127,-0.1682 c -1.83421,-4.6556 -3.46001,-9.7531 -4.86713,-15.4756 -14.00487,-55.4229 -15.8496,-144.3111 -15.27935,-154.4754 0.57538,-10.2557 -10.86469,-137.4806 -17.77785,-170.1043 -6.9186,-32.5267 -15.40084,-71.1627 -21.31804,-107.0032 -5.91152,-35.8456 -32.8323,-119.2226 -62.38422,-257.9299 -2.80875,-13.2755 -5.01794,-29.0556 -6.37827,-47.0671 -3.63308,-48.8302 -0.91694,-113.5112 12.72724,-184.5944 21.14475,-110.729 54.72357,-204.4562 64.62804,-239.7816 4.31194,-15.0578 14.99793,-43.2323 28.07786,-75.1879 28.80411,-70.3245 68.84698,-159.1364 75.37898,-168.4261 9.5004,-13.4921 33.219,-59.7834 42.4665,-85.0359 17.1935,-46.7491 -21.306,-160.6407 -38.4486,-290.1837 -1.1049,-24.1052 -2.6526,-46.8635 -4.2764,-66.5315 -1.5539,-9.6515 -2.7064,-19.9124 -3.3707,-30.7885 0.5195,32.9022 3.4226,65.5762 7.6524,97.3203 2.175,47.2902 2.8598,99.9623 -0.195,146.3273 -5.2692,79.2866 -24.4514,137.1302 -24.7533,157.1439 -0.6658,42.6701 -38.79897,141.337 -47.34419,160.5209 -3.02462,6.8402 -15.73389,37.002 -31.22398,74.4714 -27.60426,66.7464 -64.17123,156.9414 -71.02994,180.1407 -16.45125,44.879 -17.94559,45.5242 -22.55183,59.4746 -4.52494,14.0413 -5.42168,34.9343 -3.82728,47.1372 1.68054,12.2076 2.3044,23.8052 2.3044,23.8052 0,0 0.98224,31.2 -6.59644,41.3382 -7.67051,10.1385 -10.26912,23.9207 -19.7644,37.3214 -9.58656,13.4873 -15.63664,35.2685 -14.03197,44.0155 0.62983,3.4053 0.81716,8.1521 0.60332,13.6 -0.10776,8.3702 -0.846,18.3522 -1.16731,27.2558 -0.13773,2.455 -0.37694,5.0824 -0.62099,7.796 -0.34584,2.8915 -0.78864,5.8747 -1.22092,8.7667 -2.38394,-1.4028 -8.18685,-3.3756 -14.32189,-1.2571 -6.12906,2.108 -6.37885,6.5602 -7.39559,10.0513 -0.92583,3.507 0.28793,14.4086 0.91293,16.2636 -1.08779,-3.3283 -14.01485,-19.6287 -13.04796,-28.777 1.05782,-9.1323 -3.16461,-13.3818 -1.1057,-20.9135 0.35068,-1.3412 0.55969,-3.4303 0.70739,-6.0629 0.48386,-11.8972 -1.50576,-34.8639 -3.67416,-44.8253 -0.8029,-3.5932 -0.94946,-7.4304 -1.00535,-11.3435 -0.0556,-3.9186 -0.014,-7.837 -0.44565,-11.5012 -0.64011,-4.8586 -4.04823,-17.0768 -4.41945,-18.6421 -1.14796,-5.4326 -2.13361,-9.0414 -3.06801,-11.7347 -0.7727,0.7775 -3.1315,3.7397 -9.43941,12.4047 -13.62275,18.7208 -20.34062,13.5158 -20.60008,14.8676 -0.25916,1.3464 -5.42425,12.2627 -20.24969,21.7136 -6.80056,4.3547 -11.31953,10.2038 -14.08983,15.7838 l -0.0915,-0.01 c -3.18204,6.4695 -4.25521,12.5065 -4.03743,15.1704 0.38549,6.1243 0.95974,8.8837 0.0753,13.2896 -0.50357,2.5262 -1.01221,5.0467 -1.5263,7.6641 -2.161,10.9877 -4.72855,22.6762 -9.08072,33.6381 -2.55156,6.4941 -5.54628,14.4377 -6.91375,19.3673 2.48488,4.4166 0.25433,0.3761 4.67924,9.006 4.34502,8.7064 7.1983,30.8142 4.27033,37.568 -2.92313,6.6677 3.63165,16.4162 4.25091,20.0099 0.52865,3.5724 1.69226,7.1858 2.62203,11.7906 1.01022,4.6148 0.28254,11.1356 -1.2574,15.8665 -1.08778,3.217 -6.78546,5.7219 -8.02089,6.5652 0.3923,-5.2597 0.58077,-8.619 -0.18136,-11.3026 -0.97047,-2.9168 -4.07377,-5.3591 -5.20681,-6.3408 z"
             inkscape:connector-curvature="0"
             style="fill:#000000" />
          <path
             id="path4921"
             d="m 666.83067,2268.0509 c 2.68331,-0.7568 7.98356,2.0896 9.21356,2.9795 1.12826,0.9706 4.26864,3.4258 5.03077,6.1094 0.76213,2.6837 0.57366,6.043 0.18136,11.3027 -0.35586,1.53 -0.52838,3.0649 -1.42365,5.931 -2.31808,7.2416 -6.82026,3.1655 -6.82026,3.1655 0,0 -5.1716,-16.5944 -5.94286,-27.2011 -0.0507,-0.7319 -0.18279,-1.5548 -0.32476,-2.2972 z"
             inkscape:connector-curvature="0"
             style="fill:#000000" />
          <path
             style="fill:none;stroke:#a65c45;stroke-width:3.05675554;stroke-miterlimit:22.9260006"
             inkscape:connector-curvature="0"
             stroke-miterlimit="22.926"
             d="m 991.70228,2928.8328 c -12.08575,92.1084 -12.75923,157.6331 -18.42525,196.9227 -5.67176,39.392 -6.59986,156.6233 8.9091,217.7741 15.59515,61.2475 30.50067,194.856 30.50067,194.856 7.5798,69.4495 22.9786,163.4618 26.7709,198.0976 3.7869,34.7271 15.4842,94.0279 12.1214,123.164 -3.3626,29.131 8.3168,66.0346 15.7857,87.1161 7.4681,21.0976 -20.1781,143.748 -22.0064,176.3348 -1.8336,32.6838 -11.9622,75.2766 -11.9622,75.2766 0,0 -38.2143,51.3106 -8.2217,70.2102 29.9931,18.8942 84.4224,32.3223 117.3963,27.2541 33.0651,-5.0629 81.6412,-9.1693 72.754,-66.5789 -8.8923,-57.415 -14.4076,-173.285 -4.138,-202.0284 10.1672,-28.749 28.3872,-75.9859 10.0964,-120.0869 -18.1834,-44.1867 -26.4192,-66.2292 -26.4192,-66.2292 0,0 -16.2848,-32.7876 -10.9952,-65.272 5.2786,-32.4796 22.7179,-312.5181 22.7179,-312.5181 l 13.2678,-113.0826 -1.4681,-51.8033 c -0.9716,-36.2976 -7.9295,-76.2089 -13.5206,-112.8575 -5.4997,-36.7351 -8.5988,-91.9079 -0.8178,-137.997 7.7762,-46.192 18.128,-126.7434 20.4699,-157.1304 0.1218,-2.1696 0.2595,-4.6245 0.2297,-7.3535 -0.163,-35.9821 -13.7124,-119.0626 -10.1424,-138.8983 3.7475,-21.3594 1.8749,-171.4535 3.1782,-194.6837 1.3039,-23.241 4.2504,-229.9701 15.0041,-269.0661 10.8401,-39.0101 10.4522,-69.4423 14.3937,-94.2634 2.9044,-17.6913 -2.7081,-45.7757 -14.2723,-73.4703 -4.5677,-11.0898 -10.1416,-22.1496 -16.488,-32.34 -22.1236,-35.756 -34.3435,-63.1202 -68.5357,-114.2104 -34.1917,-51.0955 -43.8719,-63.6602 -70.506,-80.7242"
             id="path4975" />
        </g>
        <g
           id="g5362"
           transform="matrix(1.8987967,0.10652916,-0.10652916,1.8987967,-1301.4312,883.78542)">
          <path
             style="fill:none;stroke:#e68103;stroke-width:4;stroke-miterlimit:22.9260006;stroke-dasharray:none;stroke-opacity:1"
             inkscape:connector-curvature="0"
             stroke-miterlimit="22.926"
             d="m 1721.9329,260.05832 c -7.6013,6.88402 -13.8616,12.95432 -17.4454,17.54461 -2.2512,2.82109 -3.4477,5.25941 -6.5097,6.92938 -1.8571,1.00652 -4.4429,1.76921 -8.3641,2.20017 -10.3232,1.10008 -20.5046,1.7692 -23.371,2.96285 -2.8722,1.19364 -8.6561,1.19364 -13.0082,2.91748 0,0 14.0515,1.57641 21.6585,2.14913 7.5504,0.57273 10.6606,0.90729 18.7865,1.29005 8.1769,0.33739 8.4179,0.47916 13.4845,-2.05557"
             id="path4923" />
          <path
             style="fill:none;stroke:#e68103;stroke-width:4;stroke-miterlimit:22.9260006;stroke-dasharray:none;stroke-opacity:1"
             inkscape:connector-curvature="0"
             stroke-miterlimit="22.926"
             d="m 1622.16,241.94099 c 0,0 0.048,-1.38644 4.7349,-1.14828 3.5866,0.18996 5.6875,4.25573 6.5948,7.26678 0.7145,2.20016 0.9583,7.60418 -0.6663,8.84602 -0.5784,0.42813 -1.8202,1.38644 -3.3002,2.29656 -2.7729,1.67281 -6.2121,3.10745 -6.8869,0.28637 -0.7088,-2.92033 -0.567,-10.85906 -0.482,-17.52193 0.048,-3.10745 0.1446,-5.92854 0.094,-7.84234 -0.094,-6.07313 -1.5282,-3.20101 5.835,-9.17774 7.3121,-5.9739 7.8423,-9.89507 16.3027,-19.21742 1.2901,-1.4318 25.0014,-3.82477 26.2942,-5.25941"
             id="path4925" />
          <path
             style="fill:none;stroke:#e68103;stroke-width:4;stroke-miterlimit:22.9260006;stroke-dasharray:none;stroke-opacity:1"
             inkscape:connector-curvature="0"
             stroke-miterlimit="22.926"
             d="m 1644.3601,238.17009 8.9339,-8.1287 c 2.1038,-1.91096 5.9285,-3.63197 6.6487,-4.15649 l 9.5123,-7.26678 c 2.6255,-1.95917 3.7255,2.29656 -1.6756,7.31498 -5.4012,5.01841 -6.6884,17.882 -8.9396,19.31381"
             id="path4927" />
          <path
             style="fill:none;stroke:#e68103;stroke-width:4;stroke-miterlimit:22.9260006;stroke-dasharray:none;stroke-opacity:1"
             inkscape:connector-curvature="0"
             stroke-miterlimit="22.926"
             d="m 1647.5923,189.60204 c 0.094,0.0964 0.1418,0.1446 0.1871,0.24099 3.873,5.35298 5.163,7.17038 5.163,7.17038 0,0 8.2705,4.01474 17.7403,3.39381 0.8109,0 1.6246,-0.0964 2.4837,-0.23816 3.9211,-0.57272 13.4363,-3.58661 15.7782,0.81089 1.6728,3.11028 2.8665,4.15933 3.7737,8.2251 0.9073,4.01473 2.7247,4.06293 5.1602,4.35212 2.4383,0.28637 12.3816,0 15.1091,9.89507 2.7276,9.84971 2.3902,7.36318 6.5949,8.93959 4.2557,1.57924 6.0759,0.90728 7.8395,3.96936 1.7748,3.05925 0.964,4.2047 0.8647,6.2631 -0.1899,5.35298 -4.0175,7.26394 0.9101,9.56051 2.8665,1.29004 7.6949,5.9257 5.8293,9.03598 -1.8145,3.05925 -3.8701,10.99515 -3.8701,10.99515 0,0 -0.9583,6.07313 -10.9951,13.09892 -10.0369,6.98041 -10.3743,8.0323 -13.0026,8.70142 -2.6282,0.66628 -15.0637,3.24921 -9.6143,-8.51146 0.1446,-0.33456 0.292,-0.62092 0.4281,-0.95549 4.2104,-10.94411 -9.4103,-14.24719 -12.9969,-14.38896 -3.683,-0.14176 5.7783,-16.15816 -9.1323,-16.49556 -0.048,-0.0454 -0.048,-0.0454 -0.048,-0.0964 -4.3068,-5.68754 -4.3522,-11.42328 -16.9748,-8.31867 -7.8905,9.80151 -5.8803,8.65323 -14.7235,13.52988"
             id="path4929" />
          <path
             style="fill:none;stroke:#e68103;stroke-width:4;stroke-miterlimit:22.9260006;stroke-dasharray:none;stroke-opacity:1"
             inkscape:connector-curvature="0"
             stroke-miterlimit="22.926"
             d="m 1594.7146,194.67716 c 7.3632,-8.84602 7.1251,-8.79782 12.8608,-10.85339 5.7357,-2.0584 12.8636,-4.01473 16.4927,-3.91833 3.3882,0.0964 17.9274,4.06293 22.8494,8.93958"
             id="path4931" />
          <path
             style="fill:none;stroke:#e68103;stroke-width:4;stroke-miterlimit:22.9260006;stroke-dasharray:none;stroke-opacity:1"
             inkscape:connector-curvature="0"
             stroke-miterlimit="22.926"
             d="m 1629.475,259.20774 0.048,0 c 1.0519,0.52453 2.8211,0 4.6356,-1.00368 2.203,-1.19648 4.4004,-3.10745 5.5004,-4.92485 2.0556,-3.44201 4.304,-11.61891 4.6867,-15.10628 0.3289,-3.44201 0.3828,-7.50494 2.4355,-14.77172"
             id="path4933" />
          <path
             style="fill:none;stroke:#e68103;stroke-width:4;stroke-miterlimit:22.9260006;stroke-dasharray:none;stroke-opacity:1"
             inkscape:connector-curvature="0"
             stroke-miterlimit="22.926"
             d="m 1711.5275,241.31723 c -6.0703,5.06662 -8.8914,7.36035 -15.4862,14.53073 -6.5977,7.17038 -11.0434,14.29539 -11.0434,14.29539 0,0 -16.9747,11.04335 -19.0785,13.33708 -0.859,1.00368 -6.4559,4.87665 -12.6708,9.13238 -1.2418,0.85909 -2.5318,1.71817 -3.8247,2.58009 -7.0712,4.82845 -13.8134,9.41591 -14.1962,9.94327 -0.8137,1.14828 -5.2112,-3.05925 -5.8832,-4.87665 -0.6719,-1.76637 -3.1102,-8.07767 0.672,-11.08872 l 1.4772,-5.92853 c 3.3002,-5.59398 7.933,-9.61154 9.6087,-9.65691 2.2937,-0.0964 3.8701,0.62093 6.0278,1.95633 1.8117,1.14829 1.6728,3.10745 1.5735,3.68018 l 0,0.14459 -6.212,6.2631 c 4.973,-2.43833 9.3223,3.67734 6.5976,9.08418"
             id="path4935" />
          <path
             style="fill:none;stroke:#e68103;stroke-width:4;stroke-miterlimit:22.9260006;stroke-dasharray:none;stroke-opacity:1"
             inkscape:connector-curvature="0"
             stroke-miterlimit="22.926"
             d="m 1543.4247,113.67369 c 0.1446,0.81372 0.2382,1.62461 0.38,2.4355 3.9665,24.86242 10.6634,61.43164 14.3918,86.86678 2.8182,12.42696 2.1973,18.88285 3.8247,31.93357 1.6728,13.52988 26.2914,25.57691 30.4536,26.29423 4.1111,0.71449 23.1896,6.2149 34.8028,1.721 4.4911,-2.43832 5.8775,-3.30024 7.2668,-4.11396 0.8591,-0.42813 1.721,-0.90729 3.2492,-1.62461 3.8305,0.14176 6.076,0.71449 6.3142,1.43181 -0.048,0.0482 -0.048,0.0482 -0.048,0.0964 -2.101,2.48652 -4.7831,3.72837 -5.2113,4.06577 -0.8108,1.29004 -4.9702,9.7051 -5.7839,11.56787 -1.531,3.58661 -0.8165,7.07681 -2.0584,10.22963 -0.2382,0.66912 -0.5245,1.33824 -0.7683,2.00736 -0.1843,0.57273 -0.3318,1.67281 -0.2325,2.58293 0,0.0482 2.2398,4.44569 5.3955,4.34929 0.7201,-0.28636 1.4828,-0.95548 2.2512,-2.19733 1.4771,-2.48652 5.9739,-7.17038 11.0405,-12.09806 7.8395,-7.64954 17.1675,-15.77541 18.9339,-16.77909 2.203,-1.19365 3.8729,-2.96285 8.1797,-8.89422 1.4772,-2.00737 3.2492,-4.49389 5.4437,-7.60134 4.9759,-6.98042 8.7014,-17.83097 12.4837,-20.79666"
             id="path4937" />
          <path
             style="fill:none;stroke:#a65c45;stroke-width:1.60731065;stroke-miterlimit:22.9260006"
             inkscape:connector-curvature="0"
             stroke-miterlimit="22.926"
             d="m 1501.5479,485.31997 c -19.6937,16.161 -39.4413,31.84 -50.1983,41.68971 -9.6541,8.84602 -35.8548,29.54627 -46.3226,45.36987 -1.2418,1.81457 -2.1973,3.58378 -2.9656,5.25658 -7.1704,16.15817 -8.5569,18.83749 -9.8469,30.50176 -1.3383,11.66144 -3.5866,35.85474 0,55.55414 3.5866,19.74478 6.2631,63.67434 7.1704,74.43133 0.8619,10.75699 3.4902,43.46174 2.6765,56.46426 -0.8591,13.00252 0,30.45073 -2.6765,53.7821 -2.7219,23.28318 -4.9702,41.21055 -4.063,63.62898 0.7656,19.02745 0.241,44.17339 0.5756,62.86912 0.096,3.29457 0.19,6.45022 0.3346,9.27131 0.3799,7.79697 4.0175,20.31747 7.125,33.80197 1.9109,8.0834 3.9183,15.7301 5.9767,22.3731 2.7219,8.9934 5.4947,16.1638 7.9813,20.5075 6.2602,10.9015 17.9273,15.2055 26.8641,17.9273 8.9934,2.6793 26.918,17.9274 44.8453,-7.1704 17.9274,-25.0977 18.7865,-28.6843 20.6039,-34.0827 1.6246,-4.8766 7.7006,-19.4555 8.7496,-32.8436 0.1446,-1.3383 0.19,-2.6312 0.19,-3.9184 0,-14.34357 1.8174,-34.95026 4.491,-60.04801 2.6794,-25.10059 21.514,-96.81289 23.3343,-110.24353 1.7635,-13.43348 11.616,-62.76989 14.3436,-81.56201 2.6736,-18.83466 12.6651,-46.94345 15.1998,-71.70948 2.5801,-24.76318 4.4911,-69.94026 3.5866,-106.70512 -0.8619,-36.71382 -0.8619,-74.38879 -0.8619,-102.16303 0,-27.77424 -5.404,-86.05307 -7.1676,-105.79784 -1.823,-19.69374 -5.455,-53.9749 -10.0907,-71.51951 -4.6385,-17.54461 -25.7668,-63.82177 -27.5871,-97.8591 -1.5792,-30.0226 6.266,-57.46511 9.9915,-77.01992 0.4792,-2.67365 0.9073,-5.16018 1.2447,-7.50494 2.6736,-19.696573 10.0907,-70.419428 10.0907,-70.419428"
             id="path4939" />
          <path
             style="fill:none;stroke:#e68103;stroke-width:4;stroke-miterlimit:22.9260006;stroke-dasharray:none;stroke-opacity:1"
             inkscape:connector-curvature="0"
             stroke-miterlimit="22.926"
             d="m 1567.8647,-69.654411 c -9.8525,61.862603 -12.7162,42.069632 -9.8525,72.6167556 9.0841,96.1409334 -113.6884,80.6518914 -111.1509,34.0401674"
             id="path4941" />
          <path
             style="fill:none;stroke:#e68103;stroke-width:4;stroke-miterlimit:22.9260006;stroke-dasharray:none;stroke-opacity:1"
             inkscape:connector-curvature="0"
             stroke-miterlimit="22.926"
             d="m 1378.5825,-149.12683 c -11.3779,-10.75416 -5.3529,-12.95432 -40.5867,-8.50863 -34.2302,4.25573 -114.1165,5.35581 -116.6002,4.82846"
             id="path4943" />
          <path
             style="fill:none;stroke:#e68103;stroke-width:4;stroke-miterlimit:22.9260006;stroke-dasharray:none;stroke-opacity:1"
             inkscape:connector-curvature="0"
             stroke-miterlimit="22.926"
             d="m 1409.09,-149.01342 c 4.5931,-4.87666 -1.2419,-16.06177 29.5945,-16.10997 30.7909,-0.0482 87.1049,-14.72352 106.8525,-19.17205"
             id="path4945" />
          <path
             style="fill:none;stroke:#e68103;stroke-width:4;stroke-miterlimit:22.9260006;stroke-dasharray:none;stroke-opacity:1"
             inkscape:connector-curvature="0"
             stroke-miterlimit="22.926"
             d="m 1436.5353,-304.01725 c -7.8395,41.82863 0.2439,71.04035 21.9421,93.31985 15.3983,15.92 40.1587,20.70025 58.707,24.19046 8.7496,1.6728 18.7411,1.8656 28.3526,2.19733 10.8052,0.33456 20.981,0.81372 28.106,3.63481 13.4363,5.40117 44.7489,18.88285 49.2939,60.52152 4.5364,41.641507 7.5531,73.146949 5.8321,129.5119779 -1.7239,55.4067091 -0.1474,91.0714821 1.8174,104.8877221 5.2084,28.10879 7.7431,36.61742 8.364,44.79148 0.6266,8.0323 -1.8628,18.55113 7.9813,29.78728 0.1956,0.23816 0.4309,0.52452 0.6719,0.76268"
             id="path4947" />
          <path
             style="fill:none;stroke:#a65c45;stroke-width:1.60731065;stroke-miterlimit:22.9260006"
             inkscape:connector-curvature="0"
             stroke-miterlimit="22.926"
             d="m 1435.0043,-305.34982 c 1.2418,-0.90729 1.5792,0.23816 1.531,1.29288"
             id="path4949" />
          <path
             style="fill:none;stroke:#e68103;stroke-width:4;stroke-miterlimit:22.9260006;stroke-dasharray:none;stroke-opacity:1"
             inkscape:connector-curvature="0"
             stroke-miterlimit="22.926"
             d="m 1084.5374,578.88365 c -1.48,3.49021 -1.8656,6.69122 -1.6728,8.08333 0.3828,3.20385 0.7655,4.63566 0.431,6.97475 -0.19,1.34108 -0.3828,2.67932 -0.5756,4.0686 -0.8109,5.83214 -1.8146,12.0442 -3.7766,17.92737 -1.1482,3.48454 -2.4865,7.7431 -3.0592,10.37139 1.4346,2.24553 0.1446,0.18996 2.7218,4.59029 2.5376,4.44286 4.6867,15.96537 3.3485,19.59734 -1.3382,3.58661 2.3901,8.51146 2.8211,10.3799 0.3827,1.85993 1.1001,3.7227 1.7238,6.11282 0.6663,2.39297 0.4763,5.83781 -0.1928,8.36687 -0.4763,1.721 -3.3938,3.20384 -4.0175,3.683 -0.1418,0.81372 -0.1872,1.62461 -0.5728,3.15565 -1.0037,3.87013 -3.4873,1.86277 -3.4873,1.86277 0,0 -3.2039,-8.55966 -3.9212,-14.10544 -0.048,-0.38276 -0.1418,-0.81088 -0.2382,-1.19648 -0.9555,-5.25657 -3.8276,-11.04051 -3.6348,-13.958 0.19,-3.11028 -4.6867,-15.68184 -5.8321,-18.12016 -0.5727,-1.29005 -2.2455,-5.21122 -2.7729,-8.07767 0,-2.91748 -0.2382,-6.98608 -0.045,-9.5605 0.3346,-4.87949 2.6283,-29.97724 2.342,-37.96134 -0.3346,-8.0323 1.1,-11.18511 2.5829,-14.05723 7.7431,-14.67816 11.8089,-30.40536 21.083,-44.1252 33.6574,-49.76737 28.2534,-41.35231 31.7408,-90.116 2.2483,-21.37221 4.0175,-94.99265 5.8349,-128.1709 1.7692,-33.17825 15.8718,-80.74545 25.1006,-102.21123 9.1778,-21.41758 4.4457,-60.0452 4.4457,-68.98762 0,-8.98495 0,-28.68436 -1.7692,-57.365876 -1.8174,-28.684356 -4.3039,-53.878503 -4.0176,-85.6221077 0.2382,-29.8326373 2.7729,-49.9601693 8.0323,-79.3136473 5.835,-32.557329 34.5165,-55.120349 56.0305,-61.431639 3.1075,-0.90729 5.8321,-1.72101 8.2194,-2.48653 14.2472,-4.53926 17.4482,-6.88402 27.298,-11.47147 11.5225,-5.30762 18.0719,-9.56335 28.8289,-17.64101 8.2705,-6.2149 18.2137,-12.1888 28.3498,-22.85222 21.0348,-22.04133 15.92,-57.22695 10.947,-73.09592"
             id="path4951" />
          <path
             style="fill:none;stroke:#e68103;stroke-width:4;stroke-miterlimit:22.9260006;stroke-dasharray:none;stroke-opacity:1"
             inkscape:connector-curvature="0"
             stroke-miterlimit="22.926"
             d="m 1116.8878,543.13098 c -0.4282,0.38276 0.048,-0.66912 -0.4282,-0.1446 -0.3827,0.43096 -1.5338,2.05557 -4.5902,6.79046 -6.6005,10.22963 -10.2807,7.6949 -10.3771,8.41222 -0.096,0.71449 -2.4865,6.59766 -9.9915,11.996 -3.442,2.48653 -5.6421,5.69037 -6.9322,8.70142"
             id="path4953" />
          <path
             style="fill:none;stroke:#a65c45;stroke-width:1.60731065;stroke-miterlimit:22.9260006"
             inkscape:connector-curvature="0"
             stroke-miterlimit="22.926"
             d="m 1082.2692,679.05349 c 0.051,-2.77289 0.051,-4.54209 -0.4281,-5.92854 -0.4763,-1.38644 -2.1973,-2.58292 -2.8211,-3.05924 -0.6691,-0.43096 -3.5384,-1.76921 -4.9249,-1.29288"
             id="path4955" />
          <path
             style="fill:none;stroke:#e68103;stroke-width:4;stroke-miterlimit:22.9260006;stroke-dasharray:none;stroke-opacity:1"
             inkscape:connector-curvature="0"
             stroke-miterlimit="22.926"
             d="m 1082.7229,598.02167 c 3.5384,2.67366 8.4122,18.69289 9.3223,20.84486 0.9583,2.10093 2.7729,6.40769 4.8313,7.60134 2.0074,1.14544 19.2174,21.75213 20.652,24.23582 1.4347,2.44117 4.7831,5.54578 6.7905,6.79046 2.0556,1.24468 14.5818,8.89422 16.161,10.0907 0.9073,0.71732 1.8174,1.43181 2.77,2.15196 0.7202,0.5302 1.4347,1.04905 2.2484,1.53105 1.962,1.14261 4.8767,0.71448 4.3039,-3.15565 -0.5273,-3.92117 -3.2038,-5.25941 -3.7765,-5.73574"
             id="path4957" />
          <path
             style="fill:none;stroke:#e68103;stroke-width:4;stroke-miterlimit:22.9260006;stroke-dasharray:none;stroke-opacity:1"
             inkscape:connector-curvature="0"
             stroke-miterlimit="22.926"
             d="m 1143.2274,669.72547 c 1.1,-1.04904 2.1519,-1.86276 2.4383,-3.5866 0.2892,-1.57925 0.4309,-2.48936 0.3346,-3.77657 0,-0.0964 -0.048,-0.18997 -0.048,-0.33457 -0.241,-1.43464 -1.5311,-4.35212 -1.911,-4.97305 -0.3374,-0.62092 -2.7275,-3.48737 -3.2039,-4.16216 -0.4309,-0.71449 -3.7283,-2.81825 -4.2075,-3.05642 -0.4281,-0.18996 -5.4012,-4.06293 -8.3669,-4.82561 -1.29,-2.87213 -4.5902,-7.93874 -7.1221,-11.85991 -2.5348,-3.91833 -9.036,-12.0924 -11.1398,-13.72267 -2.1037,-1.67281 -3.1556,-5.06378 -4.0147,-6.40486 -0.9101,-1.33825 -2.5347,-8.46043 -3.3003,-16.68836 -0.1899,-2.09809 -0.3799,-4.30109 -0.5245,-6.45022 -0.3827,-7.21858 -0.3827,-13.8134 0,-14.96169 l 0,-0.0482"
             id="path4959" />
          <path
             style="fill:none;stroke:#e68103;stroke-width:4;stroke-miterlimit:22.9260006;stroke-dasharray:none;stroke-opacity:1"
             inkscape:connector-curvature="0"
             stroke-miterlimit="22.926"
             d="m 1102.2295,589.88447 c 2.1973,4.49105 18.3073,23.7113 18.3073,23.7113 l 14.1536,9.37055 c -0.6691,-1.71534 -7.9359,-9.89224 -7.6978,-14.72352 0.2864,-4.82562 -2.0555,-6.93222 -1.1964,-10.94695 0.1446,-0.71449 0.1928,-1.81741 0.1928,-3.20385 -0.096,-6.26026 -1.8174,-18.2591 -3.2492,-23.42494 -0.5274,-1.86277 -0.7174,-3.87297 -0.862,-5.9257 -0.1446,-2.05557 -0.2381,-4.11397 -0.5727,-6.02494 -0.4791,-2.53189 -2.6283,-8.84602 -2.8693,-9.6569 -0.7627,-2.81826 -1.3864,-4.68386 -1.9563,-6.0703 -0.5302,-1.43465 -0.9583,-2.34193 -1.2929,-3.30025 -0.7173,-1.86277 -3.2974,-11.70963 0.7627,-16.29993"
             id="path4961" />
          <path
             style="fill:none;stroke:#e68103;stroke-width:4;stroke-miterlimit:22.9260006;stroke-dasharray:none;stroke-opacity:1"
             inkscape:connector-curvature="0"
             stroke-miterlimit="22.926"
             d="m 1125.9323,594.08066 c -5.0695,-7.36318 -8.7497,-14.86529 -10.3289,-22.56303 -1.8656,1.19648 -4.1111,2.0584 -6.6912,1.96201 -3.9212,-0.1446 -5.5458,0.52452 -6.7394,1.4318 -1.1455,0.86192 -1.8656,1.91097 -3.8248,2.77289 -3.9694,1.8174 -9.2288,1.8656 -13.7709,1.19365 l -0.048,0"
             id="path4963" />
          <path
             style="fill:none;stroke:#e68103;stroke-width:4;stroke-miterlimit:22.9260006;stroke-dasharray:none;stroke-opacity:1"
             inkscape:connector-curvature="0"
             stroke-miterlimit="22.926"
             d="m 1160.7776,634.62492 c 1.8174,-3.96654 2.1038,-3.49021 2.342,-6.55229 0.096,-0.85909 -0.1418,-1.95917 -0.5728,-3.15565 -1.0036,-3.11029 -3.3456,-6.88686 -5.2565,-7.9359 -2.6312,-1.48001 -11.9507,-7.55314 -12.4298,-7.79131 -1.2929,-0.66628 -4.3975,-1.53104 -7.556,-0.23816 -3.1556,1.28721 -3.1556,3.63197 -3.5866,5.49474 -0.3828,1.86844 0.5755,7.55598 0.9583,8.51146 0.3346,0.95832 0.8591,1.7692 2.5801,3.58661 1.6728,1.8174 4.114,2.82108 5.5458,1.57924 0.6691,-0.52736 0.9073,-2.43549 1.0037,-4.30109 0.1446,-2.29657 0.051,-4.5421 0.051,-4.5421 0.1418,-2.39296 0.6209,-6.16953 1.0037,-10.0907 0.1417,-1.53104 0.2863,-3.11028 0.3827,-4.63849 0.048,-1.4318 0.096,-2.81825 0.096,-4.11113 -0.096,-4.68102 0,-9.9461 -0.1899,-14.34359 -0.048,-2.86645 -0.2864,-5.35298 -0.7173,-7.12218 -1.1001,-4.54493 1.4346,-16.15817 6.0702,-23.52135 4.5903,-7.31497 5.5487,-14.62995 9.277,-20.17573 3.6802,-5.54577 2.2456,-21.89673 2.2456,-21.89673 0,0 -0.6692,-6.0703 -1.911,-12.4298 -1.1937,-6.35666 -1.3411,-17.35464 0.6209,-24.85958 2.0074,-7.45958 2.7729,-7.84234 10.0879,-31.88821 2.9175,-12.38442 19.4584,-60.81072 31.9846,-96.66545 7.0286,-20.12753 12.8125,-36.3339 14.199,-40.0169 3.9183,-10.3232 21.0348,-63.24905 20.1275,-85.66748 -0.431,-10.51599 7.9359,-41.44871 8.3669,-83.22914 0.2381,-24.43146 -1.6728,-52.063936 -4.2076,-76.827123 -1.29,-12.622591 -2.7728,-24.525025 -4.2047,-34.802853 -1.1482,-8.460425 -2.2483,-15.823603 -3.252,-21.7039385 -4.0147,-23.7113045 -4.1593,-15.3954785 -12.3362,-28.9253535"
             id="path4965" />
          <path
             style="fill:none;stroke:#a65c45;stroke-width:1.60731065;stroke-miterlimit:22.9260006"
             inkscape:connector-curvature="0"
             stroke-miterlimit="22.926"
             d="m 1145.1837,604.51442 0.048,0.0454 c 5.3076,4.44569 4.3975,2.82109 5.6393,3.73121 1.2447,0.90444 3.1557,2.81825 4.114,3.5866 0.9555,0.75985 5.5458,4.01474 7.6013,4.68102 2.0556,0.66629 2.7247,0.33456 3.9184,-2.15196 1.1936,-2.48653 -0.2382,-6.98042 -1.2419,-8.93959 -1.0037,-1.95633 -3.252,-5.54294 -7.1704,-6.45306 -3.9665,-0.95548 -6.453,-4.58745 -7.4113,-6.02209 -0.9555,-1.43748 -5.4976,-6.88686 -5.4976,-6.88686"
             id="path4967" />
          <path
             style="fill:none;stroke:#a65c45;stroke-width:1.60731065;stroke-miterlimit:22.9260006"
             inkscape:connector-curvature="0"
             stroke-miterlimit="22.926"
             d="m 1143.7944,623.82257 c 1.8174,0.95264 13.0507,7.9841 16.9719,10.80518 0.4281,0.28636 0.7655,0.57273 1.0037,0.76552 2.3419,1.95634 3.9183,1.29005 4.6356,0.52453 0.7174,-0.71449 1.6728,-6.35666 -3.8247,-10.99515"
             id="path4969" />
          <path
             style="fill:none;stroke:#a65c45;stroke-width:1.60731065;stroke-miterlimit:22.9260006"
             inkscape:connector-curvature="0"
             stroke-miterlimit="22.926"
             d="m 1162.5922,616.56429 c 3.6802,1.43181 6.6459,3.15565 7.4568,0.38276 0.096,-0.38276 0.096,-0.81088 0.048,-1.38644 -0.4792,-3.53841 -4.3975,-10.22679 -4.8285,-10.08787"
             id="path4971" />
          <path
             style="fill:none;stroke:#a65c45;stroke-width:1.60731065;stroke-miterlimit:22.9260006"
             inkscape:connector-curvature="0"
             stroke-miterlimit="22.926"
             d="m 1295.3676,1044.6323 c -8.0323,-15.2537 -21.8514,-17.5928 -31.0291,-38.6305 -1.1001,-2.3901 -2.1038,-5.0184 -3.0111,-7.98122 -8.9849,-28.68436 -12.5715,-75.29608 -12.5715,-80.64906 0,-5.40118 -9.7534,-71.8569 -14.3436,-88.78059 -4.5903,-16.87265 -10.1815,-36.90662 -14.3436,-55.54847 -4.1594,-18.64469 -20.7485,-61.62444 -40.3487,-133.57491 -1.8656,-6.88686 -3.4902,-15.10628 -4.7349,-24.52219 -3.3456,-25.52871 -3.8247,-59.56604 1.2447,-97.28638 7.8395,-58.75516 22.7076,-108.95065 26.867,-127.78814 1.8202,-8.0323 6.6005,-23.13858 12.5262,-40.30043 13.0507,-37.76854 31.4572,-85.57391 34.6129,-90.64336 4.5903,-7.36318 15.679,-32.36452 19.7901,-45.8944 7.6495,-25.04955 -15.9172,-83.7083 -28.7326,-151.213081 -3.1556,-16.540924 -5.6421,-33.609207 -6.884,-50.867453 0.6691,5.690373 1.5793,11.043349 2.6765,16.0646 23.3286,105.366874 136.5831,59.804202 134.9585,-5.545775"
             id="path4973" />
          <path
             style="fill:none;stroke:#a65c45;stroke-width:1.60731065;stroke-miterlimit:22.9260006"
             inkscape:connector-curvature="0"
             stroke-miterlimit="22.926"
             d="m 1262.7053,882.45526 c 14.4826,32.60552 12.668,26.24603 15.3955,46.18076 2.7247,19.88937 0,15.39264 0,39.8241"
             id="path4977" />
          <path
             style="fill:none;stroke:#a65c45;stroke-width:1.60731065;stroke-miterlimit:22.9260006"
             inkscape:connector-curvature="0"
             stroke-miterlimit="22.926"
             d="m 1334.2107,877.01155 c 2.7247,23.56954 7.2668,36.23183 13.5781,50.72002 6.3594,14.4882 7.2667,38.0067 5.4493,57.94427 -1.8174,19.88936 -0.9073,17.20726 -4.5421,34.42296"
             id="path4979" />
          <path
             style="fill:none;stroke:#a65c45;stroke-width:1.60731065;stroke-miterlimit:22.9260006"
             inkscape:connector-curvature="0"
             stroke-miterlimit="22.926"
             d="m 1409.3451,1040.3227 c -2.6793,13.8673 -7.7941,31.7946 -8.9906,45.8519 -0.9073,10.5131 -0.6691,21.4147 1.7692,31.6954 2.1038,8.6957 7.9359,16.0135 11.5707,24.1876 5.0156,11.3779 10.0851,22.753 14.4826,34.4229 5.2565,13.8673 12.5233,27.3915 14.4853,42.0697 1.721,12.9543 -2.8721,25.9568 -3.6376,38.965 -0.8591,14.7717 -1.0434,29.5434 -1.3354,44.3605 -0.6209,30.0226 -0.4764,60.048 -1.3865,90.0706 -0.6209,20.9867 -5.8775,42.115 -3.1556,62.9089 2.0612,15.73 10.6606,29.9318 17.2129,44.3662 2.2455,4.973 3.9183,11.7578 9.0359,13.5752 9.3706,3.3938 21.6586,6.0278 29.878,0.482 15.3955,-10.4253 26.2432,-27.2497 34.423,-43.9352 7.125,-14.5336 10.4224,-31.3155 10.4224,-47.5191 0,-22.7586 -6.6487,-45.0353 -10.4224,-67.4565 -2.1038,-12.5744 -5.2084,-24.956 -7.2668,-37.5786 -2.6283,-16.5409 -7.7913,-33.0819 -6.7905,-49.7702 1.2929,-21.5594 10.0425,-42.0696 13.5781,-63.388 4.922,-29.7334 8.3187,-59.7135 11.7579,-89.6368 1.8684,-15.7754 4.4428,-31.599 4.1139,-47.519 -0.2863,-12.6708 -1.962,-25.5287 -5.8775,-37.5786 -2.8239,-8.4576 -10.0425,-16.5409 -14.8256,-24.2387 -0.1899,-0.2381 -0.3317,-0.5245 -0.482,-0.7627"
             id="path4981" />
          <path
             style="fill:none;stroke:#a65c45;stroke-width:1.60731065;stroke-miterlimit:22.9260006"
             inkscape:connector-curvature="0"
             stroke-miterlimit="22.926"
             d="m 1512.974,992.03817 c -2.2966,3.24921 -4.5421,6.55229 -6.7422,9.94323 -5.7358,8.8943 -10.896,18.1656 -17.2073,26.677 -6.4048,8.7497 -8.4122,18.7383 -15.8264,19.0246 -10.1304,0.3828 -27.5843,2.4894 -35.7612,-2.2455 -9.4641,-5.4976 -10.3232,-19.3166 -14.4797,-29.4499 -3.8247,-9.2259 -6.3594,-18.97638 -9.5151,-28.49435"
             id="path4983" />
          <path
             style="fill:#ed6989"
             inkscape:connector-curvature="0"
             d="m 1206.794,376.44587 c 50.2323,40.01407 293.6481,117.21261 373.234,76.79593 4.8851,8.54549 4.3493,126.32798 -1.4942,152.66474 -35.1034,-45.03815 -183.1126,-35.85474 -173.314,-33.46461 -0.051,0 -14.9219,-0.61242 -0.1899,-0.0454 20.5216,0.78536 -23.6178,-4.87666 -38.3413,-1.96201 -6.9917,-17.82813 -164.0823,-60.39677 -190.9067,-34.84538 -5.0468,-37.19865 25.4323,-150.07047 31.0177,-159.14331 z"
             id="path4985" />
          <path
             style="fill:none;stroke:#e68103;stroke-width:4;stroke-miterlimit:22.9260006;stroke-dasharray:none;stroke-opacity:1"
             inkscape:connector-curvature="0"
             stroke-miterlimit="22.926"
             d="m 1115.6119,571.54032 c 0.2382,-1.14829 4.6839,-4.2047 6.0731,-6.54946 l 0.19,-0.23816"
             id="path4989" />
          <g
             style="fill:#000000;stroke:#e68103;stroke-width:1.41080391;stroke-miterlimit:4;stroke-dasharray:none;stroke-opacity:1"
             transform="matrix(2.835263,0,0,2.835263,553.60607,-614.05326)"
             id="XMLID_5_">
            <g
               id="g5038"
               style="fill:#000000;stroke:#e68103;stroke-width:1.41080391;stroke-miterlimit:4;stroke-dasharray:none;stroke-opacity:1">
              <path
                 style="fill:#000000;stroke:#e68103;stroke-width:1.41080391;stroke-miterlimit:4;stroke-dasharray:none;stroke-opacity:1"
                 id="path5040"
                 d="m 387.88,559.36 c 1.063,4.906 1.956,9.577 2.815,14.618 -4.586,-3.287 -12.039,1.838 -25.629,-0.69 -13.607,-2.529 -12.022,-5.699 -0.642,-12.326 8.516,-4.975 15.8,-0.557 21.819,-1.602 l 1.63,0 z"
                 inkscape:connector-curvature="0" />
              <path
                 style="fill:#000000;stroke:#e68103;stroke-width:1.41080391;stroke-miterlimit:4;stroke-dasharray:none;stroke-opacity:1"
                 id="path5042"
                 d="m 330.27,523.92 c -3.052,-4.013 -12.663,0.675 -25.106,7.166 -9.831,5.109 -12.967,-7.655 -16.609,-2.377 -1.821,2.63 7.621,9.104 3.17,7.907 -8.161,-2.226 -15.159,-13.826 -25.933,-8.531 -10.758,5.277 -14.72,7.958 -25.916,7.891 -11.213,-0.05 -13.911,-2.832 -22.14,2.227 -4.738,6.306 15.176,8.531 25.292,15.479 10.117,6.964 -6.475,11.702 -22.122,10.438 -15.648,-1.265 -32.29,-1.636 -39.018,0.118 l 0,-1.063 c 1.028,-6.863 32.273,-151.23 44.885,-218.73 2.006,-10.758 14.754,-101.3 16.17,-102.92 20.318,0 75.421,-5.295 109.65,0 0.876,2.714 23.285,141.55 25.865,170.42 l 14.923,138.58 -4.064,0.894 c -5.396,0 -15.293,1.399 -25.208,-0.573 -11.668,-2.344 -25.19,-9.122 -26.979,-7.976 -1.922,1.248 2.091,3.743 -1.534,3.373 -11.044,-1.13 -19.374,0.809 -20.959,-6.779 3.81,-7.44 18.68,-11.52 15.65,-15.55 z"
                 inkscape:connector-curvature="0" />
            </g>
            <g
               id="g5044"
               stroke-miterlimit="22.926"
               style="fill:#000000;stroke:#e68103;stroke-width:1.41080391;stroke-miterlimit:4;stroke-dasharray:none;stroke-opacity:1">
              <path
                 style="fill:#000000;stroke:#e68103;stroke-width:1.41080391;stroke-miterlimit:4;stroke-dasharray:none;stroke-opacity:1"
                 id="path5046"
                 d="m 181.88,564.24 c 6.728,-1.754 23.37,-1.383 39.018,-0.118 15.647,1.265 32.239,-3.474 22.122,-10.438 -10.117,-6.947 -30.03,-9.173 -25.292,-15.479 8.229,-5.059 10.927,-2.276 22.14,-2.227 11.196,0.067 15.158,-2.613 25.916,-7.891 10.774,-5.295 17.772,6.306 25.933,8.531 4.451,1.197 -4.991,-5.277 -3.17,-7.907 3.642,-5.278 6.778,7.486 16.609,2.377 12.443,-6.491 22.055,-11.179 25.106,-7.166 3.035,4.03 -11.837,8.11 -15.631,15.546 1.585,7.588 9.915,5.649 20.959,6.779 3.625,0.37 -0.388,-2.125 1.534,-3.373 1.788,-1.146 15.311,5.632 26.979,7.976 9.915,1.973 19.813,0.573 25.208,0.573 4.098,0 5.615,0.81 2.614,4.485 -1.754,2.158 -3.643,3.119 -5.683,3.457 -6.02,1.045 -13.304,-3.373 -21.819,1.602 -11.381,6.627 -12.966,9.797 0.642,12.326 13.59,2.528 21.043,-2.597 25.629,0.69"
                 inkscape:connector-curvature="0" />
              <path
                 style="fill:#000000;stroke:#e68103;stroke-width:1.41080391;stroke-miterlimit:4;stroke-dasharray:none;stroke-opacity:1"
                 id="path5048"
                 d="M 393.38,550.53 378.457,411.95 c -2.58,-28.867 -24.989,-167.7 -25.865,-170.42 -34.229,-5.295 -89.333,0 -109.65,0 -1.417,1.619 -14.164,92.165 -16.17,102.92 -12.612,67.497 -43.857,211.86 -44.885,218.73"
                 inkscape:connector-curvature="0" />
              <path
                 style="fill:#000000;stroke:#e68103;stroke-width:1.41080391;stroke-miterlimit:4;stroke-dasharray:none;stroke-opacity:1"
                 id="path5050"
                 d="m 217.73,538.2 c 0.607,-18.464 -4.451,-53.249 -0.657,-82.335 4.182,-32.055 12.208,-97.544 13.32,-102.69"
                 inkscape:connector-curvature="0" />
              <path
                 style="fill:#000000;stroke:#e68103;stroke-width:1.41080391;stroke-miterlimit:4;stroke-dasharray:none;stroke-opacity:1"
                 id="path5052"
                 d="m 288.55,528.71 c -1.535,-4.789 0.354,-178.14 -8.481,-189.1"
                 inkscape:connector-curvature="0" />
              <path
                 style="fill:#000000;stroke:#e68103;stroke-width:1.41080391;stroke-miterlimit:4;stroke-dasharray:none;stroke-opacity:1"
                 id="path5054"
                 d="m 330.27,523.92 c 0,0 20.133,-90.58 18.244,-114.61"
                 inkscape:connector-curvature="0" />
              <path
                 style="fill:#000000;stroke:#e68103;stroke-width:1.41080391;stroke-miterlimit:4;stroke-dasharray:none;stroke-opacity:1"
                 id="path5056"
                 d="m 390.7,573.98 c -0.859,-5.041 -1.753,-9.712 -2.815,-14.618"
                 inkscape:connector-curvature="0" />
            </g>
          </g>
          <path
             id="path5058"
             stroke-miterlimit="22.926"
             d="m 1242.4332,73.753193 c 5.7896,7.60985 61.0716,25.47767 88.5992,15.75556 19.1635,-6.76778 66.7024,-20.45075 87.6606,-18.18254 10.9952,1.19364 24.199,0.68046 34.2273,5.11481 17.6779,7.81399 44.284,11.43178 53.0478,11.4176 11.0972,-0.017 34.7773,3.6178 42.3815,-2.68782 7.0286,-16.97189 15.8037,-31.41188 15.6365,-60.79371 -0.1503,-27.1107891 -2.6964,-18.8970301 -3.7766,-38.66165 -1.239,-22.846549 0.9385,-19.472587 -21.5905,-24.547707 -44.8567,-10.110548 -62.2908,-2.653806 -100.9637,24.547707 -12.9799,9.1295469 -18.8205,12.4609809 -35.8633,15.02405791 -17.5134,2.63396199 -16.229,2.64530199 -29.9942,-6.91237101 -33.3739,-23.1811099 -73.2717,-26.2460289 -95.5994,-24.8822679 -11.6671,0.711651 -38.3526,10.464956 -44.6809,23.7027989 0.6861,0.963989 0.3742,13.186812 1.3779,29.0983021 1.5027,24.09974 5.9257,40.74273 9.5265,52.02708 z"
             inkscape:connector-curvature="0"
             style="clip-rule:evenodd;fill:#000000;fill-rule:evenodd;stroke:#e68103;stroke-width:4;stroke-miterlimit:22.9260006;stroke-dasharray:none;stroke-opacity:1" />
        </g>
      </g>
      <path
         sodipodi:nodetypes="ssssccccsss"
         inkscape:connector-curvature="0"
         id="path5518-1"
         d="M 445.71268,48.057309 C 410.35982,35.81952 368.26418,36.314535 333.03285,48.874104 286.60089,65.426566 244.726,100.12733 219.50447,141.2087 c -17.46714,28.45083 -19.81495,64.17479 -20.33208,97.23536 -1.14083,72.93502 38.12507,215.71857 38.12507,215.71857 l 105.90142,92.33302 96.38241,-0.0458 103.56219,-92.28719 c 0,0 41.03505,-148.78979 38.97199,-224.70653 -0.81223,-29.88873 -4.02642,-62.0211 -20.12734,-87.57124 C 535.74151,100.23479 493.2771,64.522278 445.71268,48.057319 Z"
         style="fill:#e68103;fill-opacity:1;fill-rule:evenodd;stroke:none;stroke-width:1px;stroke-linecap:butt;stroke-linejoin:miter;stroke-opacity:1" />
      <path
         inkscape:connector-curvature="0"
         id="path5518"
         d="m 335.75564,33.75578 c -45.28814,16.739617 -89.91317,58.219403 -110.7317,93.3786 -20.81853,35.15919 -19.32681,64.90041 -19.8312,98.33479 -1.11273,73.75968 37.18591,218.15767 37.18591,218.15767 l 103.2926,93.377 94.0081,-0.0463 101.011,-93.33067 c 0,0 40.0242,-150.47212 38.01196,-227.24724 -0.79223,-30.22667 -3.92725,-62.72236 -19.63153,-88.56138 C 522.42152,83.288988 490.851,51.767926 456.31366,35.381902 421.77632,18.995878 384.27216,17.744891 335.75564,33.75578 Z M 514.6983,144.0449 c 4.49824,0.0142 9.01344,0.49493 13.45618,1.46833 7.98099,1.77006 15.54616,5.03475 22.42436,9.27172 l -5.93723,9.04962 c -5.76738,-4.06249 -12.07762,-7.33821 -18.76553,-9.25893 -5.93191,-1.72347 -12.23586,-2.39856 -18.51951,-2.05789 -12.77196,0.63541 -25.41334,5.50207 -37.36797,11.60921 -12.5967,6.46664 -24.53164,14.46947 -36.63787,22.23581 -11.05091,7.09987 -22.2909,14.29306 -34.57363,18.94766 11.95469,-5.44371 22.5438,-13.26863 33.11806,-21.05987 11.54445,-8.52007 22.98513,-17.31956 35.48107,-24.81777 11.83788,-7.13452 24.91549,-13.12066 39.26456,-14.91495 2.66619,-0.322 5.35844,-0.48201 8.05751,-0.47294 z m -248.43177,0.016 c 2.6279,-0.011 5.25042,0.14699 7.84812,0.47133 13.80573,1.7958 26.27368,7.80215 37.44794,14.93093 11.87462,7.53827 22.65105,16.33957 33.59259,24.7922 10.20764,7.87168 20.50804,15.70107 32.2409,21.05828 -12.06623,-4.55933 -23.04166,-11.75938 -33.75717,-18.95245 -11.52607,-7.72337 -22.82131,-15.75469 -34.80526,-22.26137 -11.29442,-6.09774 -23.30697,-10.97423 -35.46195,-11.59643 -6.05746,-0.34446 -12.14229,0.35241 -17.87077,2.05469 -6.60303,1.93956 -12.82569,5.23675 -18.55462,9.2765 l -5.93882,-9.04802 0,-0.003 c 6.79678,-4.18057 14.26484,-7.45829 22.17191,-9.25095 4.31293,-0.96649 8.7073,-1.4532 13.08713,-1.47152 z m 26.57528,55.59832 c 0.71548,0.005 1.43108,0.0322 2.14897,0.0831 5.2847,0.43677 10.1876,2.02314 14.71523,3.95123 5.39336,2.27274 10.48098,4.90221 15.58121,7.27453 6.55649,3.04724 13.25145,5.77672 20.12519,7.95517 16.87171,5.36317 34.72226,7.5488 52.66645,7.89285 8.16785,-0.1601 16.30925,-0.70623 24.37196,-1.77189 3.9752,-0.52533 7.92878,-1.18844 11.84572,-1.98919 -0.13112,-0.0569 -0.25589,-0.12455 -0.38989,-0.17576 0.15166,0.0463 0.29661,0.11099 0.44588,0.16457 5.35095,-1.09592 10.63365,-2.45522 15.80163,-4.13496 6.66062,-2.16233 13.13527,-4.88103 19.45257,-7.9392 4.85,-2.35002 9.67971,-4.97409 14.82225,-7.26015 4.2727,-1.92278 8.93967,-3.51876 14.01539,-3.9592 5.56962,-0.40482 11.06325,0.72488 16.03503,2.73214 7.3916,2.964 13.96768,7.30272 20.05004,11.81052 9.72526,7.15877 18.74421,15.11295 27.50199,23.14014 l -1.61848,1.67124 c -7.17097,9.10772 -15.15765,17.85876 -24.53979,25.0782 -6.61816,5.12666 -14.19998,9.44661 -22.5793,11.5533 -6.53452,1.61511 -13.40751,1.61376 -19.8536,-0.0815 -6.1202,-1.63754 -11.66958,-4.6175 -16.58622,-8.22839 -5.07745,-3.72107 -9.56792,-8.06316 -13.71974,-12.61579 -4.04231,-4.42879 -7.77443,-9.07526 -11.46068,-13.72943 -3.14961,-3.97371 -6.22097,-7.97761 -9.62797,-11.69228 -1.28392,-1.39924 -2.61585,-2.74986 -4.07429,-3.96081 -5.07386,0.8474 -10.17874,1.45107 -15.28883,1.83421 -8.26892,0.61981 -16.54706,0.70244 -24.80017,0.39304 -17.92713,0.63381 -35.98005,-0.57205 -53.51806,-5.07124 -7.1789,-1.84863 -14.20098,-4.26305 -21.06627,-7.00612 -5.35625,-2.1385 -10.53649,-4.46931 -15.75536,-6.32866 -4.33906,-1.52454 -8.68226,-2.70974 -12.90019,-2.7625 -4.51854,-0.12037 -9.09445,1.08826 -13.38911,2.98938 -6.42442,2.84775 -12.27772,7.16411 -18.04172,11.81372 -6.21803,5.05067 -12.11829,10.53336 -17.89315,16.21871 5.50352,7.65053 11.4755,14.85332 18.39803,20.98319 5.79658,5.10239 12.17028,9.50752 19.25921,11.86804 5.42748,1.83444 11.34319,2.42261 17.05113,1.4923 5.42423,-0.85959 10.71887,-3.04916 15.64991,-5.93403 5.05717,-2.96552 9.74114,-6.67673 14.19277,-10.69051 4.31459,-3.89373 8.39824,-8.09557 12.45283,-12.34098 3.45932,-3.62377 6.88398,-7.33323 10.59943,-10.73844 1.45678,-1.33565 2.96801,-2.62832 4.59673,-3.7531 1.27589,-0.88232 2.63812,-1.67764 4.11416,-2.1282 -1.4415,0.55098 -2.72296,1.42938 -3.92407,2.38543 -1.53059,1.21995 -2.92771,2.59347 -4.27874,4.01354 -3.44548,3.62302 -6.5768,7.52471 -9.79257,11.39192 -3.75896,4.52275 -7.5759,9.02956 -11.70029,13.30442 -4.24911,4.40759 -8.83791,8.5844 -13.99464,12.12048 -5.03779,3.46043 -10.68649,6.25277 -16.84981,7.70912 -6.55432,1.52042 -13.47867,1.35334 -20.03732,-0.37546 -8.41398,-2.24837 -16.02455,-6.64767 -22.69437,-11.84728 -7.60833,-5.89676 -14.31119,-12.78521 -20.41598,-20.05169 -0.0954,0.0974 -0.19222,0.19324 -0.28761,0.29078 l -7.53176,-7.77624 c 8.79284,-8.06867 17.87646,-16.04298 27.69691,-23.17209 6.23173,-4.55325 12.97976,-8.89108 20.53101,-11.81372 4.55204,-1.7676 9.48011,-2.82312 14.48835,-2.78646 z m 205.9685,6.81757 c -3.94693,0.0493 -8.02577,1.24293 -12.1094,2.75772 -4.9692,1.87375 -9.90267,4.20632 -15.02509,6.33985 -6.6463,2.7699 -13.46085,5.18305 -20.43837,7.02367 -4.23553,1.11551 -8.5135,2.02015 -12.81393,2.75133 1.46102,1.07653 2.82941,2.28082 4.14296,3.52942 3.68476,3.50101 7.05656,7.31772 10.45883,11.05319 3.9937,4.38268 8.00913,8.72837 12.25789,12.78036 4.37108,4.16565 8.97242,8.04732 13.97067,11.19221 4.83299,3.03295 10.03996,5.3972 15.4166,6.40855 5.59302,1.07865 11.43841,0.64231 16.79876,-1.08168 7.01368,-2.21451 13.32817,-6.53535 19.07064,-11.55009 6.43448,-5.65725 12.03648,-12.26089 17.20452,-19.29596 -6.02404,-5.98983 -12.16155,-11.7846 -18.63608,-17.12783 -5.6396,-4.62082 -11.33267,-8.93858 -17.60237,-11.81533 -4.08573,-1.86573 -8.42771,-3.09466 -12.69563,-2.96541 z M 302.9811,224.93235 c 9.33949,5.3e-4 16.90971,6.81457 16.91053,15.22011 4.1e-4,8.40636 -7.57011,15.22105 -16.91053,15.22172 -9.34122,3.6e-4 -16.91413,-6.81461 -16.91372,-15.22172 5.4e-4,-8.40627 7.57341,-15.22048 16.91372,-15.22011 z m 186.19795,0 c 9.34034,-3.7e-4 16.91294,6.81384 16.91372,15.22011 4.2e-4,8.40711 -7.57248,15.22208 -16.91372,15.22172 -9.34034,-5.4e-4 -16.91091,-6.81536 -16.91049,-15.22172 0,-8.40554 7.57105,-15.21944 16.91049,-15.22011 z m -115.40509,7.18825 c -3.76858,2.53589 -6.8861,5.87071 -9.73503,9.37876 -3.27511,4.03791 -6.19121,8.35058 -9.11514,12.68131 -3.14954,4.66725 -6.28786,9.36903 -9.70789,13.92274 -3.46552,4.61801 -7.23442,9.08898 -11.5581,13.09831 -4.33613,4.0218 -9.26601,7.52915 -14.78073,10.07857 -6.00983,2.75985 -12.58031,4.27115 -19.21928,4.55198 -8.30249,0.33719 -16.55069,-1.06341 -24.35602,-3.40001 -10.67417,-3.17877 -20.75397,-7.93962 -30.28365,-13.32359 l 5.63045,-9.24615 c 8.72464,5.73122 17.76505,10.85307 27.36618,14.43244 7.00353,2.59965 14.26451,4.41953 21.57115,4.5983 5.79442,0.15468 11.65463,-0.74095 17.10385,-2.80564 5.02804,-1.88902 9.75289,-4.77968 14.06975,-8.23956 4.31492,-3.46042 8.23359,-7.50401 11.93994,-11.77379 3.65277,-4.21153 7.09225,-8.65995 10.56588,-13.1015 3.21921,-4.11823 6.46875,-8.25991 10.0546,-12.09972 3.11392,-3.33844 6.51734,-6.48642 10.45404,-8.75245 z m 44.61227,0.007 c 3.94239,2.26971 7.34718,5.43141 10.45722,8.7828 3.58997,3.86398 6.83867,8.03263 10.05624,12.17802 3.47622,4.47664 6.91573,8.96072 10.56905,13.21015 3.70739,4.30927 7.62517,8.3952 11.9447,11.9 4.31527,3.49885 9.03948,6.4311 14.07455,8.35941 5.44256,2.10136 11.30513,3.03401 17.10387,2.90629 7.29922,-0.1438 14.56072,-1.93885 21.56315,-4.52162 9.60067,-3.55696 18.63632,-8.67041 27.35662,-14.39728 l 5.63044,9.24455 c -9.52738,5.38407 -19.60937,10.14344 -30.29003,13.30283 -7.80958,2.32242 -16.06263,3.69655 -24.364,3.32171 -6.64948,-0.31215 -13.22238,-1.86783 -19.22254,-4.66862 -5.51997,-2.59357 -10.44697,-6.14436 -14.77589,-10.20479 -4.323,-4.0534 -8.08781,-8.56479 -11.55175,-13.22133 -3.41754,-4.59105 -6.55135,-9.32959 -9.70144,-14.0314 -2.92084,-4.35702 -5.83712,-8.69406 -9.11516,-12.75479 -2.8448,-3.52007 -5.96058,-6.86659 -9.73503,-9.40593 z m -11.63479,37.47351 c -0.0638,7.1172 -0.2638,14.24814 -0.0239,21.30752 0.2626,7.61947 0.92216,15.19623 2.83444,22.29653 1.74948,6.29594 4.40011,12.30164 8.75401,15.97585 2.06208,1.81886 4.53135,3.15792 7.11002,3.93524 3.10285,0.9704 6.53476,1.13962 10.0178,0.91551 l 0.0197,10.82472 c -4.48226,-0.20955 -9.08798,-1.12935 -13.4114,-3.03891 -3.65056,-1.63841 -6.90376,-4.02762 -9.51307,-6.98534 -5.18409,-6.07802 -7.48776,-13.46858 -8.39771,-20.55179 -1.07268,-7.91821 -0.77853,-15.76461 -0.0719,-23.4501 0.6519,-7.14209 1.73422,-14.17513 2.68261,-21.22923 z m -24.83059,0.003 c 0.94839,7.05331 2.02921,14.08395 2.68105,21.22604 0.70662,7.68548 1.00245,15.53242 -0.0703,23.45009 -0.90989,7.08255 -3.21529,14.47472 -8.39932,20.55339 -2.60932,2.95783 -5.86407,5.34532 -9.51458,6.98375 -4.32359,1.90967 -8.9277,2.82934 -13.40987,3.03891 l 0.0208,-10.82473 c 3.48306,0.2241 6.91192,0.0548 10.01465,-0.91551 2.57867,-0.77732 5.04788,-2.11478 7.10996,-3.93364 4.35378,-3.67388 7.00621,-9.68097 8.75563,-15.97745 1.91228,-7.09986 2.57028,-14.67674 2.83282,-22.29653 0.23992,-7.05982 0.0431,-14.18702 -0.021,-21.30432 z m 4.31073,79.30086 c 0.83654,2.74048 0.78601,5.51816 0.0269,7.98553 -0.73296,2.1817 -1.85917,3.8805 -3.10919,5.26616 -1.13573,1.27406 -2.32954,2.30396 -3.50227,3.30254 -0.83415,0.75762 -1.69728,1.29298 -2.25601,2.21927 -0.0569,-1.08019 0.37433,-2.25271 0.65028,-3.24022 0.40822,-1.48678 0.8008,-2.94703 0.96342,-4.31712 0.17087,-1.50818 0.13555,-2.90539 -0.29877,-3.93363 -0.43288,-1.03635 -1.22242,-1.84048 -2.03556,-2.20809 l 9.56092,-5.07444 z m 13.24693,0.002 9.56091,5.07443 c -0.81319,0.3676 -1.60262,1.17339 -2.03555,2.20969 -0.43432,1.02824 -0.46965,2.42396 -0.29877,3.93205 0.16262,1.36997 0.55838,2.83034 0.96665,4.3171 0.27589,0.98743 0.7041,2.16159 0.64705,3.24183 -0.55862,-0.92626 -1.42019,-1.46327 -2.2544,-2.22086 -1.17273,-0.99868 -2.36815,-2.02849 -3.50388,-3.30254 -1.25014,-1.38567 -2.37629,-3.08447 -3.10919,-5.26617 -0.75883,-2.46726 -0.80937,-5.24505 0.0269,-7.98553 z m -27.60905,27.80395 c 1.45563,-0.004 2.90922,0.0216 4.36024,0.0751 5.69379,0.2558 17.44354,7.79767 23.54278,6.46927 6.42226,-1.43209 12.9887,-3.1659 19.85354,-4.21645 3.43149,-0.53564 6.95375,-0.85974 10.502,-0.8532 3.54818,0.007 7.12133,0.34385 10.65694,1.1328 8.05787,1.87072 9.84765,4.9995 15.65155,10.54193 3.83904,3.6375 7.56595,7.59142 10.64102,12.13646 2.05537,2.97472 3.85838,6.44824 4.52638,10.40291 -0.021,4.71462 0.26039,3.11767 -0.0203,4.71495 -0.2723,1.49184 -11.9444,62.97683 -12.71005,64.26129 -1.73661,2.8118 -1.91036,4.52316 -4.49447,5.91965 -3.32445,1.84009 -6.86089,3.00917 -10.35501,3.87453 -7.61074,1.87691 -8.93806,1.52244 -13.02157,2.33751 -4.21894,0.84207 -11.75077,-4.37378 -20.04531,-5.16871 -11.92116,-0.35835 -18.95119,0.76709 -30.79332,-0.37707 -11.00649,-1.0632 -14.03222,5.57455 -24.9792,4.08703 -8.08056,-1.09795 -27.27985,-8.12134 -27.27985,-8.12134 l 0.14859,-0.0511 c -5.48213,-13.54904 -19.89117,-65.2267 -17.05435,-75.56699 1.04511,-1.54229 2.15226,-3.00067 3.29295,-4.38741 7.61794,-9.44185 14.69479,-14.70968 27.29746,-22.44671 9.82578,-3.26074 20.09109,-4.73411 30.28049,-4.76448 z m -43.81654,107.1657 c 0.002,0.006 0.006,0.0136 0.008,0.0192 l 2.33111,-0.83403 -2.33909,0.81485 z m 2.3391,-0.81485 3.27217,-1.13919 c 0,0 14.15725,4.31828 22.2582,5.1751 2.74403,0.29021 1.50957,0.0871 3.42556,-0.15499 1.91594,-0.24203 2.42899,-50.542 4.12698,-50.5766 1.64105,-0.0333 7.78053,48.72781 9.69988,48.43244 1.9194,-0.29536 4.11632,-0.43601 6.86711,-0.25246 11.83998,0.79005 18.83732,0.59507 30.67514,0.59916 2.6753,3.8e-4 6.13613,0.3861 7.20097,0.83402 1.06489,0.44793 4.14709,-49.24829 4.89388,-49.26326 0.92342,-0.0185 4.81642,52.42998 5.85575,52.69682 1.31277,0.31954 1.26218,0.58264 1.06573,0.72218 0.17387,-0.0588 0.42857,-0.13461 0.91229,-0.25404 2.94544,-0.72719 9.19665,-2.58462 12.24519,-2.95902 3.26188,-0.93395 6.4055,-2.05645 9.13899,-3.70677 2.07148,-1.28586 13.73544,-60.69103 14.69292,-62.52774 0.44216,-0.79962 0.4606,-2.81876 0.58957,-3.70198 0.14986,-0.9531 -0.61999,-2.69282 -0.80691,-3.72275 -0.47527,-2.79805 -2.07819,-5.49314 -3.92718,-8.14529 -2.83576,-3.97264 -6.39669,-7.49832 -10.17126,-10.89823 -2.65752,-2.36729 -1.00897,-1.72679 -4.10781,-3.36804 -3.09884,-1.64124 -13.8753,49.63559 -16.29062,49.2409 -2.02413,-0.3018 1.33576,-55.10437 -1.78147,-55.00236 -3.11727,0.10198 -6.27455,0.49456 -9.41871,1.05291 -6.3194,1.14276 -12.64934,3.03168 -19.22889,4.69736 -6.20354,1.60313 -18.57782,-5.67766 -25.52876,-5.69435 -10.7564,-0.0539 -13.81482,-0.0984 -23.70571,3.54699 -1.86237,0.68368 2.58002,49.69392 0.77969,50.51909 -1.80033,0.82515 -13.62578,-46.0571 -15.35113,-45.09475 -1.72534,0.96236 -0.83906,0.70701 -2.4765,1.80226 -1.63741,1.09524 -3.22791,2.25603 -4.76447,3.47988 -4.25028,3.38618 -9.75132,6.32292 -11.37276,11.45263 -6.10631,19.31846 14.42923,71.0661 14.42923,71.0661 z m 99.34137,7.07322 c -0.41539,0.14057 -0.17393,0.12353 0,0 z"
         style="fill:#000000;fill-opacity:1;fill-rule:evenodd;stroke:none;stroke-width:1px;stroke-linecap:butt;stroke-linejoin:miter;stroke-opacity:1"
         sodipodi:nodetypes="czsccccscsccccccccccccccccccccccccccccccccccccccccccccccccccccccccccccccccccccccccccccccccccccccccccccccccccccccccccccccccccccccccccccccccccccccccccccccccccccccccccccccccccccccccccccccccccccccccccccccccccccccccccccccccccsccsccccccccccccccsccsscscccccccccccsccccccssscscccc" />
      <path
         id="path5035"
         d="M -559.36713,672.02879"
         stroke-miterlimit="22.926"
         inkscape:connector-curvature="0"
         style="fill:none;stroke:#a65c45;stroke-width:1.60731065;stroke-miterlimit:22.9260006" />
    </g>
  </g>
</svg>
